G04 Layer_Physical_Order=3*
G04 Layer_Color=32768*
%FSLAX25Y25*%
%MOIN*%
G70*
G01*
G75*
%ADD29C,0.04000*%
%ADD45C,0.07543*%
G04:AMPARAMS|DCode=46|XSize=99.37mil|YSize=99.37mil|CornerRadius=0mil|HoleSize=0mil|Usage=FLASHONLY|Rotation=0.000|XOffset=0mil|YOffset=0mil|HoleType=Round|Shape=Relief|Width=10mil|Gap=10mil|Entries=4|*
%AMTHD46*
7,0,0,0.09937,0.07937,0.01000,45*
%
%ADD46THD46*%
%ADD47C,0.07937*%
%ADD48C,0.06362*%
G04:AMPARAMS|DCode=49|XSize=83.622mil|YSize=83.622mil|CornerRadius=0mil|HoleSize=0mil|Usage=FLASHONLY|Rotation=0.000|XOffset=0mil|YOffset=0mil|HoleType=Round|Shape=Relief|Width=10mil|Gap=10mil|Entries=4|*
%AMTHD49*
7,0,0,0.08362,0.06362,0.01000,45*
%
%ADD49THD49*%
%ADD50C,0.07150*%
%ADD51C,0.08134*%
G04:AMPARAMS|DCode=52|XSize=101.339mil|YSize=101.339mil|CornerRadius=0mil|HoleSize=0mil|Usage=FLASHONLY|Rotation=0.000|XOffset=0mil|YOffset=0mil|HoleType=Round|Shape=Relief|Width=10mil|Gap=10mil|Entries=4|*
%AMTHD52*
7,0,0,0.10134,0.08134,0.01000,45*
%
%ADD52THD52*%
%ADD53C,0.16598*%
%ADD54C,0.10496*%
G04:AMPARAMS|DCode=55|XSize=124.961mil|YSize=124.961mil|CornerRadius=0mil|HoleSize=0mil|Usage=FLASHONLY|Rotation=0.000|XOffset=0mil|YOffset=0mil|HoleType=Round|Shape=Relief|Width=10mil|Gap=10mil|Entries=4|*
%AMTHD55*
7,0,0,0.12496,0.10496,0.01000,45*
%
%ADD55THD55*%
G04:AMPARAMS|DCode=56|XSize=88mil|YSize=88mil|CornerRadius=0mil|HoleSize=0mil|Usage=FLASHONLY|Rotation=0.000|XOffset=0mil|YOffset=0mil|HoleType=Round|Shape=Relief|Width=10mil|Gap=10mil|Entries=4|*
%AMTHD56*
7,0,0,0.08800,0.06800,0.01000,45*
%
%ADD56THD56*%
%ADD57C,0.06800*%
%ADD58C,0.09512*%
%ADD59C,0.05575*%
G04:AMPARAMS|DCode=60|XSize=75.748mil|YSize=75.748mil|CornerRadius=0mil|HoleSize=0mil|Usage=FLASHONLY|Rotation=0.000|XOffset=0mil|YOffset=0mil|HoleType=Round|Shape=Relief|Width=10mil|Gap=10mil|Entries=4|*
%AMTHD60*
7,0,0,0.07575,0.05575,0.01000,45*
%
%ADD60THD60*%
G04:AMPARAMS|DCode=61|XSize=95.433mil|YSize=95.433mil|CornerRadius=0mil|HoleSize=0mil|Usage=FLASHONLY|Rotation=0.000|XOffset=0mil|YOffset=0mil|HoleType=Round|Shape=Relief|Width=10mil|Gap=10mil|Entries=4|*
%AMTHD61*
7,0,0,0.09543,0.07543,0.01000,45*
%
%ADD61THD61*%
D29*
X-54568Y-31880D02*
X-50521Y-20610D01*
X-46091Y-9484D01*
X-41283Y1483D01*
X-36104Y12280D01*
X-30558Y22894D01*
X-24654Y33312D01*
X-18396Y43522D01*
X-11794Y53512D01*
X-4854Y63271D01*
X2416Y72786D01*
X10006Y82049D01*
X17909Y91046D01*
X26114Y99768D01*
X34613Y108204D01*
X43394Y116345D01*
X52449Y124181D01*
X61767Y131704D01*
X71336Y138903D01*
X81145Y145772D01*
X91184Y152301D01*
X101439Y158483D01*
X111900Y164311D01*
X122554Y169779D01*
X133388Y174879D01*
X144391Y179606D01*
X155548Y183954D01*
X166848Y187918D01*
X178277Y191495D01*
X189821Y194678D01*
X201467Y197465D01*
X213201Y199852D01*
X225010Y201837D01*
X236881Y203418D01*
X248798Y204592D01*
X260748Y205358D02*
X272718Y205715D01*
X284693Y205663D01*
X296659Y205202D01*
X308602Y204332D01*
Y-493633D02*
Y204332D01*
X296659Y-494502D02*
X308602Y-493633D01*
X284693Y-494964D02*
X296659Y-494502D01*
X272718Y-495015D02*
X284693Y-494964D01*
X260748Y-494658D02*
X272718Y-495015D01*
X248798Y-493892D02*
X260748Y-494658D01*
X236881Y-492718D02*
X248798Y-493892D01*
X225010Y-491138D02*
X236881Y-492718D01*
X213201Y-489153D02*
X225010Y-491138D01*
X201467Y-486765D02*
X213201Y-489153D01*
X189821Y-483978D02*
X201467Y-486765D01*
X178277Y-480795D02*
X189821Y-483978D01*
X166848Y-477219D02*
X178277Y-480795D01*
X155548Y-473254D02*
X166848Y-477219D01*
X144391Y-468906D02*
X155548Y-473254D01*
X133388Y-464179D02*
X144391Y-468906D01*
X122554Y-459079D02*
X133388Y-464179D01*
X111900Y-453612D02*
X122554Y-459079D01*
X101439Y-447784D02*
X111900Y-453612D01*
X91184Y-441601D02*
X101439Y-447784D01*
X81145Y-435072D02*
X91184Y-441601D01*
X71336Y-428204D02*
X81145Y-435072D01*
X61767Y-421004D02*
X71336Y-428204D01*
X52449Y-413482D02*
X61767Y-421004D01*
X43394Y-405646D02*
X52449Y-413482D01*
X34613Y-397505D02*
X43394Y-405646D01*
X26114Y-389068D02*
X34613Y-397505D01*
X17909Y-380346D02*
X26114Y-389068D01*
X10006Y-371349D02*
X17909Y-380346D01*
X2416Y-362087D02*
X10006Y-371349D01*
X-4854Y-352571D02*
X2416Y-362087D01*
X-11794Y-342812D02*
X-4854Y-352571D01*
X-18396Y-332822D02*
X-11794Y-342812D01*
X-24654Y-322612D02*
X-18396Y-332822D01*
X-30558Y-312194D02*
X-24654Y-322612D01*
X-36104Y-301581D02*
X-30558Y-312194D01*
X-41283Y-290784D02*
X-36104Y-301581D01*
X-46091Y-279816D02*
X-41283Y-290784D01*
X-50521Y-268691D02*
X-46091Y-279816D01*
X-54568Y-257421D02*
X-50521Y-268691D01*
X-54933Y-255803D02*
X-54568Y-257421D01*
X-54952Y-254146D02*
X-54933Y-255803D01*
X-54952Y-254146D02*
X-54623Y-252521D01*
X-53961Y-251001D01*
X-52996Y-249653D01*
X-51770Y-248537D01*
X-50337Y-247703D01*
X-48761Y-247187D01*
X-47113Y-247012D01*
X-18093D01*
X-15009Y-246810D01*
X-11979Y-246207D01*
X-9053Y-245214D01*
X-6282Y-243848D01*
X-3712Y-242131D01*
X-1389Y-240094D01*
X648Y-237771D01*
X2365Y-235202D01*
X3731Y-232430D01*
X4725Y-229504D01*
X5327Y-226474D01*
X5529Y-223390D01*
Y-65910D01*
X5327Y-62827D02*
X5529Y-65910D01*
X4725Y-59796D02*
X5327Y-62827D01*
X3731Y-56870D02*
X4725Y-59796D01*
X2365Y-54099D02*
X3731Y-56870D01*
X648Y-51530D02*
X2365Y-54099D01*
X-1389Y-49207D02*
X648Y-51530D01*
X-3712Y-47170D02*
X-1389Y-49207D01*
X-6282Y-45453D02*
X-3712Y-47170D01*
X-9053Y-44086D02*
X-6282Y-45453D01*
X-11979Y-43093D02*
X-9053Y-44086D01*
X-15009Y-42490D02*
X-11979Y-43093D01*
X-18093Y-42288D02*
X-15009Y-42490D01*
X-47113Y-42288D02*
X-18093D01*
X-48761Y-42114D02*
X-47113Y-42288D01*
X-50337Y-41598D02*
X-48761Y-42114D01*
X-51770Y-40763D02*
X-50337Y-41598D01*
X-52996Y-39647D02*
X-51770Y-40763D01*
X-53961Y-38300D02*
X-52996Y-39647D01*
X-54623Y-36780D02*
X-53961Y-38300D01*
X-54952Y-35155D02*
X-54623Y-36780D01*
X-54952Y-35155D02*
X-54933Y-33497D01*
X-54568Y-31880D01*
X248798Y204592D02*
X260748Y205358D01*
D45*
X64567Y-410787D02*
D03*
Y-400787D02*
D03*
X74567Y-410787D02*
D03*
Y-400787D02*
D03*
X84567Y-410787D02*
D03*
Y-400787D02*
D03*
X94567Y-410787D02*
D03*
Y-400787D02*
D03*
X104567Y-410787D02*
D03*
Y-400787D02*
D03*
X114567Y-410787D02*
D03*
Y-400787D02*
D03*
X124567Y-410787D02*
D03*
Y-400787D02*
D03*
X134567Y-410787D02*
D03*
Y-400787D02*
D03*
X144567Y-410787D02*
D03*
Y-400787D02*
D03*
X154567Y-410787D02*
D03*
Y-400787D02*
D03*
X164567Y-410787D02*
D03*
Y-400787D02*
D03*
X174567Y-410787D02*
D03*
Y-400787D02*
D03*
X44150Y-220121D02*
D03*
X54150D02*
D03*
X44150Y-230121D02*
D03*
X54150D02*
D03*
X44150Y-240121D02*
D03*
X54150D02*
D03*
X205650Y-171263D02*
D03*
X71978Y-163322D02*
D03*
X77150Y-154650D02*
D03*
X53478Y-188322D02*
D03*
X193781Y-104019D02*
D03*
X83748Y64225D02*
D03*
X73299D02*
D03*
X62850D02*
D03*
X80638Y8319D02*
D03*
X52402Y64225D02*
D03*
X0Y-9449D02*
D03*
Y0D02*
D03*
X9449D02*
D03*
Y-9449D02*
D03*
X215638Y64225D02*
D03*
X229024D02*
D03*
X242409D02*
D03*
X186614Y-9449D02*
D03*
Y0D02*
D03*
X177165D02*
D03*
Y-9449D02*
D03*
D46*
X261114Y-445973D02*
D03*
X157150Y-144650D02*
D03*
X297150Y-114650D02*
D03*
D47*
X261114Y-436131D02*
D03*
X157150Y-134650D02*
D03*
Y-154650D02*
D03*
X257150Y-174650D02*
D03*
X267150D02*
D03*
X277150D02*
D03*
X287150D02*
D03*
X297150D02*
D03*
X257150Y-114650D02*
D03*
X267150D02*
D03*
X277150D02*
D03*
X287150D02*
D03*
D48*
X19150Y-208770D02*
D03*
Y-213691D02*
D03*
Y-218613D02*
D03*
Y-180210D02*
D03*
Y-185132D02*
D03*
Y-190053D02*
D03*
Y-151650D02*
D03*
Y-156571D02*
D03*
Y-161493D02*
D03*
X19150Y-122886D02*
D03*
Y-127808D02*
D03*
Y-132729D02*
D03*
X19150Y-94308D02*
D03*
Y-99229D02*
D03*
Y-104150D02*
D03*
Y-109071D02*
D03*
Y-65748D02*
D03*
Y-70669D02*
D03*
Y-75590D02*
D03*
Y-80511D02*
D03*
D49*
Y-223534D02*
D03*
Y-194974D02*
D03*
Y-166414D02*
D03*
X19150Y-137650D02*
D03*
D50*
X149315Y-30162D02*
D03*
X98921D02*
D03*
X109000D02*
D03*
X119079D02*
D03*
X129157D02*
D03*
X139236D02*
D03*
X93961Y-37682D02*
D03*
X104039D02*
D03*
X114118D02*
D03*
X124197D02*
D03*
X134276D02*
D03*
X144354D02*
D03*
X98921Y-45201D02*
D03*
X109000D02*
D03*
X119079D02*
D03*
X129157D02*
D03*
X139236D02*
D03*
X149315D02*
D03*
X93921Y-52721D02*
D03*
X104000D02*
D03*
X114079D02*
D03*
X124158D02*
D03*
X134236D02*
D03*
X144315D02*
D03*
X149315Y-360162D02*
D03*
X98921D02*
D03*
X109000D02*
D03*
X119079D02*
D03*
X129157D02*
D03*
X139236D02*
D03*
X93961Y-367682D02*
D03*
X104039D02*
D03*
X114118D02*
D03*
X124197D02*
D03*
X134276D02*
D03*
X144354D02*
D03*
X98921Y-375201D02*
D03*
X109000D02*
D03*
X119079D02*
D03*
X129157D02*
D03*
X139236D02*
D03*
X149315D02*
D03*
X93921Y-382721D02*
D03*
X104000D02*
D03*
X114079D02*
D03*
X124158D02*
D03*
X134236D02*
D03*
X144315D02*
D03*
X149315Y-195162D02*
D03*
X98921D02*
D03*
X109000D02*
D03*
X119079D02*
D03*
X129157D02*
D03*
X139236D02*
D03*
X93961Y-202682D02*
D03*
X104039D02*
D03*
X114118D02*
D03*
X124197D02*
D03*
X134276D02*
D03*
X144354D02*
D03*
X98921Y-210201D02*
D03*
X109000D02*
D03*
X119079D02*
D03*
X129157D02*
D03*
X139236D02*
D03*
X149315D02*
D03*
X93921Y-217721D02*
D03*
X104000D02*
D03*
X114079D02*
D03*
X124158D02*
D03*
X134236D02*
D03*
X144315D02*
D03*
X149315Y134838D02*
D03*
X98921D02*
D03*
X109000D02*
D03*
X119079D02*
D03*
X129157D02*
D03*
X139236D02*
D03*
X93961Y127318D02*
D03*
X104039D02*
D03*
X114118D02*
D03*
X124197D02*
D03*
X134276D02*
D03*
X144354D02*
D03*
X98921Y119799D02*
D03*
X109000D02*
D03*
X119079D02*
D03*
X129157D02*
D03*
X139236D02*
D03*
X149315D02*
D03*
X93921Y112279D02*
D03*
X104000D02*
D03*
X114079D02*
D03*
X124158D02*
D03*
X134236D02*
D03*
X144315D02*
D03*
D51*
X196677Y-48036D02*
D03*
X186835D02*
D03*
X176992D02*
D03*
X167150D02*
D03*
X214394Y-34650D02*
D03*
X224236D02*
D03*
X234079D02*
D03*
X243921D02*
D03*
X214394Y-48036D02*
D03*
X224236D02*
D03*
X234079D02*
D03*
X243921D02*
D03*
X196677Y-378036D02*
D03*
X186835D02*
D03*
X176992D02*
D03*
X167150D02*
D03*
X214394Y-364650D02*
D03*
X224236D02*
D03*
X234079D02*
D03*
X243921D02*
D03*
X214394Y-378036D02*
D03*
X224236D02*
D03*
X234079D02*
D03*
X243921D02*
D03*
X196677Y-213036D02*
D03*
X186835D02*
D03*
X176992D02*
D03*
X167150D02*
D03*
X214394Y-199650D02*
D03*
X224236D02*
D03*
X234079D02*
D03*
X243921D02*
D03*
X214394Y-213036D02*
D03*
X224236D02*
D03*
X234079D02*
D03*
X243921D02*
D03*
X196677Y116964D02*
D03*
X186835D02*
D03*
X176992D02*
D03*
X167150D02*
D03*
X214394Y130350D02*
D03*
X224236D02*
D03*
X234079D02*
D03*
X243921D02*
D03*
X214394Y116964D02*
D03*
X224236D02*
D03*
X234079D02*
D03*
X243921D02*
D03*
D52*
X196677Y-34650D02*
D03*
X186835D02*
D03*
X176992D02*
D03*
X167150D02*
D03*
X196677Y-364650D02*
D03*
X186835D02*
D03*
X176992D02*
D03*
X167150D02*
D03*
X196677Y-199650D02*
D03*
X186835D02*
D03*
X176992D02*
D03*
X167150D02*
D03*
X196677Y130350D02*
D03*
X186835D02*
D03*
X176992D02*
D03*
X167150D02*
D03*
D53*
X275590Y-206299D02*
D03*
Y-41339D02*
D03*
X61811Y-144488D02*
D03*
X-36753Y-262761D02*
D03*
Y-26540D02*
D03*
X266397Y189995D02*
D03*
Y-479296D02*
D03*
D54*
X3150Y-20650D02*
D03*
D55*
X-12441D02*
D03*
D56*
X298031Y-71260D02*
D03*
D57*
X279528Y-81102D02*
D03*
D58*
X9055Y-34036D02*
D03*
D59*
X205650Y-332150D02*
D03*
X205649Y-312150D02*
D03*
X160150Y-272150D02*
D03*
X61650Y-332150D02*
D03*
X61650Y-312150D02*
D03*
X61650Y-292150D02*
D03*
X61650Y-272150D02*
D03*
X84150Y-116150D02*
D03*
X88650Y-112150D02*
D03*
X84650Y-193150D02*
D03*
X61150Y-196650D02*
D03*
X101650Y-186650D02*
D03*
X61094Y-171705D02*
D03*
D60*
X26150Y-332150D02*
D03*
Y-312150D02*
D03*
Y-292150D02*
D03*
Y-272150D02*
D03*
X240582Y-418150D02*
D03*
X235582Y-408150D02*
D03*
X240582Y-438150D02*
D03*
X225582Y-408150D02*
D03*
X230582Y-418150D02*
D03*
Y-438150D02*
D03*
X225582Y-448150D02*
D03*
X215582Y-408150D02*
D03*
X220582Y-418150D02*
D03*
X215582Y-428150D02*
D03*
X220582Y-438150D02*
D03*
X205582Y-408150D02*
D03*
X210582Y-418150D02*
D03*
X205582Y-428150D02*
D03*
X210582Y-438150D02*
D03*
X195582Y-408150D02*
D03*
X200582Y-418150D02*
D03*
D61*
X154328Y-113472D02*
D03*
X68047Y31811D02*
D03*
X57811D02*
D03*
X47575D02*
D03*
X37339D02*
D03*
X27102D02*
D03*
X16866D02*
D03*
X6630D02*
D03*
X-3606D02*
D03*
X-13842D02*
D03*
X20331Y-18504D02*
D03*
Y-28346D02*
D03*
Y-38189D02*
D03*
M02*
