G04 Layer_Physical_Order=1*
G04 Layer_Color=255*
%FSLAX25Y25*%
%MOIN*%
G70*
G01*
G75*
%ADD10R,0.04528X0.05315*%
%ADD11R,0.04724X0.04724*%
%ADD12R,0.03543X0.08465*%
%ADD13R,0.12598X0.08465*%
%ADD14R,0.10039X0.09646*%
%ADD15R,0.07087X0.13583*%
%ADD16R,0.05315X0.04528*%
%ADD17R,0.03827X0.03157*%
%ADD18R,0.04724X0.04724*%
%ADD19R,0.05905X0.06299*%
%ADD20R,0.02165X0.02165*%
%ADD21R,0.14567X0.15748*%
%ADD22R,0.09055X0.18307*%
%ADD23R,0.15354X0.06299*%
%ADD24R,0.10630X0.05118*%
%ADD25R,0.39370X0.11811*%
%ADD26R,0.05118X0.10630*%
%ADD27C,0.01000*%
%ADD28C,0.02000*%
%ADD29C,0.04000*%
%ADD30C,0.01200*%
%ADD31R,0.05905X0.05905*%
%ADD32C,0.05905*%
%ADD33O,0.09842X0.06890*%
%ADD34R,0.05905X0.05905*%
%ADD35O,0.04528X0.03347*%
%ADD36C,0.05118*%
%ADD37C,0.06693*%
%ADD38O,0.06693X0.05905*%
%ADD39R,0.06693X0.06693*%
%ADD40C,0.12598*%
%ADD41C,0.09449*%
%ADD42C,0.05000*%
%ADD43C,0.05512*%
%ADD44C,0.03150*%
G36*
X59378Y-40917D02*
X60961D01*
Y-41417D01*
X61461D01*
Y-43000D01*
X62171D01*
X62550Y-43497D01*
X62490Y-43728D01*
X62428Y-43772D01*
X62315Y-43772D01*
X61461D01*
Y-45354D01*
Y-46937D01*
X62315D01*
X62543Y-46937D01*
X62814Y-47323D01*
X62543Y-47709D01*
X62315Y-47709D01*
X61461D01*
Y-49291D01*
X60961D01*
Y-49791D01*
X59378D01*
Y-50646D01*
X59378Y-50874D01*
X58992Y-51144D01*
X58606Y-50874D01*
X58606Y-50646D01*
Y-49791D01*
X57024D01*
X55441D01*
Y-50501D01*
X55187Y-50766D01*
X54944Y-50881D01*
X54740Y-50828D01*
X54687Y-50655D01*
X54669Y-50585D01*
X54669Y-50431D01*
Y-49791D01*
X53587D01*
Y-50874D01*
X54226D01*
X54381Y-50874D01*
X54649Y-50941D01*
X54760Y-51019D01*
X54806Y-51304D01*
X54795Y-51467D01*
X54669Y-51646D01*
X53587D01*
Y-53228D01*
X53087D01*
Y-53728D01*
X51504D01*
Y-54803D01*
X50732D01*
Y-53728D01*
X49150D01*
X47567D01*
Y-54803D01*
X46795D01*
Y-53728D01*
X45213D01*
Y-53228D01*
X44712D01*
Y-51646D01*
X44003D01*
X43623Y-51148D01*
X43679Y-50934D01*
X43918Y-50874D01*
X44073Y-50874D01*
X44712D01*
Y-49791D01*
X43630D01*
Y-50431D01*
X43630Y-50585D01*
X43570Y-50825D01*
X43355Y-50881D01*
X43113Y-50766D01*
X42858Y-50501D01*
Y-49791D01*
X41276D01*
X39693D01*
Y-50646D01*
X39693Y-50874D01*
X39307Y-51144D01*
X38921Y-50874D01*
X38921Y-50646D01*
Y-49791D01*
X37339D01*
X35756D01*
Y-50501D01*
X35502Y-50766D01*
X35259Y-50881D01*
X35028Y-50821D01*
X34984Y-50758D01*
Y-49791D01*
X33402D01*
Y-49291D01*
X32902D01*
Y-47709D01*
X31935D01*
X31707Y-47549D01*
X31548Y-47323D01*
X31819Y-46937D01*
X32902D01*
Y-45354D01*
X33402D01*
Y-44854D01*
X34984D01*
Y-44518D01*
X35370Y-44284D01*
X35756Y-44517D01*
Y-44854D01*
X37339D01*
X38921D01*
Y-44517D01*
X39307Y-44284D01*
X39693Y-44518D01*
Y-44854D01*
X41276D01*
X42858D01*
Y-44517D01*
X43244Y-44284D01*
X43630Y-44518D01*
Y-44854D01*
X45213D01*
X46795D01*
Y-44517D01*
X47181Y-44284D01*
X47567Y-44517D01*
Y-44854D01*
X49150D01*
X50732D01*
Y-43780D01*
X51504D01*
Y-44854D01*
X53087D01*
X54669D01*
Y-44133D01*
X54941Y-43861D01*
X55441Y-43977D01*
X55441Y-44268D01*
Y-44854D01*
X56524D01*
Y-43772D01*
X55938D01*
X55647Y-43772D01*
X55531Y-43272D01*
X55802Y-43000D01*
X56524D01*
Y-41417D01*
X57024D01*
Y-40917D01*
X58606D01*
Y-39843D01*
X59378D01*
Y-40917D01*
D02*
G37*
G36*
X46949Y60945D02*
Y36142D01*
X47011Y35831D01*
X46968Y35660D01*
X46734Y35290D01*
X46646Y35278D01*
X45780Y34920D01*
X45037Y34349D01*
X44466Y33606D01*
X44137Y32811D01*
X51013D01*
X50684Y33606D01*
X50113Y34349D01*
X49758Y34622D01*
X49927Y35122D01*
X55458D01*
X55628Y34622D01*
X55273Y34349D01*
X54702Y33606D01*
X54373Y32811D01*
X61249D01*
X60920Y33606D01*
X60349Y34349D01*
X59994Y34622D01*
X60164Y35122D01*
X65695D01*
X65864Y34622D01*
X65509Y34349D01*
X64938Y33606D01*
X64609Y32811D01*
X68047D01*
Y30811D01*
X64609D01*
X64938Y30016D01*
X65509Y29273D01*
X65736Y29098D01*
X65566Y28598D01*
X60292D01*
X60122Y29098D01*
X60349Y29273D01*
X60920Y30016D01*
X61249Y30811D01*
X54373D01*
X54702Y30016D01*
X55273Y29273D01*
X55500Y29098D01*
X55330Y28598D01*
X50056D01*
X49886Y29098D01*
X50113Y29273D01*
X50684Y30016D01*
X51013Y30811D01*
X44137D01*
X44466Y30016D01*
X45037Y29273D01*
X45100Y28636D01*
X44994Y28563D01*
X44819Y28598D01*
X39819D01*
X39650Y29098D01*
X39877Y29273D01*
X40447Y30016D01*
X40777Y30811D01*
X33900D01*
X34230Y30016D01*
X34800Y29273D01*
X35028Y29098D01*
X34858Y28598D01*
X29583D01*
X29414Y29098D01*
X29641Y29273D01*
X30211Y30016D01*
X30540Y30811D01*
X23664D01*
X23993Y30016D01*
X24564Y29273D01*
X24791Y29098D01*
X24622Y28598D01*
X19347Y28598D01*
X19177Y29098D01*
X19405Y29273D01*
X19975Y30016D01*
X20304Y30811D01*
X13428D01*
X13757Y30016D01*
X14328Y29273D01*
X14555Y29098D01*
X14385Y28598D01*
X9111D01*
X8941Y29098D01*
X9168Y29273D01*
X9739Y30016D01*
X10068Y30811D01*
X3192D01*
X3521Y30016D01*
X4092Y29273D01*
X4319Y29098D01*
X4149Y28598D01*
X-1125Y28598D01*
X-1295Y29098D01*
X-1068Y29273D01*
X-497Y30016D01*
X-168Y30811D01*
X-7044D01*
X-6715Y30016D01*
X-6145Y29273D01*
X-5560Y28824D01*
X-5467Y28398D01*
X-5508Y28205D01*
X-5666Y27969D01*
X-5744Y27579D01*
Y-11890D01*
Y-29921D01*
X-5666Y-30311D01*
X-5445Y-30642D01*
X-5115Y-30863D01*
X-4724Y-30941D01*
X6174Y-30941D01*
X6312Y-31441D01*
X5774Y-32142D01*
X5396Y-33056D01*
X5267Y-34036D01*
X5396Y-35017D01*
X5774Y-35930D01*
X6376Y-36715D01*
X7161Y-37317D01*
X8075Y-37695D01*
X9055Y-37824D01*
X10036Y-37695D01*
X10949Y-37317D01*
X11734Y-36715D01*
X12336Y-35930D01*
X12714Y-35017D01*
X12843Y-34036D01*
X12714Y-33056D01*
X12336Y-32142D01*
X11734Y-31357D01*
X11715Y-31223D01*
X11797Y-30775D01*
X11997Y-30642D01*
X12218Y-30312D01*
X12295Y-29921D01*
X12295Y-14484D01*
X19766D01*
X19799Y-14984D01*
X19402Y-15036D01*
X18536Y-15395D01*
X17792Y-15966D01*
X17222Y-16709D01*
X16893Y-17504D01*
X23769D01*
X23439Y-16709D01*
X22869Y-15966D01*
X22126Y-15395D01*
X21260Y-15036D01*
X20862Y-14984D01*
X20895Y-14484D01*
X44819Y-14484D01*
X45209Y-14407D01*
X45329Y-14327D01*
X45448Y-14406D01*
X45838Y-14484D01*
X66472D01*
Y-16213D01*
X65398D01*
Y-17795D01*
Y-19378D01*
X66472D01*
Y-20150D01*
X65398D01*
Y-21732D01*
Y-23315D01*
X66472D01*
Y-24087D01*
X65398D01*
Y-25669D01*
X64898D01*
Y-26169D01*
X63315D01*
Y-27244D01*
X62543D01*
Y-26169D01*
X60961D01*
X59378D01*
Y-27244D01*
X58606D01*
Y-26169D01*
X57024D01*
X55441D01*
Y-27244D01*
X54669D01*
Y-26169D01*
X53087D01*
X51504D01*
Y-26809D01*
X51144Y-26958D01*
X50732Y-26634D01*
Y-26169D01*
X49650D01*
Y-27252D01*
X50123D01*
X50447Y-27664D01*
X50297Y-28024D01*
X49650D01*
Y-29606D01*
Y-31189D01*
X50267D01*
X50610Y-31589D01*
X50524Y-31961D01*
X49650D01*
Y-33543D01*
Y-35126D01*
X50256D01*
X50600Y-35526D01*
X50513Y-35898D01*
X49650D01*
Y-37480D01*
Y-39063D01*
X50246D01*
X50589Y-39463D01*
X50503Y-39835D01*
X49650D01*
Y-41417D01*
X49150D01*
Y-41917D01*
X47567D01*
Y-42752D01*
X47181Y-42976D01*
X46795Y-42752D01*
Y-41917D01*
X45213D01*
X43630D01*
Y-42752D01*
X43244Y-42976D01*
X42858Y-42752D01*
Y-41917D01*
X41276D01*
X39693D01*
Y-42752D01*
X39307Y-42976D01*
X38921Y-42752D01*
Y-41917D01*
X37339D01*
X35756D01*
Y-42752D01*
X35370Y-42976D01*
X34984Y-42752D01*
Y-41917D01*
X33402D01*
Y-41417D01*
X32902D01*
Y-39835D01*
X32047D01*
X31819Y-39835D01*
X31694Y-39656D01*
X31682Y-39493D01*
X31728Y-39208D01*
X31839Y-39130D01*
X32107Y-39063D01*
X32262Y-39063D01*
X32902D01*
Y-37980D01*
X31819D01*
Y-38620D01*
X31819Y-38774D01*
X31801Y-38844D01*
X31748Y-39017D01*
X31544Y-39070D01*
X31302Y-38955D01*
X31047Y-38690D01*
Y-37980D01*
X29465D01*
X27882D01*
Y-38835D01*
X27882Y-39063D01*
X27494Y-39335D01*
X27382D01*
Y-43093D01*
X-8308D01*
X-8513Y-42992D01*
X-8591Y-42971D01*
X-8661Y-42931D01*
X-11587Y-41937D01*
X-11666Y-41927D01*
X-11741Y-41896D01*
X-14771Y-41293D01*
X-14852D01*
X-14930Y-41273D01*
X-18013Y-41071D01*
X-18053Y-41076D01*
X-18093Y-41068D01*
X-22898D01*
Y-11890D01*
Y33841D01*
X-17367Y42866D01*
X-10787Y52822D01*
X-3871Y62546D01*
X-583Y66850D01*
X46949D01*
Y60945D01*
D02*
G37*
G36*
X88126Y-35118D02*
X66480D01*
Y-34043D01*
X64898D01*
X63315D01*
Y-35118D01*
X62543D01*
Y-34043D01*
X60961D01*
X59378D01*
Y-35118D01*
X58606D01*
Y-34043D01*
X57024D01*
X55441D01*
Y-35118D01*
X54669D01*
Y-34043D01*
X53087D01*
Y-33543D01*
X52587D01*
Y-31961D01*
X52047D01*
X51997Y-31936D01*
X51867Y-31751D01*
X52046Y-31198D01*
X52061Y-31189D01*
X52063Y-31189D01*
X52587D01*
Y-29606D01*
X53087D01*
Y-29106D01*
X54669D01*
Y-28264D01*
X55441D01*
Y-29106D01*
X57024D01*
X58606D01*
Y-28264D01*
X59378D01*
Y-29106D01*
X60961D01*
X62543D01*
Y-28264D01*
X63315D01*
Y-29106D01*
X64898D01*
X66480D01*
Y-28024D01*
X66868Y-27752D01*
X66980D01*
Y-24950D01*
X67193Y-24808D01*
X67414Y-24477D01*
X67492Y-24087D01*
Y-23315D01*
X67414Y-22925D01*
X67193Y-22594D01*
X66980Y-22452D01*
Y-21013D01*
X67193Y-20871D01*
X67414Y-20540D01*
X67492Y-20150D01*
Y-19378D01*
X67414Y-18988D01*
X67193Y-18657D01*
X66980Y-18515D01*
Y-17076D01*
X67193Y-16934D01*
X67414Y-16603D01*
X67492Y-16213D01*
Y-14484D01*
X72378D01*
X72768Y-14406D01*
X73099Y-14186D01*
X73320Y-13855D01*
X73397Y-13465D01*
Y27579D01*
X73320Y27969D01*
X73099Y28300D01*
X72768Y28521D01*
X72378Y28598D01*
Y36142D01*
X47969D01*
Y60945D01*
Y66850D01*
X49300D01*
X49547Y66350D01*
X49293Y66020D01*
X48963Y65225D01*
X55840D01*
X55510Y66020D01*
X55257Y66350D01*
X55503Y66850D01*
X59749D01*
X59995Y66350D01*
X59741Y66020D01*
X59412Y65225D01*
X66288D01*
X65959Y66020D01*
X65705Y66350D01*
X65952Y66850D01*
X70198D01*
X70444Y66350D01*
X70190Y66020D01*
X69861Y65225D01*
X76737D01*
X76408Y66020D01*
X76154Y66350D01*
X76401Y66850D01*
X80646D01*
X80893Y66350D01*
X80639Y66020D01*
X80310Y65225D01*
X87186D01*
X86857Y66020D01*
X86603Y66350D01*
X86850Y66850D01*
X88126D01*
Y-35118D01*
D02*
G37*
G36*
X44819Y27579D02*
X44819Y-13465D01*
X11276Y-13465D01*
X11276Y-29921D01*
X-4724Y-29921D01*
Y27579D01*
X44819Y27579D01*
D02*
G37*
G36*
X72378Y-13465D02*
X45838D01*
X45838Y27579D01*
X45838Y27579D01*
X72378D01*
Y-13465D01*
D02*
G37*
G36*
X239542Y131350D02*
X243921D01*
Y130350D01*
X244921D01*
Y126098D01*
X245056Y126115D01*
X246113Y126553D01*
X247021Y127250D01*
X247650Y128069D01*
X248150Y127984D01*
Y119329D01*
X247650Y119245D01*
X247021Y120064D01*
X246113Y120761D01*
X245056Y121198D01*
X243921Y121348D01*
X242787Y121198D01*
X241729Y120761D01*
X240821Y120064D01*
X240125Y119156D01*
X239687Y118099D01*
X239537Y116964D01*
X239687Y115829D01*
X240125Y114772D01*
X240821Y113864D01*
X241729Y113167D01*
X242787Y112729D01*
X243921Y112580D01*
X245056Y112729D01*
X246113Y113167D01*
X247021Y113864D01*
X247650Y114683D01*
X248150Y114599D01*
X248150Y-32285D01*
X247650Y-32369D01*
X247021Y-31550D01*
X246113Y-30854D01*
X245056Y-30416D01*
X244921Y-30398D01*
Y-34650D01*
Y-38903D01*
X245056Y-38885D01*
X246113Y-38447D01*
X247021Y-37750D01*
X247650Y-36931D01*
X248150Y-37016D01*
Y-45671D01*
X247650Y-45755D01*
X247021Y-44936D01*
X246113Y-44240D01*
X245056Y-43802D01*
X243921Y-43652D01*
X242787Y-43802D01*
X241729Y-44240D01*
X240821Y-44936D01*
X240125Y-45844D01*
X239687Y-46901D01*
X239537Y-48036D01*
X239687Y-49171D01*
X240125Y-50228D01*
X240821Y-51136D01*
X241729Y-51833D01*
X242787Y-52271D01*
X243921Y-52420D01*
X245056Y-52271D01*
X246113Y-51833D01*
X247021Y-51136D01*
X247650Y-50317D01*
X248150Y-50402D01*
X248150Y-197285D01*
X247650Y-197369D01*
X247021Y-196550D01*
X246113Y-195854D01*
X245056Y-195416D01*
X244921Y-195398D01*
Y-199650D01*
Y-203903D01*
X245056Y-203885D01*
X246113Y-203447D01*
X247021Y-202750D01*
X247650Y-201931D01*
X248150Y-202016D01*
Y-210671D01*
X247650Y-210755D01*
X247021Y-209936D01*
X246113Y-209240D01*
X245056Y-208802D01*
X243921Y-208652D01*
X242787Y-208802D01*
X241729Y-209240D01*
X240821Y-209936D01*
X240125Y-210844D01*
X239687Y-211901D01*
X239537Y-213036D01*
X239687Y-214171D01*
X240125Y-215228D01*
X240821Y-216136D01*
X241729Y-216833D01*
X242787Y-217271D01*
X243921Y-217420D01*
X245056Y-217271D01*
X246113Y-216833D01*
X247021Y-216136D01*
X247650Y-215317D01*
X248150Y-215402D01*
X248150Y-362285D01*
X247650Y-362369D01*
X247021Y-361550D01*
X246113Y-360854D01*
X245056Y-360416D01*
X244921Y-360398D01*
Y-364650D01*
X243921D01*
Y-365650D01*
X239669D01*
D01*
X239364Y-366150D01*
X238636D01*
X238331Y-365650D01*
D01*
X234079D01*
X229826D01*
D01*
X229522Y-366150D01*
X228793D01*
X228488Y-365650D01*
D01*
X224236D01*
X219984D01*
D01*
X219679Y-366150D01*
X218951D01*
X218646Y-365650D01*
D01*
X214394D01*
Y-364650D01*
X213394D01*
Y-360398D01*
X213259Y-360416D01*
X212202Y-360854D01*
X211294Y-361550D01*
X210650Y-362390D01*
X210397Y-362366D01*
X210150Y-362252D01*
X210150Y-215434D01*
X210397Y-215320D01*
X210650Y-215297D01*
X211294Y-216136D01*
X212202Y-216833D01*
X213259Y-217271D01*
X214394Y-217420D01*
X215528Y-217271D01*
X216586Y-216833D01*
X217494Y-216136D01*
X218190Y-215228D01*
X218628Y-214171D01*
X218778Y-213036D01*
X218628Y-211901D01*
X218190Y-210844D01*
X217494Y-209936D01*
X216586Y-209240D01*
X215528Y-208802D01*
X214394Y-208652D01*
X213259Y-208802D01*
X212202Y-209240D01*
X211294Y-209936D01*
X210650Y-210776D01*
X210397Y-210752D01*
X210150Y-210638D01*
Y-202048D01*
X210397Y-201934D01*
X210650Y-201911D01*
X211294Y-202750D01*
X212202Y-203447D01*
X213259Y-203885D01*
X213394Y-203903D01*
Y-199650D01*
Y-195398D01*
X213259Y-195416D01*
X212202Y-195854D01*
X211294Y-196550D01*
X210650Y-197390D01*
X210397Y-197366D01*
X210150Y-197252D01*
X210150Y-50434D01*
X210397Y-50320D01*
X210650Y-50297D01*
X211294Y-51136D01*
X212202Y-51833D01*
X213259Y-52271D01*
X214394Y-52420D01*
X215528Y-52271D01*
X216586Y-51833D01*
X217494Y-51136D01*
X218190Y-50228D01*
X218628Y-49171D01*
X218778Y-48036D01*
X218628Y-46901D01*
X218190Y-45844D01*
X217494Y-44936D01*
X216586Y-44240D01*
X215528Y-43802D01*
X214394Y-43652D01*
X213259Y-43802D01*
X212202Y-44240D01*
X211294Y-44936D01*
X210650Y-45776D01*
X210397Y-45752D01*
X210150Y-45638D01*
Y-37048D01*
X210397Y-36934D01*
X210650Y-36911D01*
X211294Y-37750D01*
X212202Y-38447D01*
X213259Y-38885D01*
X213394Y-38903D01*
Y-34650D01*
Y-30398D01*
X213259Y-30416D01*
X212202Y-30854D01*
X211294Y-31550D01*
X210650Y-32390D01*
X210397Y-32366D01*
X210150Y-32252D01*
X210150Y114566D01*
X210397Y114680D01*
X210650Y114703D01*
X211294Y113864D01*
X212202Y113167D01*
X213259Y112729D01*
X214394Y112580D01*
X215528Y112729D01*
X216586Y113167D01*
X217494Y113864D01*
X218190Y114772D01*
X218628Y115829D01*
X218778Y116964D01*
X218628Y118099D01*
X218190Y119156D01*
X217494Y120064D01*
X216586Y120761D01*
X215528Y121198D01*
X214394Y121348D01*
X213259Y121198D01*
X212202Y120761D01*
X211294Y120064D01*
X210650Y119224D01*
X210397Y119248D01*
X210150Y119362D01*
Y127952D01*
X210397Y128066D01*
X210650Y128089D01*
X211294Y127250D01*
X212202Y126553D01*
X213259Y126115D01*
X213394Y126098D01*
Y130350D01*
X214394D01*
Y131350D01*
X218773D01*
X219035Y131704D01*
X219595D01*
X219857Y131350D01*
X224236D01*
X228616D01*
X228878Y131704D01*
X229437D01*
X229699Y131350D01*
X234079D01*
X238458D01*
X238720Y131704D01*
X239280D01*
X239542Y131350D01*
D02*
G37*
G36*
X245650Y-395650D02*
Y-443281D01*
X241497Y-447434D01*
X236377D01*
Y-455150D01*
X232865D01*
Y-453666D01*
X230094D01*
Y-452666D01*
X229094D01*
Y-447434D01*
X228072D01*
X227831Y-446852D01*
X227418Y-446314D01*
X226880Y-445901D01*
X226582Y-445777D01*
Y-448150D01*
X224582D01*
Y-445777D01*
X224283Y-445901D01*
X223745Y-446314D01*
X223333Y-446852D01*
X223092Y-447434D01*
X218267D01*
Y-449640D01*
X203911D01*
Y-445473D01*
X195856D01*
X189860Y-439477D01*
Y-395650D01*
X245650Y-395650D01*
D02*
G37*
%LPC*%
G36*
X54669Y-47709D02*
X53587D01*
Y-48791D01*
X54669D01*
Y-47709D01*
D02*
G37*
G36*
X34984D02*
X33902D01*
Y-48791D01*
X34984D01*
Y-47709D01*
D02*
G37*
G36*
X50732D02*
X49650D01*
Y-48791D01*
X50732D01*
Y-47709D01*
D02*
G37*
G36*
X42858D02*
X41776D01*
Y-48791D01*
X42858D01*
Y-47709D01*
D02*
G37*
G36*
X36839Y-45854D02*
X35756D01*
Y-46937D01*
X36839D01*
Y-45854D01*
D02*
G37*
G36*
X38921D02*
X37839D01*
Y-46937D01*
X38921D01*
Y-45854D01*
D02*
G37*
G36*
X60461D02*
X59378D01*
Y-46937D01*
X60461D01*
Y-45854D01*
D02*
G37*
G36*
X34984D02*
X33902D01*
Y-46937D01*
X34984D01*
Y-45854D01*
D02*
G37*
G36*
X56524Y-47709D02*
X55441D01*
Y-48791D01*
X56524D01*
Y-47709D01*
D02*
G37*
G36*
X36839D02*
X35756D01*
Y-48791D01*
X36839D01*
Y-47709D01*
D02*
G37*
G36*
X60461D02*
X59378D01*
Y-48791D01*
X60461D01*
Y-47709D01*
D02*
G37*
G36*
X48650D02*
X47567D01*
Y-48791D01*
X48650D01*
Y-47709D01*
D02*
G37*
G36*
X38921D02*
X37839D01*
Y-48791D01*
X38921D01*
Y-47709D01*
D02*
G37*
G36*
X58606D02*
X57524D01*
Y-48791D01*
X58606D01*
Y-47709D01*
D02*
G37*
G36*
X44712D02*
X43630D01*
Y-48791D01*
X44712D01*
Y-47709D01*
D02*
G37*
G36*
X46795D02*
X45713D01*
Y-48791D01*
X46795D01*
Y-47709D01*
D02*
G37*
G36*
X40776Y-45854D02*
X39693D01*
Y-46937D01*
X40776D01*
Y-45854D01*
D02*
G37*
G36*
X57524Y-43772D02*
Y-44854D01*
X58606D01*
Y-43772D01*
X57524D01*
D02*
G37*
G36*
X60461Y-41917D02*
X59378D01*
Y-43000D01*
X60461D01*
Y-41917D01*
D02*
G37*
G36*
X58606Y-45854D02*
X57524D01*
Y-46937D01*
X58606D01*
Y-45854D01*
D02*
G37*
G36*
X60461Y-43772D02*
X59378D01*
Y-44854D01*
X60461D01*
Y-43772D01*
D02*
G37*
G36*
X58606Y-41917D02*
X57524D01*
Y-43000D01*
X58606D01*
Y-41917D01*
D02*
G37*
G36*
X46795Y-45854D02*
X45713D01*
Y-46937D01*
X46795D01*
Y-45854D01*
D02*
G37*
G36*
X48650D02*
X47567D01*
Y-46937D01*
X48650D01*
Y-45854D01*
D02*
G37*
G36*
X42858D02*
X41776D01*
Y-46937D01*
X42858D01*
Y-45854D01*
D02*
G37*
G36*
X44712D02*
X43630D01*
Y-46937D01*
X44712D01*
Y-45854D01*
D02*
G37*
G36*
X54669D02*
X53587D01*
Y-46937D01*
X54669D01*
Y-45854D01*
D02*
G37*
G36*
X56524D02*
X55441D01*
Y-46937D01*
X56524D01*
Y-45854D01*
D02*
G37*
G36*
X50732D02*
X49650D01*
Y-46937D01*
X50732D01*
Y-45854D01*
D02*
G37*
G36*
X52587D02*
X51504D01*
Y-46937D01*
X52587D01*
Y-45854D01*
D02*
G37*
G36*
Y-49791D02*
X51504D01*
Y-50874D01*
X52587D01*
Y-49791D01*
D02*
G37*
G36*
X46795D02*
X45713D01*
Y-50874D01*
X46795D01*
Y-49791D01*
D02*
G37*
G36*
X52587Y-47709D02*
X51504D01*
Y-48791D01*
X52587D01*
Y-47709D01*
D02*
G37*
G36*
X40776D02*
X39693D01*
Y-48791D01*
X40776D01*
Y-47709D01*
D02*
G37*
G36*
X48650Y-49791D02*
X47567D01*
Y-50874D01*
X48650D01*
Y-49791D01*
D02*
G37*
G36*
X50732D02*
X49650D01*
Y-50874D01*
X50732D01*
Y-49791D01*
D02*
G37*
G36*
X45713Y-51646D02*
Y-52728D01*
X46795D01*
Y-51646D01*
X45713D01*
D02*
G37*
G36*
X50732D02*
X49650D01*
Y-52728D01*
X50732D01*
Y-51646D01*
D02*
G37*
G36*
X52587D02*
X51504D01*
Y-52728D01*
X52587D01*
Y-51646D01*
D02*
G37*
G36*
X48650D02*
X47567D01*
Y-52728D01*
X48650D01*
Y-51646D01*
D02*
G37*
G36*
X44712Y-34043D02*
X43630D01*
Y-35126D01*
X44712D01*
Y-34043D01*
D02*
G37*
G36*
X42858D02*
X41776D01*
Y-35126D01*
X42858D01*
Y-34043D01*
D02*
G37*
G36*
X46795D02*
X45713D01*
Y-35126D01*
X46795D01*
Y-34043D01*
D02*
G37*
G36*
X48650D02*
X47567D01*
Y-35126D01*
X48650D01*
Y-34043D01*
D02*
G37*
G36*
X40776D02*
X39693D01*
Y-35126D01*
X40776D01*
Y-34043D01*
D02*
G37*
G36*
X34984D02*
X33902D01*
Y-35126D01*
X34984D01*
Y-34043D01*
D02*
G37*
G36*
X31047D02*
X29965D01*
Y-35126D01*
X31047D01*
Y-34043D01*
D02*
G37*
G36*
X32902D02*
X31819D01*
Y-35126D01*
X32902D01*
Y-34043D01*
D02*
G37*
G36*
X28965D02*
X27882D01*
Y-35126D01*
X28965D01*
Y-34043D01*
D02*
G37*
G36*
X38921D02*
X37839D01*
Y-35126D01*
X38921D01*
Y-34043D01*
D02*
G37*
G36*
X36839D02*
X35756D01*
Y-35126D01*
X36839D01*
Y-34043D01*
D02*
G37*
G36*
X34984Y-35898D02*
X33902D01*
Y-36980D01*
X34984D01*
Y-35898D01*
D02*
G37*
G36*
X36839Y-31961D02*
X35756D01*
Y-33043D01*
X36839D01*
Y-31961D01*
D02*
G37*
G36*
X44712D02*
X43630D01*
Y-33043D01*
X44712D01*
Y-31961D01*
D02*
G37*
G36*
X48650D02*
X47567D01*
Y-33043D01*
X48650D01*
Y-31961D01*
D02*
G37*
G36*
X38921D02*
X37839D01*
Y-33043D01*
X38921D01*
Y-31961D01*
D02*
G37*
G36*
X46795D02*
X45713D01*
Y-33043D01*
X46795D01*
Y-31961D01*
D02*
G37*
G36*
X28965D02*
X27882D01*
Y-33043D01*
X28965D01*
Y-31961D01*
D02*
G37*
G36*
X32902D02*
X31819D01*
Y-33043D01*
X32902D01*
Y-31961D01*
D02*
G37*
G36*
X40776D02*
X39693D01*
Y-33043D01*
X40776D01*
Y-31961D01*
D02*
G37*
G36*
Y-37980D02*
X39693D01*
Y-39063D01*
X40776D01*
Y-37980D01*
D02*
G37*
G36*
X42858D02*
X41776D01*
Y-39063D01*
X42858D01*
Y-37980D01*
D02*
G37*
G36*
X36839D02*
X35756D01*
Y-39063D01*
X36839D01*
Y-37980D01*
D02*
G37*
G36*
X38921D02*
X37839D01*
Y-39063D01*
X38921D01*
Y-37980D01*
D02*
G37*
G36*
X48650D02*
X47567D01*
Y-39063D01*
X48650D01*
Y-37980D01*
D02*
G37*
G36*
X44712D02*
X43630D01*
Y-39063D01*
X44712D01*
Y-37980D01*
D02*
G37*
G36*
X46795D02*
X45713D01*
Y-39063D01*
X46795D01*
Y-37980D01*
D02*
G37*
G36*
X44712Y-39835D02*
X43630D01*
Y-40917D01*
X44712D01*
Y-39835D01*
D02*
G37*
G36*
X46795D02*
X45713D01*
Y-40917D01*
X46795D01*
Y-39835D01*
D02*
G37*
G36*
X48650D02*
X47567D01*
Y-40917D01*
X48650D01*
Y-39835D01*
D02*
G37*
G36*
X36839D02*
X35756D01*
Y-40917D01*
X36839D01*
Y-39835D01*
D02*
G37*
G36*
X33902D02*
Y-40917D01*
X34984D01*
Y-39835D01*
X33902D01*
D02*
G37*
G36*
X34984Y-37980D02*
X33902D01*
Y-39063D01*
X34984D01*
Y-37980D01*
D02*
G37*
G36*
X38921Y-39835D02*
X37839D01*
Y-40917D01*
X38921D01*
Y-39835D01*
D02*
G37*
G36*
X42858D02*
X41776D01*
Y-40917D01*
X42858D01*
Y-39835D01*
D02*
G37*
G36*
X36839Y-35898D02*
X35756D01*
Y-36980D01*
X36839D01*
Y-35898D01*
D02*
G37*
G36*
X44712D02*
X43630D01*
Y-36980D01*
X44712D01*
Y-35898D01*
D02*
G37*
G36*
X28965D02*
X27882D01*
Y-36980D01*
X28965D01*
Y-35898D01*
D02*
G37*
G36*
X48650D02*
X47567D01*
Y-36980D01*
X48650D01*
Y-35898D01*
D02*
G37*
G36*
X31047D02*
X29965D01*
Y-36980D01*
X31047D01*
Y-35898D01*
D02*
G37*
G36*
X42858D02*
X41776D01*
Y-36980D01*
X42858D01*
Y-35898D01*
D02*
G37*
G36*
X46795D02*
X45713D01*
Y-36980D01*
X46795D01*
Y-35898D01*
D02*
G37*
G36*
X38921D02*
X37839D01*
Y-36980D01*
X38921D01*
Y-35898D01*
D02*
G37*
G36*
X32902D02*
X31819D01*
Y-36980D01*
X32902D01*
Y-35898D01*
D02*
G37*
G36*
X40776D02*
X39693D01*
Y-36980D01*
X40776D01*
Y-35898D01*
D02*
G37*
G36*
X19331Y-34751D02*
X18536Y-35080D01*
X17792Y-35651D01*
X17222Y-36394D01*
X16893Y-37189D01*
X19331D01*
Y-34751D01*
D02*
G37*
G36*
X21331D02*
Y-37189D01*
X23769D01*
X23439Y-36394D01*
X22869Y-35651D01*
X22126Y-35080D01*
X21331Y-34751D01*
D02*
G37*
G36*
X38921Y-26169D02*
X37839D01*
Y-27252D01*
X38921D01*
Y-26169D01*
D02*
G37*
G36*
X40776D02*
X39693D01*
Y-27252D01*
X40776D01*
Y-26169D01*
D02*
G37*
G36*
X34984D02*
X33902D01*
Y-27252D01*
X34984D01*
Y-26169D01*
D02*
G37*
G36*
X36839D02*
X35756D01*
Y-27252D01*
X36839D01*
Y-26169D01*
D02*
G37*
G36*
X46795D02*
X45713D01*
Y-27252D01*
X46795D01*
Y-26169D01*
D02*
G37*
G36*
X48650D02*
X47567D01*
Y-27252D01*
X48650D01*
Y-26169D01*
D02*
G37*
G36*
X42858D02*
X41776D01*
Y-27252D01*
X42858D01*
Y-26169D01*
D02*
G37*
G36*
X44712D02*
X43630D01*
Y-27252D01*
X44712D01*
Y-26169D01*
D02*
G37*
G36*
X34984Y-28024D02*
X33902D01*
Y-29106D01*
X34984D01*
Y-28024D01*
D02*
G37*
G36*
X19331Y-24908D02*
X18536Y-25238D01*
X17792Y-25808D01*
X17222Y-26552D01*
X16893Y-27347D01*
X19331D01*
Y-24908D01*
D02*
G37*
G36*
X31047Y-28024D02*
X29965D01*
Y-29106D01*
X31047D01*
Y-28024D01*
D02*
G37*
G36*
X42858D02*
X41776D01*
Y-29106D01*
X42858D01*
Y-28024D01*
D02*
G37*
G36*
X31047Y-26169D02*
X29965D01*
Y-27252D01*
X31047D01*
Y-26169D01*
D02*
G37*
G36*
X32902D02*
X31819D01*
Y-27252D01*
X32902D01*
Y-26169D01*
D02*
G37*
G36*
X21331Y-24908D02*
Y-27347D01*
X23769D01*
X23439Y-26552D01*
X22869Y-25808D01*
X22126Y-25238D01*
X21331Y-24908D01*
D02*
G37*
G36*
X28965Y-26169D02*
X27882D01*
Y-27252D01*
X28965D01*
Y-26169D01*
D02*
G37*
G36*
X-13441Y-21650D02*
X-18083D01*
X-18018Y-22145D01*
X-17441Y-23537D01*
X-16524Y-24733D01*
X-15328Y-25651D01*
X-13935Y-26227D01*
X-13441Y-26292D01*
Y-21650D01*
D02*
G37*
G36*
X36839Y-24087D02*
X35756D01*
Y-25169D01*
X36839D01*
Y-24087D01*
D02*
G37*
G36*
X44712D02*
X43630D01*
Y-25169D01*
X44712D01*
Y-24087D01*
D02*
G37*
G36*
X48650D02*
X47567D01*
Y-25169D01*
X48650D01*
Y-24087D01*
D02*
G37*
G36*
X56524D02*
X55441D01*
Y-25169D01*
X56524D01*
Y-24087D01*
D02*
G37*
G36*
X38921D02*
X37839D01*
Y-25169D01*
X38921D01*
Y-24087D01*
D02*
G37*
G36*
X58606D02*
X57524D01*
Y-25169D01*
X58606D01*
Y-24087D01*
D02*
G37*
G36*
X64398D02*
X63315D01*
Y-25169D01*
X64398D01*
Y-24087D01*
D02*
G37*
G36*
X46795D02*
X45713D01*
Y-25169D01*
X46795D01*
Y-24087D01*
D02*
G37*
G36*
X32902D02*
X31819D01*
Y-25169D01*
X32902D01*
Y-24087D01*
D02*
G37*
G36*
X-6799Y-21650D02*
X-11441D01*
Y-26292D01*
X-10947Y-26227D01*
X-9554Y-25651D01*
X-8358Y-24733D01*
X-7441Y-23537D01*
X-6864Y-22145D01*
X-6799Y-21650D01*
D02*
G37*
G36*
X60461Y-24087D02*
X59378D01*
Y-25169D01*
X60461D01*
Y-24087D01*
D02*
G37*
G36*
X28965D02*
X27882D01*
Y-25169D01*
X28965D01*
Y-24087D01*
D02*
G37*
G36*
X52587D02*
X51504D01*
Y-25169D01*
X52587D01*
Y-24087D01*
D02*
G37*
G36*
X40776D02*
X39693D01*
Y-25169D01*
X40776D01*
Y-24087D01*
D02*
G37*
G36*
X34984Y-30106D02*
X33902D01*
Y-31189D01*
X34984D01*
Y-30106D01*
D02*
G37*
G36*
X36839D02*
X35756D01*
Y-31189D01*
X36839D01*
Y-30106D01*
D02*
G37*
G36*
X31047D02*
X29965D01*
Y-31189D01*
X31047D01*
Y-30106D01*
D02*
G37*
G36*
X32902D02*
X31819D01*
Y-31189D01*
X32902D01*
Y-30106D01*
D02*
G37*
G36*
X42858D02*
X41776D01*
Y-31189D01*
X42858D01*
Y-30106D01*
D02*
G37*
G36*
X44712D02*
X43630D01*
Y-31189D01*
X44712D01*
Y-30106D01*
D02*
G37*
G36*
X38921D02*
X37839D01*
Y-31189D01*
X38921D01*
Y-30106D01*
D02*
G37*
G36*
X40776D02*
X39693D01*
Y-31189D01*
X40776D01*
Y-30106D01*
D02*
G37*
G36*
X31047Y-31961D02*
X29965D01*
Y-33043D01*
X31047D01*
Y-31961D01*
D02*
G37*
G36*
X42858D02*
X41776D01*
Y-33043D01*
X42858D01*
Y-31961D01*
D02*
G37*
G36*
X23769Y-29346D02*
X21331D01*
Y-31784D01*
X22126Y-31455D01*
X22869Y-30885D01*
X23439Y-30141D01*
X23769Y-29346D01*
D02*
G37*
G36*
X28965Y-30106D02*
X27882D01*
Y-31189D01*
X28965D01*
Y-30106D01*
D02*
G37*
G36*
X34984Y-31961D02*
X33902D01*
Y-33043D01*
X34984D01*
Y-31961D01*
D02*
G37*
G36*
X19331Y-29346D02*
X16893D01*
X17222Y-30141D01*
X17792Y-30885D01*
X18536Y-31455D01*
X19331Y-31784D01*
Y-29346D01*
D02*
G37*
G36*
X46795Y-30106D02*
X45713D01*
Y-31189D01*
X46795D01*
Y-30106D01*
D02*
G37*
G36*
X28965Y-28024D02*
X27882D01*
Y-29106D01*
X28965D01*
Y-28024D01*
D02*
G37*
G36*
X48650D02*
X47567D01*
Y-29106D01*
X48650D01*
Y-28024D01*
D02*
G37*
G36*
X32902D02*
X31819D01*
Y-29106D01*
X32902D01*
Y-28024D01*
D02*
G37*
G36*
X40776D02*
X39693D01*
Y-29106D01*
X40776D01*
Y-28024D01*
D02*
G37*
G36*
X46795D02*
X45713D01*
Y-29106D01*
X46795D01*
Y-28024D01*
D02*
G37*
G36*
X38921D02*
X37839D01*
Y-29106D01*
X38921D01*
Y-28024D01*
D02*
G37*
G36*
X36839D02*
X35756D01*
Y-29106D01*
X36839D01*
Y-28024D01*
D02*
G37*
G36*
X44712D02*
X43630D01*
Y-29106D01*
X44712D01*
Y-28024D01*
D02*
G37*
G36*
X48650Y-30106D02*
X47567D01*
Y-31189D01*
X48650D01*
Y-30106D01*
D02*
G37*
G36*
X23769Y-39189D02*
X21331D01*
Y-41627D01*
X22126Y-41298D01*
X22869Y-40727D01*
X23439Y-39984D01*
X23769Y-39189D01*
D02*
G37*
G36*
X40776Y-39835D02*
X39693D01*
Y-40917D01*
X40776D01*
Y-39835D01*
D02*
G37*
G36*
X19331Y-39189D02*
X16893D01*
X17222Y-39984D01*
X17792Y-40727D01*
X18536Y-41298D01*
X19331Y-41627D01*
Y-39189D01*
D02*
G37*
G36*
X31047Y-24087D02*
X29965D01*
Y-25169D01*
X31047D01*
Y-24087D01*
D02*
G37*
G36*
X17179Y49824D02*
X12652D01*
Y40670D01*
X17179D01*
Y49824D01*
D02*
G37*
G36*
X23707D02*
X19179D01*
Y40670D01*
X23707D01*
Y49824D01*
D02*
G37*
G36*
X17179Y60977D02*
X12652D01*
Y51824D01*
X17179D01*
Y60977D01*
D02*
G37*
G36*
X23707D02*
X19179D01*
Y51824D01*
X23707D01*
Y60977D01*
D02*
G37*
G36*
X26102Y35249D02*
X25308Y34920D01*
X24564Y34349D01*
X23993Y33606D01*
X23664Y32811D01*
X26102D01*
Y35249D01*
D02*
G37*
G36*
X28102D02*
Y32811D01*
X30540D01*
X30211Y33606D01*
X29641Y34349D01*
X28897Y34920D01*
X28102Y35249D01*
D02*
G37*
G36*
X15866D02*
X15071Y34920D01*
X14328Y34349D01*
X13757Y33606D01*
X13428Y32811D01*
X15866D01*
Y35249D01*
D02*
G37*
G36*
X17866D02*
Y32811D01*
X20304D01*
X19975Y33606D01*
X19405Y34349D01*
X18661Y34920D01*
X17866Y35249D01*
D02*
G37*
G36*
X36339D02*
X35544Y34920D01*
X34800Y34349D01*
X34230Y33606D01*
X33900Y32811D01*
X36339D01*
Y35249D01*
D02*
G37*
G36*
X38339D02*
Y32811D01*
X40777D01*
X40447Y33606D01*
X39877Y34349D01*
X39134Y34920D01*
X38339Y35249D01*
D02*
G37*
G36*
X-14842D02*
X-15637Y34920D01*
X-16381Y34349D01*
X-16951Y33606D01*
X-17281Y32811D01*
X-14842D01*
Y35249D01*
D02*
G37*
G36*
X-12843D02*
Y32811D01*
X-10404D01*
X-10734Y33606D01*
X-11304Y34349D01*
X-12048Y34920D01*
X-12843Y35249D01*
D02*
G37*
G36*
X-14842Y30811D02*
X-17281D01*
X-16951Y30016D01*
X-16381Y29273D01*
X-15637Y28702D01*
X-14842Y28373D01*
Y30811D01*
D02*
G37*
G36*
X-10404D02*
X-12843D01*
Y28373D01*
X-12048Y28702D01*
X-11304Y29273D01*
X-10734Y30016D01*
X-10404Y30811D01*
D02*
G37*
G36*
X5630Y35249D02*
X4835Y34920D01*
X4092Y34349D01*
X3521Y33606D01*
X3192Y32811D01*
X5630D01*
Y35249D01*
D02*
G37*
G36*
X7630D02*
Y32811D01*
X10068D01*
X9739Y33606D01*
X9168Y34349D01*
X8425Y34920D01*
X7630Y35249D01*
D02*
G37*
G36*
X-4606D02*
X-5401Y34920D01*
X-6145Y34349D01*
X-6715Y33606D01*
X-7044Y32811D01*
X-4606D01*
Y35249D01*
D02*
G37*
G36*
X-2606D02*
Y32811D01*
X-168D01*
X-497Y33606D01*
X-1068Y34349D01*
X-1811Y34920D01*
X-2606Y35249D01*
D02*
G37*
G36*
X54669Y-20150D02*
X53587D01*
Y-21232D01*
X54669D01*
Y-20150D01*
D02*
G37*
G36*
X34984D02*
X33902D01*
Y-21232D01*
X34984D01*
Y-20150D01*
D02*
G37*
G36*
X42858D02*
X41776D01*
Y-21232D01*
X42858D01*
Y-20150D01*
D02*
G37*
G36*
X62543D02*
X61461D01*
Y-21232D01*
X62543D01*
Y-20150D01*
D02*
G37*
G36*
X-13441Y-15008D02*
X-13935Y-15073D01*
X-15328Y-15650D01*
X-16524Y-16567D01*
X-17441Y-17763D01*
X-18018Y-19156D01*
X-18083Y-19650D01*
X-13441D01*
Y-15008D01*
D02*
G37*
G36*
X-11441D02*
Y-19650D01*
X-6799D01*
X-6864Y-19156D01*
X-7441Y-17763D01*
X-8358Y-16567D01*
X-9554Y-15650D01*
X-10947Y-15073D01*
X-11441Y-15008D01*
D02*
G37*
G36*
X64398Y-20150D02*
X63315D01*
Y-21232D01*
X64398D01*
Y-20150D01*
D02*
G37*
G36*
X46795D02*
X45713D01*
Y-21232D01*
X46795D01*
Y-20150D01*
D02*
G37*
G36*
X36839D02*
X35756D01*
Y-21232D01*
X36839D01*
Y-20150D01*
D02*
G37*
G36*
X44712D02*
X43630D01*
Y-21232D01*
X44712D01*
Y-20150D01*
D02*
G37*
G36*
X31047D02*
X29965D01*
Y-21232D01*
X31047D01*
Y-20150D01*
D02*
G37*
G36*
X50732D02*
X49650D01*
Y-21232D01*
X50732D01*
Y-20150D01*
D02*
G37*
G36*
X38921D02*
X37839D01*
Y-21232D01*
X38921D01*
Y-20150D01*
D02*
G37*
G36*
X58606D02*
X57524D01*
Y-21232D01*
X58606D01*
Y-20150D01*
D02*
G37*
G36*
X28965Y-18295D02*
X27882D01*
Y-19378D01*
X28965D01*
Y-18295D01*
D02*
G37*
G36*
X50732D02*
X49650D01*
Y-19378D01*
X50732D01*
Y-18295D01*
D02*
G37*
G36*
X52587D02*
X51504D01*
Y-19378D01*
X52587D01*
Y-18295D01*
D02*
G37*
G36*
X46795D02*
X45713D01*
Y-19378D01*
X46795D01*
Y-18295D01*
D02*
G37*
G36*
X48650D02*
X47567D01*
Y-19378D01*
X48650D01*
Y-18295D01*
D02*
G37*
G36*
X58606D02*
X57524D01*
Y-19378D01*
X58606D01*
Y-18295D01*
D02*
G37*
G36*
X60461D02*
X59378D01*
Y-19378D01*
X60461D01*
Y-18295D01*
D02*
G37*
G36*
X54669D02*
X53587D01*
Y-19378D01*
X54669D01*
Y-18295D01*
D02*
G37*
G36*
X56524D02*
X55441D01*
Y-19378D01*
X56524D01*
Y-18295D01*
D02*
G37*
G36*
X34984D02*
X33902D01*
Y-19378D01*
X34984D01*
Y-18295D01*
D02*
G37*
G36*
X36839D02*
X35756D01*
Y-19378D01*
X36839D01*
Y-18295D01*
D02*
G37*
G36*
X31047D02*
X29965D01*
Y-19378D01*
X31047D01*
Y-18295D01*
D02*
G37*
G36*
X32902D02*
X31819D01*
Y-19378D01*
X32902D01*
Y-18295D01*
D02*
G37*
G36*
X42858D02*
X41776D01*
Y-19378D01*
X42858D01*
Y-18295D01*
D02*
G37*
G36*
X44712D02*
X43630D01*
Y-19378D01*
X44712D01*
Y-18295D01*
D02*
G37*
G36*
X38921D02*
X37839D01*
Y-19378D01*
X38921D01*
Y-18295D01*
D02*
G37*
G36*
X40776D02*
X39693D01*
Y-19378D01*
X40776D01*
Y-18295D01*
D02*
G37*
G36*
X38921Y-22232D02*
X37839D01*
Y-23315D01*
X38921D01*
Y-22232D01*
D02*
G37*
G36*
X40776D02*
X39693D01*
Y-23315D01*
X40776D01*
Y-22232D01*
D02*
G37*
G36*
X34984D02*
X33902D01*
Y-23315D01*
X34984D01*
Y-22232D01*
D02*
G37*
G36*
X36839D02*
X35756D01*
Y-23315D01*
X36839D01*
Y-22232D01*
D02*
G37*
G36*
X46795D02*
X45713D01*
Y-23315D01*
X46795D01*
Y-22232D01*
D02*
G37*
G36*
X48650D02*
X47567D01*
Y-23315D01*
X48650D01*
Y-22232D01*
D02*
G37*
G36*
X42858D02*
X41776D01*
Y-23315D01*
X42858D01*
Y-22232D01*
D02*
G37*
G36*
X44712D02*
X43630D01*
Y-23315D01*
X44712D01*
Y-22232D01*
D02*
G37*
G36*
X62543Y-24087D02*
X61461D01*
Y-25169D01*
X62543D01*
Y-24087D01*
D02*
G37*
G36*
X54669D02*
X53587D01*
Y-25169D01*
X54669D01*
Y-24087D01*
D02*
G37*
G36*
X50732D02*
X49650D01*
Y-25169D01*
X50732D01*
Y-24087D01*
D02*
G37*
G36*
X42858D02*
X41776D01*
Y-25169D01*
X42858D01*
Y-24087D01*
D02*
G37*
G36*
X31047Y-22232D02*
X29965D01*
Y-23315D01*
X31047D01*
Y-22232D01*
D02*
G37*
G36*
X32902D02*
X31819D01*
Y-23315D01*
X32902D01*
Y-22232D01*
D02*
G37*
G36*
X34984Y-24087D02*
X33902D01*
Y-25169D01*
X34984D01*
Y-24087D01*
D02*
G37*
G36*
X28965Y-22232D02*
X27882D01*
Y-23315D01*
X28965D01*
Y-22232D01*
D02*
G37*
G36*
X50732D02*
X49650D01*
Y-23315D01*
X50732D01*
Y-22232D01*
D02*
G37*
G36*
X52587Y-20150D02*
X51504D01*
Y-21232D01*
X52587D01*
Y-20150D01*
D02*
G37*
G36*
X40776D02*
X39693D01*
Y-21232D01*
X40776D01*
Y-20150D01*
D02*
G37*
G36*
X23769Y-19504D02*
X21331D01*
Y-21942D01*
X22126Y-21613D01*
X22869Y-21042D01*
X23439Y-20299D01*
X23769Y-19504D01*
D02*
G37*
G36*
X32902Y-20150D02*
X31819D01*
Y-21232D01*
X32902D01*
Y-20150D01*
D02*
G37*
G36*
X48650D02*
X47567D01*
Y-21232D01*
X48650D01*
Y-20150D01*
D02*
G37*
G36*
X56524D02*
X55441D01*
Y-21232D01*
X56524D01*
Y-20150D01*
D02*
G37*
G36*
X60461D02*
X59378D01*
Y-21232D01*
X60461D01*
Y-20150D01*
D02*
G37*
G36*
X28965D02*
X27882D01*
Y-21232D01*
X28965D01*
Y-20150D01*
D02*
G37*
G36*
X56524Y-22232D02*
X55441D01*
Y-23315D01*
X56524D01*
Y-22232D01*
D02*
G37*
G36*
X58606D02*
X57524D01*
Y-23315D01*
X58606D01*
Y-22232D01*
D02*
G37*
G36*
X52587D02*
X51504D01*
Y-23315D01*
X52587D01*
Y-22232D01*
D02*
G37*
G36*
X54669D02*
X53587D01*
Y-23315D01*
X54669D01*
Y-22232D01*
D02*
G37*
G36*
X64398D02*
X63315D01*
Y-23315D01*
X64398D01*
Y-22232D01*
D02*
G37*
G36*
X19331Y-19504D02*
X16893D01*
X17222Y-20299D01*
X17792Y-21042D01*
X18536Y-21613D01*
X19331Y-21942D01*
Y-19504D01*
D02*
G37*
G36*
X60461Y-22232D02*
X59378D01*
Y-23315D01*
X60461D01*
Y-22232D01*
D02*
G37*
G36*
X62543D02*
X61461D01*
Y-23315D01*
X62543D01*
Y-22232D01*
D02*
G37*
G36*
X44712Y-16213D02*
X43630D01*
Y-17295D01*
X44712D01*
Y-16213D01*
D02*
G37*
G36*
X64398D02*
X63315D01*
Y-17295D01*
X64398D01*
Y-16213D01*
D02*
G37*
G36*
X56524D02*
X55441D01*
Y-17295D01*
X56524D01*
Y-16213D01*
D02*
G37*
G36*
X36839D02*
X35756D01*
Y-17295D01*
X36839D01*
Y-16213D01*
D02*
G37*
G36*
X58606D02*
X57524D01*
Y-17295D01*
X58606D01*
Y-16213D01*
D02*
G37*
G36*
X31047D02*
X29965D01*
Y-17295D01*
X31047D01*
Y-16213D01*
D02*
G37*
G36*
X46795D02*
X45713D01*
Y-17295D01*
X46795D01*
Y-16213D01*
D02*
G37*
G36*
X38921D02*
X37839D01*
Y-17295D01*
X38921D01*
Y-16213D01*
D02*
G37*
G36*
X32902D02*
X31819D01*
Y-17295D01*
X32902D01*
Y-16213D01*
D02*
G37*
G36*
X52587D02*
X51504D01*
Y-17295D01*
X52587D01*
Y-16213D01*
D02*
G37*
G36*
X62543Y-18295D02*
X61461D01*
Y-19378D01*
X62543D01*
Y-18295D01*
D02*
G37*
G36*
X64398D02*
X63315D01*
Y-19378D01*
X64398D01*
Y-18295D01*
D02*
G37*
G36*
X28965Y-16213D02*
X27882D01*
Y-17295D01*
X28965D01*
Y-16213D01*
D02*
G37*
G36*
X48650D02*
X47567D01*
Y-17295D01*
X48650D01*
Y-16213D01*
D02*
G37*
G36*
X40776D02*
X39693D01*
Y-17295D01*
X40776D01*
Y-16213D01*
D02*
G37*
G36*
X60461D02*
X59378D01*
Y-17295D01*
X60461D01*
Y-16213D01*
D02*
G37*
G36*
X50732D02*
X49650D01*
Y-17295D01*
X50732D01*
Y-16213D01*
D02*
G37*
G36*
X54669D02*
X53587D01*
Y-17295D01*
X54669D01*
Y-16213D01*
D02*
G37*
G36*
X34984D02*
X33902D01*
Y-17295D01*
X34984D01*
Y-16213D01*
D02*
G37*
G36*
X42858D02*
X41776D01*
Y-17295D01*
X42858D01*
Y-16213D01*
D02*
G37*
G36*
X62543D02*
X61461D01*
Y-17295D01*
X62543D01*
Y-16213D01*
D02*
G37*
G36*
X56524Y-31961D02*
X55441D01*
Y-33043D01*
X56524D01*
Y-31961D01*
D02*
G37*
G36*
X66480D02*
X65398D01*
Y-33043D01*
X66480D01*
Y-31961D01*
D02*
G37*
G36*
X64398D02*
X63315D01*
Y-33043D01*
X64398D01*
Y-31961D01*
D02*
G37*
G36*
X60461D02*
X59378D01*
Y-33043D01*
X60461D01*
Y-31961D01*
D02*
G37*
G36*
X58606D02*
X57524D01*
Y-33043D01*
X58606D01*
Y-31961D01*
D02*
G37*
G36*
X62543D02*
X61461D01*
Y-33043D01*
X62543D01*
Y-31961D01*
D02*
G37*
G36*
X54669D02*
X53587D01*
Y-33043D01*
X54669D01*
Y-31961D01*
D02*
G37*
G36*
X56524Y-30106D02*
X55441D01*
Y-31189D01*
X56524D01*
Y-30106D01*
D02*
G37*
G36*
X58606D02*
X57524D01*
Y-31189D01*
X58606D01*
Y-30106D01*
D02*
G37*
G36*
X54669D02*
X53587D01*
Y-31189D01*
X54669D01*
Y-30106D01*
D02*
G37*
G36*
X64398D02*
X63315D01*
Y-31189D01*
X64398D01*
Y-30106D01*
D02*
G37*
G36*
X66480D02*
X65398D01*
Y-31189D01*
X66480D01*
Y-30106D01*
D02*
G37*
G36*
X60461D02*
X59378D01*
Y-31189D01*
X60461D01*
Y-30106D01*
D02*
G37*
G36*
X62543D02*
X61461D01*
Y-31189D01*
X62543D01*
Y-30106D01*
D02*
G37*
G36*
X58141Y56472D02*
X50857D01*
Y48598D01*
X58141D01*
Y56472D01*
D02*
G37*
G36*
X67424D02*
X60141D01*
Y48598D01*
X67424D01*
Y56472D01*
D02*
G37*
G36*
X58141Y46598D02*
X50857D01*
Y38724D01*
X58141D01*
Y46598D01*
D02*
G37*
G36*
X67424D02*
X60141D01*
Y38724D01*
X67424D01*
Y46598D01*
D02*
G37*
G36*
X61850Y63225D02*
X59412D01*
X59741Y62430D01*
X60312Y61686D01*
X61055Y61116D01*
X61850Y60787D01*
Y63225D01*
D02*
G37*
G36*
X66288D02*
X63850D01*
Y60787D01*
X64645Y61116D01*
X65389Y61686D01*
X65959Y62430D01*
X66288Y63225D01*
D02*
G37*
G36*
X51402D02*
X48963D01*
X49293Y62430D01*
X49863Y61686D01*
X50607Y61116D01*
X51402Y60787D01*
Y63225D01*
D02*
G37*
G36*
X55840D02*
X53401D01*
Y60787D01*
X54196Y61116D01*
X54940Y61686D01*
X55510Y62430D01*
X55840Y63225D01*
D02*
G37*
G36*
X82748D02*
X80310D01*
X80639Y62430D01*
X81210Y61686D01*
X81953Y61116D01*
X82748Y60787D01*
Y63225D01*
D02*
G37*
G36*
X87186D02*
X84748D01*
Y60787D01*
X85543Y61116D01*
X86286Y61686D01*
X86857Y62430D01*
X87186Y63225D01*
D02*
G37*
G36*
X72299D02*
X69861D01*
X70190Y62430D01*
X70761Y61686D01*
X71504Y61116D01*
X72299Y60787D01*
Y63225D01*
D02*
G37*
G36*
X76737D02*
X74299D01*
Y60787D01*
X75094Y61116D01*
X75837Y61686D01*
X76408Y62430D01*
X76737Y63225D01*
D02*
G37*
G36*
X79638Y7319D02*
X77200D01*
X77530Y6524D01*
X78100Y5781D01*
X78843Y5210D01*
X79638Y4881D01*
Y7319D01*
D02*
G37*
G36*
X84076D02*
X81638D01*
Y4881D01*
X82433Y5210D01*
X83177Y5781D01*
X83747Y6524D01*
X84076Y7319D01*
D02*
G37*
G36*
X79638Y11757D02*
X78843Y11428D01*
X78100Y10858D01*
X77530Y10114D01*
X77200Y9319D01*
X79638D01*
Y11757D01*
D02*
G37*
G36*
X81638D02*
Y9319D01*
X84076D01*
X83747Y10114D01*
X83177Y10858D01*
X82433Y11428D01*
X81638Y11757D01*
D02*
G37*
G36*
X8792Y-21650D02*
X4150D01*
Y-26292D01*
X4644Y-26227D01*
X6036Y-25651D01*
X7232Y-24733D01*
X8150Y-23537D01*
X8727Y-22145D01*
X8792Y-21650D01*
D02*
G37*
G36*
X2150D02*
X-2492D01*
X-2427Y-22145D01*
X-1851Y-23537D01*
X-933Y-24733D01*
X263Y-25651D01*
X1655Y-26227D01*
X2150Y-26292D01*
Y-21650D01*
D02*
G37*
G36*
X40776Y-2547D02*
X39693D01*
Y-3630D01*
X40776D01*
Y-2547D01*
D02*
G37*
G36*
X42858D02*
X41776D01*
Y-3630D01*
X42858D01*
Y-2547D01*
D02*
G37*
G36*
X28965D02*
X27882D01*
Y-3630D01*
X28965D01*
Y-2547D01*
D02*
G37*
G36*
X31047D02*
X29965D01*
Y-3630D01*
X31047D01*
Y-2547D01*
D02*
G37*
G36*
X34984Y-4402D02*
X33902D01*
Y-5484D01*
X34984D01*
Y-4402D01*
D02*
G37*
G36*
X36839Y-2547D02*
X35756D01*
Y-3630D01*
X36839D01*
Y-2547D01*
D02*
G37*
G36*
X38921D02*
X37839D01*
Y-3630D01*
X38921D01*
Y-2547D01*
D02*
G37*
G36*
X32902D02*
X31819D01*
Y-3630D01*
X32902D01*
Y-2547D01*
D02*
G37*
G36*
X34984D02*
X33902D01*
Y-3630D01*
X34984D01*
Y-2547D01*
D02*
G37*
G36*
X28965Y-465D02*
X27882D01*
Y-1547D01*
X28965D01*
Y-465D01*
D02*
G37*
G36*
X40776D02*
X39693D01*
Y-1547D01*
X40776D01*
Y-465D01*
D02*
G37*
G36*
X36839D02*
X35756D01*
Y-1547D01*
X36839D01*
Y-465D01*
D02*
G37*
G36*
X-1000Y-1000D02*
X-3438D01*
X-3109Y-1795D01*
X-2538Y-2538D01*
X-1795Y-3109D01*
X-1000Y-3438D01*
Y-1000D01*
D02*
G37*
G36*
X12887D02*
X10449D01*
Y-3438D01*
X11244Y-3109D01*
X11987Y-2538D01*
X12558Y-1795D01*
X12887Y-1000D01*
D02*
G37*
G36*
X32902Y-465D02*
X31819D01*
Y-1547D01*
X32902D01*
Y-465D01*
D02*
G37*
G36*
X3438Y-1000D02*
X1000D01*
Y-3438D01*
X1795Y-3109D01*
X2538Y-2538D01*
X3109Y-1795D01*
X3438Y-1000D01*
D02*
G37*
G36*
X8449D02*
X6011D01*
X6340Y-1795D01*
X6910Y-2538D01*
X7654Y-3109D01*
X8449Y-3438D01*
Y-1000D01*
D02*
G37*
G36*
X34984Y-6484D02*
X33902D01*
Y-7567D01*
X34984D01*
Y-6484D01*
D02*
G37*
G36*
X36839D02*
X35756D01*
Y-7567D01*
X36839D01*
Y-6484D01*
D02*
G37*
G36*
X31047D02*
X29965D01*
Y-7567D01*
X31047D01*
Y-6484D01*
D02*
G37*
G36*
X32902D02*
X31819D01*
Y-7567D01*
X32902D01*
Y-6484D01*
D02*
G37*
G36*
X42858D02*
X41776D01*
Y-7567D01*
X42858D01*
Y-6484D01*
D02*
G37*
G36*
X38921D02*
X37839D01*
Y-7567D01*
X38921D01*
Y-6484D01*
D02*
G37*
G36*
X40776D02*
X39693D01*
Y-7567D01*
X40776D01*
Y-6484D01*
D02*
G37*
G36*
X38921Y-4402D02*
X37839D01*
Y-5484D01*
X38921D01*
Y-4402D01*
D02*
G37*
G36*
X42858D02*
X41776D01*
Y-5484D01*
X42858D01*
Y-4402D01*
D02*
G37*
G36*
X31047D02*
X29965D01*
Y-5484D01*
X31047D01*
Y-4402D01*
D02*
G37*
G36*
X40776D02*
X39693D01*
Y-5484D01*
X40776D01*
Y-4402D01*
D02*
G37*
G36*
X32902D02*
X31819D01*
Y-5484D01*
X32902D01*
Y-4402D01*
D02*
G37*
G36*
X36839D02*
X35756D01*
Y-5484D01*
X36839D01*
Y-4402D01*
D02*
G37*
G36*
X28965D02*
X27882D01*
Y-5484D01*
X28965D01*
Y-4402D01*
D02*
G37*
G36*
X1000Y3438D02*
Y1000D01*
X3438D01*
X3109Y1795D01*
X2538Y2538D01*
X1795Y3109D01*
X1000Y3438D01*
D02*
G37*
G36*
X8449D02*
X7654Y3109D01*
X6910Y2538D01*
X6340Y1795D01*
X6011Y1000D01*
X8449D01*
Y3438D01*
D02*
G37*
G36*
X34984Y-465D02*
X33902D01*
Y-1547D01*
X34984D01*
Y-465D01*
D02*
G37*
G36*
X-1000Y3438D02*
X-1795Y3109D01*
X-2538Y2538D01*
X-3109Y1795D01*
X-3438Y1000D01*
X-1000D01*
Y3438D01*
D02*
G37*
G36*
X23707Y12422D02*
X19179D01*
Y3269D01*
X23707D01*
Y12422D01*
D02*
G37*
G36*
X10449Y3438D02*
Y1000D01*
X12887D01*
X12558Y1795D01*
X11987Y2538D01*
X11244Y3109D01*
X10449Y3438D01*
D02*
G37*
G36*
X17179Y12422D02*
X12652D01*
Y3269D01*
X17179D01*
Y12422D01*
D02*
G37*
G36*
X31047Y-465D02*
X29965D01*
Y-1547D01*
X31047D01*
Y-465D01*
D02*
G37*
G36*
X38921D02*
X37839D01*
Y-1547D01*
X38921D01*
Y-465D01*
D02*
G37*
G36*
X42858D02*
X41776D01*
Y-1547D01*
X42858D01*
Y-465D01*
D02*
G37*
G36*
X17179Y23576D02*
X12652D01*
Y14422D01*
X17179D01*
Y23576D01*
D02*
G37*
G36*
X23707D02*
X19179D01*
Y14422D01*
X23707D01*
Y23576D01*
D02*
G37*
G36*
X2150Y-15008D02*
X1655Y-15073D01*
X263Y-15650D01*
X-933Y-16567D01*
X-1851Y-17763D01*
X-2427Y-19156D01*
X-2492Y-19650D01*
X2150D01*
Y-15008D01*
D02*
G37*
G36*
X4150D02*
Y-19650D01*
X8792D01*
X8727Y-19156D01*
X8150Y-17763D01*
X7232Y-16567D01*
X6036Y-15650D01*
X4644Y-15073D01*
X4150Y-15008D01*
D02*
G37*
G36*
X32902Y-8339D02*
X31819D01*
Y-9421D01*
X32902D01*
Y-8339D01*
D02*
G37*
G36*
X28965D02*
X27882D01*
Y-9421D01*
X28965D01*
Y-8339D01*
D02*
G37*
G36*
X40776D02*
X39693D01*
Y-9421D01*
X40776D01*
Y-8339D01*
D02*
G37*
G36*
X34984D02*
X33902D01*
Y-9421D01*
X34984D01*
Y-8339D01*
D02*
G37*
G36*
X-1000Y-6011D02*
X-1795Y-6340D01*
X-2538Y-6910D01*
X-3109Y-7654D01*
X-3438Y-8449D01*
X-1000D01*
Y-6011D01*
D02*
G37*
G36*
X10449D02*
Y-8449D01*
X12887D01*
X12558Y-7654D01*
X11987Y-6910D01*
X11244Y-6340D01*
X10449Y-6011D01*
D02*
G37*
G36*
X28965Y-6484D02*
X27882D01*
Y-7567D01*
X28965D01*
Y-6484D01*
D02*
G37*
G36*
X1000Y-6011D02*
Y-8449D01*
X3438D01*
X3109Y-7654D01*
X2538Y-6910D01*
X1795Y-6340D01*
X1000Y-6011D01*
D02*
G37*
G36*
X8449D02*
X7654Y-6340D01*
X6910Y-6910D01*
X6340Y-7654D01*
X6011Y-8449D01*
X8449D01*
Y-6011D01*
D02*
G37*
G36*
X38921Y-8339D02*
X37839D01*
Y-9421D01*
X38921D01*
Y-8339D01*
D02*
G37*
G36*
X36839D02*
X35756D01*
Y-9421D01*
X36839D01*
Y-8339D01*
D02*
G37*
G36*
X42858D02*
X41776D01*
Y-9421D01*
X42858D01*
Y-8339D01*
D02*
G37*
G36*
X31047D02*
X29965D01*
Y-9421D01*
X31047D01*
Y-8339D01*
D02*
G37*
G36*
X32902Y-10421D02*
X31819D01*
Y-11504D01*
X32902D01*
Y-10421D01*
D02*
G37*
G36*
X34984D02*
X33902D01*
Y-11504D01*
X34984D01*
Y-10421D01*
D02*
G37*
G36*
X28965D02*
X27882D01*
Y-11504D01*
X28965D01*
Y-10421D01*
D02*
G37*
G36*
X31047D02*
X29965D01*
Y-11504D01*
X31047D01*
Y-10421D01*
D02*
G37*
G36*
X40776D02*
X39693D01*
Y-11504D01*
X40776D01*
Y-10421D01*
D02*
G37*
G36*
X42858D02*
X41776D01*
Y-11504D01*
X42858D01*
Y-10421D01*
D02*
G37*
G36*
X36839D02*
X35756D01*
Y-11504D01*
X36839D01*
Y-10421D01*
D02*
G37*
G36*
X38921D02*
X37839D01*
Y-11504D01*
X38921D01*
Y-10421D01*
D02*
G37*
G36*
X8449Y-10449D02*
X6011D01*
X6340Y-11244D01*
X6910Y-11987D01*
X7654Y-12558D01*
X8449Y-12887D01*
Y-10449D01*
D02*
G37*
G36*
X12887D02*
X10449D01*
Y-12887D01*
X11244Y-12558D01*
X11987Y-11987D01*
X12558Y-11244D01*
X12887Y-10449D01*
D02*
G37*
G36*
X-1000D02*
X-3438D01*
X-3109Y-11244D01*
X-2538Y-11987D01*
X-1795Y-12558D01*
X-1000Y-12887D01*
Y-10449D01*
D02*
G37*
G36*
X3438D02*
X1000D01*
Y-12887D01*
X1795Y-12558D01*
X2538Y-11987D01*
X3109Y-11244D01*
X3438Y-10449D01*
D02*
G37*
G36*
X48650Y-2547D02*
X47567D01*
Y-3630D01*
X48650D01*
Y-2547D01*
D02*
G37*
G36*
X50732D02*
X49650D01*
Y-3630D01*
X50732D01*
Y-2547D01*
D02*
G37*
G36*
X56524D02*
X55441D01*
Y-3630D01*
X56524D01*
Y-2547D01*
D02*
G37*
G36*
X58606D02*
X57524D01*
Y-3630D01*
X58606D01*
Y-2547D01*
D02*
G37*
G36*
X52587D02*
X51504D01*
Y-3630D01*
X52587D01*
Y-2547D01*
D02*
G37*
G36*
X54669D02*
X53587D01*
Y-3630D01*
X54669D01*
Y-2547D01*
D02*
G37*
G36*
Y-4402D02*
X53587D01*
Y-5484D01*
X54669D01*
Y-4402D01*
D02*
G37*
G36*
X60461Y-2547D02*
X59378D01*
Y-3630D01*
X60461D01*
Y-2547D01*
D02*
G37*
G36*
Y-465D02*
X59378D01*
Y-1547D01*
X60461D01*
Y-465D01*
D02*
G37*
G36*
X52587D02*
X51504D01*
Y-1547D01*
X52587D01*
Y-465D01*
D02*
G37*
G36*
X64398D02*
X63315D01*
Y-1547D01*
X64398D01*
Y-465D01*
D02*
G37*
G36*
X48650D02*
X47567D01*
Y-1547D01*
X48650D01*
Y-465D01*
D02*
G37*
G36*
X56524D02*
X55441D01*
Y-1547D01*
X56524D01*
Y-465D01*
D02*
G37*
G36*
X66480Y-2547D02*
X65398D01*
Y-3630D01*
X66480D01*
Y-2547D01*
D02*
G37*
G36*
X62543D02*
X61461D01*
Y-3630D01*
X62543D01*
Y-2547D01*
D02*
G37*
G36*
X64398D02*
X63315D01*
Y-3630D01*
X64398D01*
Y-2547D01*
D02*
G37*
G36*
X54669Y-6484D02*
X53587D01*
Y-7567D01*
X54669D01*
Y-6484D01*
D02*
G37*
G36*
X56524D02*
X55441D01*
Y-7567D01*
X56524D01*
Y-6484D01*
D02*
G37*
G36*
X50732D02*
X49650D01*
Y-7567D01*
X50732D01*
Y-6484D01*
D02*
G37*
G36*
X52587D02*
X51504D01*
Y-7567D01*
X52587D01*
Y-6484D01*
D02*
G37*
G36*
X62543D02*
X61461D01*
Y-7567D01*
X62543D01*
Y-6484D01*
D02*
G37*
G36*
X64398D02*
X63315D01*
Y-7567D01*
X64398D01*
Y-6484D01*
D02*
G37*
G36*
X58606D02*
X57524D01*
Y-7567D01*
X58606D01*
Y-6484D01*
D02*
G37*
G36*
X60461D02*
X59378D01*
Y-7567D01*
X60461D01*
Y-6484D01*
D02*
G37*
G36*
X48650D02*
X47567D01*
Y-7567D01*
X48650D01*
Y-6484D01*
D02*
G37*
G36*
X66480D02*
X65398D01*
Y-7567D01*
X66480D01*
Y-6484D01*
D02*
G37*
G36*
X58606Y-4402D02*
X57524D01*
Y-5484D01*
X58606D01*
Y-4402D01*
D02*
G37*
G36*
X64398D02*
X63315D01*
Y-5484D01*
X64398D01*
Y-4402D01*
D02*
G37*
G36*
X66480D02*
X65398D01*
Y-5484D01*
X66480D01*
Y-4402D01*
D02*
G37*
G36*
X62543D02*
X61461D01*
Y-5484D01*
X62543D01*
Y-4402D01*
D02*
G37*
G36*
X50732D02*
X49650D01*
Y-5484D01*
X50732D01*
Y-4402D01*
D02*
G37*
G36*
X60461D02*
X59378D01*
Y-5484D01*
X60461D01*
Y-4402D01*
D02*
G37*
G36*
X52587D02*
X51504D01*
Y-5484D01*
X52587D01*
Y-4402D01*
D02*
G37*
G36*
X56524D02*
X55441D01*
Y-5484D01*
X56524D01*
Y-4402D01*
D02*
G37*
G36*
X48650D02*
X47567D01*
Y-5484D01*
X48650D01*
Y-4402D01*
D02*
G37*
G36*
X58606Y-465D02*
X57524D01*
Y-1547D01*
X58606D01*
Y-465D01*
D02*
G37*
G36*
X66480D02*
X65398D01*
Y-1547D01*
X66480D01*
Y-465D01*
D02*
G37*
G36*
X62543D02*
X61461D01*
Y-1547D01*
X62543D01*
Y-465D01*
D02*
G37*
G36*
X54669D02*
X53587D01*
Y-1547D01*
X54669D01*
Y-465D01*
D02*
G37*
G36*
X50732D02*
X49650D01*
Y-1547D01*
X50732D01*
Y-465D01*
D02*
G37*
G36*
X58141Y15102D02*
X50857D01*
Y7228D01*
X58141D01*
Y15102D01*
D02*
G37*
G36*
X67424D02*
X60141D01*
Y7228D01*
X67424D01*
Y15102D01*
D02*
G37*
G36*
X58141Y24976D02*
X50857D01*
Y17102D01*
X58141D01*
Y24976D01*
D02*
G37*
G36*
X67424D02*
X60141D01*
Y17102D01*
X67424D01*
Y24976D01*
D02*
G37*
G36*
X52587Y-8339D02*
X51504D01*
Y-9421D01*
X52587D01*
Y-8339D01*
D02*
G37*
G36*
X64398Y-10421D02*
X63315D01*
Y-11504D01*
X64398D01*
Y-10421D01*
D02*
G37*
G36*
X66480D02*
X65398D01*
Y-11504D01*
X66480D01*
Y-10421D01*
D02*
G37*
G36*
X48650Y-8339D02*
X47567D01*
Y-9421D01*
X48650D01*
Y-8339D01*
D02*
G37*
G36*
X60461D02*
X59378D01*
Y-9421D01*
X60461D01*
Y-8339D01*
D02*
G37*
G36*
X52587Y-10421D02*
X51504D01*
Y-11504D01*
X52587D01*
Y-10421D01*
D02*
G37*
G36*
X54669D02*
X53587D01*
Y-11504D01*
X54669D01*
Y-10421D01*
D02*
G37*
G36*
X48650D02*
X47567D01*
Y-11504D01*
X48650D01*
Y-10421D01*
D02*
G37*
G36*
X50732D02*
X49650D01*
Y-11504D01*
X50732D01*
Y-10421D01*
D02*
G37*
G36*
X60461D02*
X59378D01*
Y-11504D01*
X60461D01*
Y-10421D01*
D02*
G37*
G36*
X62543D02*
X61461D01*
Y-11504D01*
X62543D01*
Y-10421D01*
D02*
G37*
G36*
X56524D02*
X55441D01*
Y-11504D01*
X56524D01*
Y-10421D01*
D02*
G37*
G36*
X58606D02*
X57524D01*
Y-11504D01*
X58606D01*
Y-10421D01*
D02*
G37*
G36*
X56524Y-8339D02*
X55441D01*
Y-9421D01*
X56524D01*
Y-8339D01*
D02*
G37*
G36*
X62543D02*
X61461D01*
Y-9421D01*
X62543D01*
Y-8339D01*
D02*
G37*
G36*
X54669D02*
X53587D01*
Y-9421D01*
X54669D01*
Y-8339D01*
D02*
G37*
G36*
X66480D02*
X65398D01*
Y-9421D01*
X66480D01*
Y-8339D01*
D02*
G37*
G36*
X64398D02*
X63315D01*
Y-9421D01*
X64398D01*
Y-8339D01*
D02*
G37*
G36*
X50732D02*
X49650D01*
Y-9421D01*
X50732D01*
Y-8339D01*
D02*
G37*
G36*
X58606D02*
X57524D01*
Y-9421D01*
X58606D01*
Y-8339D01*
D02*
G37*
G36*
X223236Y-30398D02*
X223102Y-30416D01*
X222044Y-30854D01*
X221136Y-31550D01*
X220440Y-32458D01*
X220002Y-33516D01*
X219984Y-33650D01*
X223236D01*
Y-30398D01*
D02*
G37*
G36*
X242921D02*
X242787Y-30416D01*
X241729Y-30854D01*
X240821Y-31550D01*
X240125Y-32458D01*
X239687Y-33516D01*
X239669Y-33650D01*
X242921D01*
Y-30398D01*
D02*
G37*
G36*
X235079D02*
Y-33650D01*
X238331D01*
X238313Y-33516D01*
X237875Y-32458D01*
X237179Y-31550D01*
X236271Y-30854D01*
X235213Y-30416D01*
X235079Y-30398D01*
D02*
G37*
G36*
X225236Y-30398D02*
Y-33650D01*
X228488D01*
X228471Y-33516D01*
X228033Y-32458D01*
X227336Y-31550D01*
X226428Y-30854D01*
X225371Y-30416D01*
X225236Y-30398D01*
D02*
G37*
G36*
X233079D02*
X232944Y-30416D01*
X231887Y-30854D01*
X230979Y-31550D01*
X230282Y-32458D01*
X229844Y-33516D01*
X229826Y-33650D01*
X233079D01*
Y-30398D01*
D02*
G37*
G36*
X215394Y-30398D02*
Y-33650D01*
X218646D01*
X218628Y-33516D01*
X218190Y-32458D01*
X217494Y-31550D01*
X216586Y-30854D01*
X215528Y-30416D01*
X215394Y-30398D01*
D02*
G37*
G36*
X223236Y-35650D02*
X219984D01*
X220002Y-35785D01*
X220440Y-36842D01*
X221136Y-37750D01*
X222044Y-38447D01*
X223102Y-38885D01*
X223236Y-38903D01*
Y-35650D01*
D02*
G37*
G36*
X242921D02*
X239669D01*
X239687Y-35785D01*
X240125Y-36842D01*
X240821Y-37750D01*
X241729Y-38447D01*
X242787Y-38885D01*
X242921Y-38903D01*
Y-35650D01*
D02*
G37*
G36*
X233079D02*
X229826D01*
X229844Y-35785D01*
X230282Y-36842D01*
X230979Y-37750D01*
X231887Y-38447D01*
X232944Y-38885D01*
X233079Y-38903D01*
Y-35650D01*
D02*
G37*
G36*
X228488D02*
X225236D01*
Y-38903D01*
X225371Y-38885D01*
X226428Y-38447D01*
X227336Y-37750D01*
X228033Y-36842D01*
X228471Y-35785D01*
X228488Y-35650D01*
D02*
G37*
G36*
X218646D02*
X215394D01*
Y-38903D01*
X215528Y-38885D01*
X216586Y-38447D01*
X217494Y-37750D01*
X218190Y-36842D01*
X218628Y-35785D01*
X218646Y-35650D01*
D02*
G37*
G36*
X238331D02*
X235079D01*
Y-38903D01*
X235213Y-38885D01*
X236271Y-38447D01*
X237179Y-37750D01*
X237875Y-36842D01*
X238313Y-35785D01*
X238331Y-35650D01*
D02*
G37*
G36*
X242921Y-200650D02*
X239669D01*
X239687Y-200785D01*
X240125Y-201842D01*
X240821Y-202750D01*
X241729Y-203447D01*
X242787Y-203885D01*
X242921Y-203903D01*
Y-200650D01*
D02*
G37*
G36*
X218646D02*
X215394D01*
Y-203903D01*
X215528Y-203885D01*
X216586Y-203447D01*
X217494Y-202750D01*
X218190Y-201842D01*
X218628Y-200785D01*
X218646Y-200650D01*
D02*
G37*
G36*
X234079Y-208652D02*
X232944Y-208802D01*
X231887Y-209240D01*
X230979Y-209936D01*
X230282Y-210844D01*
X229844Y-211901D01*
X229695Y-213036D01*
X229844Y-214171D01*
X230282Y-215228D01*
X230979Y-216136D01*
X231887Y-216833D01*
X232944Y-217271D01*
X234079Y-217420D01*
X235213Y-217271D01*
X236271Y-216833D01*
X237179Y-216136D01*
X237875Y-215228D01*
X238313Y-214171D01*
X238463Y-213036D01*
X238313Y-211901D01*
X237875Y-210844D01*
X237179Y-209936D01*
X236271Y-209240D01*
X235213Y-208802D01*
X234079Y-208652D01*
D02*
G37*
G36*
X223236Y-200650D02*
X219984D01*
X220002Y-200785D01*
X220440Y-201842D01*
X221136Y-202750D01*
X222044Y-203447D01*
X223102Y-203885D01*
X223236Y-203903D01*
Y-200650D01*
D02*
G37*
G36*
X228488D02*
X225236D01*
Y-203903D01*
X225371Y-203885D01*
X226428Y-203447D01*
X227336Y-202750D01*
X228033Y-201842D01*
X228471Y-200785D01*
X228488Y-200650D01*
D02*
G37*
G36*
X223236Y-195398D02*
X223102Y-195416D01*
X222044Y-195854D01*
X221136Y-196550D01*
X220440Y-197458D01*
X220002Y-198516D01*
X219984Y-198650D01*
X223236D01*
Y-195398D01*
D02*
G37*
G36*
X238331Y-200650D02*
X235079D01*
Y-203903D01*
X235213Y-203885D01*
X236271Y-203447D01*
X237179Y-202750D01*
X237875Y-201842D01*
X238313Y-200785D01*
X238331Y-200650D01*
D02*
G37*
G36*
X233079D02*
X229826D01*
X229844Y-200785D01*
X230282Y-201842D01*
X230979Y-202750D01*
X231887Y-203447D01*
X232944Y-203885D01*
X233079Y-203903D01*
Y-200650D01*
D02*
G37*
G36*
X242921Y-360398D02*
X242787Y-360416D01*
X241729Y-360854D01*
X240821Y-361550D01*
X240125Y-362458D01*
X239687Y-363516D01*
X239669Y-363650D01*
X242921D01*
Y-360398D01*
D02*
G37*
G36*
X233079Y-360398D02*
X232944Y-360416D01*
X231887Y-360854D01*
X230979Y-361550D01*
X230282Y-362458D01*
X229844Y-363516D01*
X229826Y-363650D01*
X233079D01*
Y-360398D01*
D02*
G37*
G36*
X223236Y-360398D02*
X223102Y-360416D01*
X222044Y-360854D01*
X221136Y-361550D01*
X220440Y-362458D01*
X220002Y-363516D01*
X219984Y-363650D01*
X223236D01*
Y-360398D01*
D02*
G37*
G36*
X225236Y-360398D02*
Y-363650D01*
X228488D01*
X228471Y-363516D01*
X228033Y-362458D01*
X227336Y-361550D01*
X226428Y-360854D01*
X225371Y-360416D01*
X225236Y-360398D01*
D02*
G37*
G36*
X224236Y-208652D02*
X223102Y-208802D01*
X222044Y-209240D01*
X221136Y-209936D01*
X220440Y-210844D01*
X220002Y-211901D01*
X219852Y-213036D01*
X220002Y-214171D01*
X220440Y-215228D01*
X221136Y-216136D01*
X222044Y-216833D01*
X223102Y-217271D01*
X224236Y-217420D01*
X225371Y-217271D01*
X226428Y-216833D01*
X227336Y-216136D01*
X228033Y-215228D01*
X228471Y-214171D01*
X228620Y-213036D01*
X228471Y-211901D01*
X228033Y-210844D01*
X227336Y-209936D01*
X226428Y-209240D01*
X225371Y-208802D01*
X224236Y-208652D01*
D02*
G37*
G36*
X215394Y-360398D02*
Y-363650D01*
X218646D01*
X218628Y-363516D01*
X218190Y-362458D01*
X217494Y-361550D01*
X216586Y-360854D01*
X215528Y-360416D01*
X215394Y-360398D01*
D02*
G37*
G36*
X235079D02*
Y-363650D01*
X238331D01*
X238313Y-363516D01*
X237875Y-362458D01*
X237179Y-361550D01*
X236271Y-360854D01*
X235213Y-360416D01*
X235079Y-360398D01*
D02*
G37*
G36*
X242921Y-195398D02*
X242787Y-195416D01*
X241729Y-195854D01*
X240821Y-196550D01*
X240125Y-197458D01*
X239687Y-198516D01*
X239669Y-198650D01*
X242921D01*
Y-195398D01*
D02*
G37*
G36*
X224236Y-43652D02*
X223102Y-43802D01*
X222044Y-44240D01*
X221136Y-44936D01*
X220440Y-45844D01*
X220002Y-46901D01*
X219852Y-48036D01*
X220002Y-49171D01*
X220440Y-50228D01*
X221136Y-51136D01*
X222044Y-51833D01*
X223102Y-52271D01*
X224236Y-52420D01*
X225371Y-52271D01*
X226428Y-51833D01*
X227336Y-51136D01*
X228033Y-50228D01*
X228471Y-49171D01*
X228620Y-48036D01*
X228471Y-46901D01*
X228033Y-45844D01*
X227336Y-44936D01*
X226428Y-44240D01*
X225371Y-43802D01*
X224236Y-43652D01*
D02*
G37*
G36*
X234079D02*
X232944Y-43802D01*
X231887Y-44240D01*
X230979Y-44936D01*
X230282Y-45844D01*
X229844Y-46901D01*
X229695Y-48036D01*
X229844Y-49171D01*
X230282Y-50228D01*
X230979Y-51136D01*
X231887Y-51833D01*
X232944Y-52271D01*
X234079Y-52420D01*
X235213Y-52271D01*
X236271Y-51833D01*
X237179Y-51136D01*
X237875Y-50228D01*
X238313Y-49171D01*
X238463Y-48036D01*
X238313Y-46901D01*
X237875Y-45844D01*
X237179Y-44936D01*
X236271Y-44240D01*
X235213Y-43802D01*
X234079Y-43652D01*
D02*
G37*
G36*
X235079Y-195398D02*
Y-198650D01*
X238331D01*
X238313Y-198516D01*
X237875Y-197458D01*
X237179Y-196550D01*
X236271Y-195854D01*
X235213Y-195416D01*
X235079Y-195398D01*
D02*
G37*
G36*
X225236Y-195398D02*
Y-198650D01*
X228488D01*
X228471Y-198516D01*
X228033Y-197458D01*
X227336Y-196550D01*
X226428Y-195854D01*
X225371Y-195416D01*
X225236Y-195398D01*
D02*
G37*
G36*
X233079D02*
X232944Y-195416D01*
X231887Y-195854D01*
X230979Y-196550D01*
X230282Y-197458D01*
X229844Y-198516D01*
X229826Y-198650D01*
X233079D01*
Y-195398D01*
D02*
G37*
G36*
X215394Y-195398D02*
Y-198650D01*
X218646D01*
X218628Y-198516D01*
X218190Y-197458D01*
X217494Y-196550D01*
X216586Y-195854D01*
X215528Y-195416D01*
X215394Y-195398D01*
D02*
G37*
G36*
X215638Y67814D02*
X214709Y67692D01*
X213843Y67334D01*
X213099Y66763D01*
X212529Y66020D01*
X212170Y65154D01*
X212048Y64225D01*
X212170Y63296D01*
X212529Y62430D01*
X213099Y61686D01*
X213843Y61116D01*
X214709Y60757D01*
X215638Y60635D01*
X216567Y60757D01*
X217433Y61116D01*
X218176Y61686D01*
X218747Y62430D01*
X219105Y63296D01*
X219228Y64225D01*
X219105Y65154D01*
X218747Y66020D01*
X218176Y66763D01*
X217433Y67334D01*
X216567Y67692D01*
X215638Y67814D01*
D02*
G37*
G36*
X229024D02*
X228095Y67692D01*
X227229Y67334D01*
X226485Y66763D01*
X225915Y66020D01*
X225556Y65154D01*
X225434Y64225D01*
X225556Y63296D01*
X225915Y62430D01*
X226485Y61686D01*
X227229Y61116D01*
X228095Y60757D01*
X229024Y60635D01*
X229953Y60757D01*
X230819Y61116D01*
X231562Y61686D01*
X232132Y62430D01*
X232491Y63296D01*
X232613Y64225D01*
X232491Y65154D01*
X232132Y66020D01*
X231562Y66763D01*
X230819Y67334D01*
X229953Y67692D01*
X229024Y67814D01*
D02*
G37*
G36*
X242409D02*
X241480Y67692D01*
X240615Y67334D01*
X239871Y66763D01*
X239301Y66020D01*
X238942Y65154D01*
X238820Y64225D01*
X238942Y63296D01*
X239301Y62430D01*
X239871Y61686D01*
X240615Y61116D01*
X241480Y60757D01*
X242409Y60635D01*
X243338Y60757D01*
X244204Y61116D01*
X244948Y61686D01*
X245518Y62430D01*
X245877Y63296D01*
X245999Y64225D01*
X245877Y65154D01*
X245518Y66020D01*
X244948Y66763D01*
X244204Y67334D01*
X243338Y67692D01*
X242409Y67814D01*
D02*
G37*
G36*
X223236Y129350D02*
X219984D01*
X220002Y129215D01*
X220440Y128158D01*
X221136Y127250D01*
X222044Y126553D01*
X223102Y126115D01*
X223236Y126097D01*
Y129350D01*
D02*
G37*
G36*
X242921D02*
X239669D01*
X239687Y129215D01*
X240125Y128158D01*
X240821Y127250D01*
X241729Y126553D01*
X242787Y126115D01*
X242921Y126097D01*
Y129350D01*
D02*
G37*
G36*
X224236Y121348D02*
X223102Y121198D01*
X222044Y120761D01*
X221136Y120064D01*
X220440Y119156D01*
X220002Y118099D01*
X219852Y116964D01*
X220002Y115829D01*
X220440Y114772D01*
X221136Y113864D01*
X222044Y113167D01*
X223102Y112729D01*
X224236Y112580D01*
X225371Y112729D01*
X226428Y113167D01*
X227336Y113864D01*
X228033Y114772D01*
X228471Y115829D01*
X228620Y116964D01*
X228471Y118099D01*
X228033Y119156D01*
X227336Y120064D01*
X226428Y120761D01*
X225371Y121198D01*
X224236Y121348D01*
D02*
G37*
G36*
X234079D02*
X232944Y121198D01*
X231887Y120761D01*
X230979Y120064D01*
X230282Y119156D01*
X229844Y118099D01*
X229695Y116964D01*
X229844Y115829D01*
X230282Y114772D01*
X230979Y113864D01*
X231887Y113167D01*
X232944Y112729D01*
X234079Y112580D01*
X235213Y112729D01*
X236271Y113167D01*
X237179Y113864D01*
X237875Y114772D01*
X238313Y115829D01*
X238463Y116964D01*
X238313Y118099D01*
X237875Y119156D01*
X237179Y120064D01*
X236271Y120761D01*
X235213Y121198D01*
X234079Y121348D01*
D02*
G37*
G36*
X233079Y129350D02*
X229826D01*
X229844Y129215D01*
X230282Y128158D01*
X230979Y127250D01*
X231887Y126553D01*
X232944Y126115D01*
X233079Y126098D01*
Y129350D01*
D02*
G37*
G36*
X228488D02*
X225236D01*
Y126098D01*
X225371Y126115D01*
X226428Y126553D01*
X227336Y127250D01*
X228033Y128158D01*
X228471Y129215D01*
X228488Y129350D01*
D02*
G37*
G36*
X218646D02*
X215394D01*
Y126097D01*
X215528Y126115D01*
X216586Y126553D01*
X217494Y127250D01*
X218190Y128158D01*
X218628Y129215D01*
X218646Y129350D01*
D02*
G37*
G36*
X238331D02*
X235079D01*
Y126097D01*
X235213Y126115D01*
X236271Y126553D01*
X237179Y127250D01*
X237875Y128158D01*
X238313Y129215D01*
X238331Y129350D01*
D02*
G37*
G36*
X229582Y-415777D02*
X229283Y-415901D01*
X228745Y-416314D01*
X228333Y-416852D01*
X228209Y-417150D01*
X229582D01*
Y-415777D01*
D02*
G37*
G36*
X231582D02*
Y-417150D01*
X232955D01*
X232831Y-416852D01*
X232418Y-416314D01*
X231880Y-415901D01*
X231582Y-415777D01*
D02*
G37*
G36*
X219582D02*
X219283Y-415901D01*
X218745Y-416314D01*
X218333Y-416852D01*
X218209Y-417150D01*
X219582D01*
Y-415777D01*
D02*
G37*
G36*
X221582D02*
Y-417150D01*
X222955D01*
X222831Y-416852D01*
X222418Y-416314D01*
X221880Y-415901D01*
X221582Y-415777D01*
D02*
G37*
G36*
X194582Y-409150D02*
X193209D01*
X193333Y-409449D01*
X193745Y-409986D01*
X194283Y-410399D01*
X194582Y-410523D01*
Y-409150D01*
D02*
G37*
G36*
X197954D02*
X196582D01*
Y-410523D01*
X196880Y-410399D01*
X197418Y-409986D01*
X197831Y-409449D01*
X197954Y-409150D01*
D02*
G37*
G36*
X239582Y-415777D02*
X239283Y-415901D01*
X238745Y-416314D01*
X238333Y-416852D01*
X238209Y-417150D01*
X239582D01*
Y-415777D01*
D02*
G37*
G36*
X241582D02*
Y-417150D01*
X242954D01*
X242831Y-416852D01*
X242418Y-416314D01*
X241880Y-415901D01*
X241582Y-415777D01*
D02*
G37*
G36*
X239582Y-419150D02*
X238209D01*
X238333Y-419449D01*
X238745Y-419986D01*
X239283Y-420399D01*
X239582Y-420523D01*
Y-419150D01*
D02*
G37*
G36*
X242954D02*
X241582D01*
Y-420523D01*
X241880Y-420399D01*
X242418Y-419986D01*
X242831Y-419449D01*
X242954Y-419150D01*
D02*
G37*
G36*
X229582D02*
X228209D01*
X228333Y-419449D01*
X228745Y-419986D01*
X229283Y-420399D01*
X229582Y-420523D01*
Y-419150D01*
D02*
G37*
G36*
X232955D02*
X231582D01*
Y-420523D01*
X231880Y-420399D01*
X232418Y-419986D01*
X232831Y-419449D01*
X232955Y-419150D01*
D02*
G37*
G36*
X209582Y-415777D02*
X209283Y-415901D01*
X208745Y-416314D01*
X208333Y-416852D01*
X208209Y-417150D01*
X209582D01*
Y-415777D01*
D02*
G37*
G36*
X211582D02*
Y-417150D01*
X212954D01*
X212831Y-416852D01*
X212418Y-416314D01*
X211880Y-415901D01*
X211582Y-415777D01*
D02*
G37*
G36*
X199582D02*
X199283Y-415901D01*
X198745Y-416314D01*
X198333Y-416852D01*
X198209Y-417150D01*
X199582D01*
Y-415777D01*
D02*
G37*
G36*
X201582D02*
Y-417150D01*
X202955D01*
X202831Y-416852D01*
X202418Y-416314D01*
X201880Y-415901D01*
X201582Y-415777D01*
D02*
G37*
G36*
X204582Y-409150D02*
X203209D01*
X203333Y-409449D01*
X203745Y-409986D01*
X204283Y-410399D01*
X204582Y-410523D01*
Y-409150D01*
D02*
G37*
G36*
X206582Y-405777D02*
Y-407150D01*
X207955D01*
X207831Y-406852D01*
X207418Y-406314D01*
X206880Y-405901D01*
X206582Y-405777D01*
D02*
G37*
G36*
X214582D02*
X214283Y-405901D01*
X213745Y-406314D01*
X213333Y-406852D01*
X213209Y-407150D01*
X214582D01*
Y-405777D01*
D02*
G37*
G36*
X196582D02*
Y-407150D01*
X197954D01*
X197831Y-406852D01*
X197418Y-406314D01*
X196880Y-405901D01*
X196582Y-405777D01*
D02*
G37*
G36*
X204582D02*
X204283Y-405901D01*
X203745Y-406314D01*
X203333Y-406852D01*
X203209Y-407150D01*
X204582D01*
Y-405777D01*
D02*
G37*
G36*
X226582D02*
Y-407150D01*
X227955D01*
X227831Y-406852D01*
X227418Y-406314D01*
X226880Y-405901D01*
X226582Y-405777D01*
D02*
G37*
G36*
X234582D02*
X234283Y-405901D01*
X233745Y-406314D01*
X233333Y-406852D01*
X233209Y-407150D01*
X234582D01*
Y-405777D01*
D02*
G37*
G36*
X216582D02*
Y-407150D01*
X217954D01*
X217831Y-406852D01*
X217418Y-406314D01*
X216880Y-405901D01*
X216582Y-405777D01*
D02*
G37*
G36*
X224582D02*
X224283Y-405901D01*
X223745Y-406314D01*
X223333Y-406852D01*
X223209Y-407150D01*
X224582D01*
Y-405777D01*
D02*
G37*
G36*
X217954Y-409150D02*
X216582D01*
Y-410523D01*
X216880Y-410399D01*
X217418Y-409986D01*
X217831Y-409449D01*
X217954Y-409150D01*
D02*
G37*
G36*
X224582D02*
X223209D01*
X223333Y-409449D01*
X223745Y-409986D01*
X224283Y-410399D01*
X224582Y-410523D01*
Y-409150D01*
D02*
G37*
G36*
X207955D02*
X206582D01*
Y-410523D01*
X206880Y-410399D01*
X207418Y-409986D01*
X207831Y-409449D01*
X207955Y-409150D01*
D02*
G37*
G36*
X214582D02*
X213209D01*
X213333Y-409449D01*
X213745Y-409986D01*
X214283Y-410399D01*
X214582Y-410523D01*
Y-409150D01*
D02*
G37*
G36*
X237954D02*
X236582D01*
Y-410523D01*
X236880Y-410399D01*
X237418Y-409986D01*
X237831Y-409449D01*
X237954Y-409150D01*
D02*
G37*
G36*
X194582Y-405777D02*
X194283Y-405901D01*
X193745Y-406314D01*
X193333Y-406852D01*
X193209Y-407150D01*
X194582D01*
Y-405777D01*
D02*
G37*
G36*
X227955Y-409150D02*
X226582D01*
Y-410523D01*
X226880Y-410399D01*
X227418Y-409986D01*
X227831Y-409449D01*
X227955Y-409150D01*
D02*
G37*
G36*
X234582D02*
X233209D01*
X233333Y-409449D01*
X233745Y-409986D01*
X234283Y-410399D01*
X234582Y-410523D01*
Y-409150D01*
D02*
G37*
G36*
X209582Y-435777D02*
X209283Y-435901D01*
X208745Y-436314D01*
X208333Y-436852D01*
X208209Y-437150D01*
X209582D01*
Y-435777D01*
D02*
G37*
G36*
X211582D02*
Y-437150D01*
X212954D01*
X212831Y-436852D01*
X212418Y-436314D01*
X211880Y-435901D01*
X211582Y-435777D01*
D02*
G37*
G36*
X242954Y-439150D02*
X241582D01*
Y-440523D01*
X241880Y-440399D01*
X242418Y-439987D01*
X242831Y-439449D01*
X242954Y-439150D01*
D02*
G37*
G36*
X198368Y-431036D02*
X194825D01*
Y-437827D01*
X198368D01*
Y-431036D01*
D02*
G37*
G36*
X229582Y-435777D02*
X229283Y-435901D01*
X228745Y-436314D01*
X228333Y-436852D01*
X228209Y-437150D01*
X229582D01*
Y-435777D01*
D02*
G37*
G36*
X231582D02*
Y-437150D01*
X232955D01*
X232831Y-436852D01*
X232418Y-436314D01*
X231880Y-435901D01*
X231582Y-435777D01*
D02*
G37*
G36*
X219582D02*
X219283Y-435901D01*
X218745Y-436314D01*
X218333Y-436852D01*
X218209Y-437150D01*
X219582D01*
Y-435777D01*
D02*
G37*
G36*
X221582D02*
Y-437150D01*
X222955D01*
X222831Y-436852D01*
X222418Y-436314D01*
X221880Y-435901D01*
X221582Y-435777D01*
D02*
G37*
G36*
X212954Y-439150D02*
X211582D01*
Y-440523D01*
X211880Y-440399D01*
X212418Y-439987D01*
X212831Y-439449D01*
X212954Y-439150D01*
D02*
G37*
G36*
X219582D02*
X218209D01*
X218333Y-439449D01*
X218745Y-439987D01*
X219283Y-440399D01*
X219582Y-440523D01*
Y-439150D01*
D02*
G37*
G36*
X232865Y-447434D02*
X231094D01*
Y-451666D01*
X232865D01*
Y-447434D01*
D02*
G37*
G36*
X209582Y-439150D02*
X208209D01*
X208333Y-439449D01*
X208745Y-439987D01*
X209283Y-440399D01*
X209582Y-440523D01*
Y-439150D01*
D02*
G37*
G36*
X232955D02*
X231582D01*
Y-440523D01*
X231880Y-440399D01*
X232418Y-439987D01*
X232831Y-439449D01*
X232955Y-439150D01*
D02*
G37*
G36*
X239582D02*
X238209D01*
X238333Y-439449D01*
X238745Y-439987D01*
X239283Y-440399D01*
X239582Y-440523D01*
Y-439150D01*
D02*
G37*
G36*
X222955D02*
X221582D01*
Y-440523D01*
X221880Y-440399D01*
X222418Y-439987D01*
X222831Y-439449D01*
X222955Y-439150D01*
D02*
G37*
G36*
X229582D02*
X228209D01*
X228333Y-439449D01*
X228745Y-439987D01*
X229283Y-440399D01*
X229582Y-440523D01*
Y-439150D01*
D02*
G37*
G36*
X239582Y-435777D02*
X239283Y-435901D01*
X238745Y-436314D01*
X238333Y-436852D01*
X238209Y-437150D01*
X239582D01*
Y-435777D01*
D02*
G37*
G36*
X199582Y-419150D02*
X198209D01*
X198333Y-419449D01*
X198745Y-419986D01*
X199283Y-420399D01*
X199582Y-420523D01*
Y-419150D01*
D02*
G37*
G36*
X202955D02*
X201582D01*
Y-420523D01*
X201880Y-420399D01*
X202418Y-419986D01*
X202831Y-419449D01*
X202955Y-419150D01*
D02*
G37*
G36*
X214582Y-425777D02*
X214283Y-425901D01*
X213745Y-426314D01*
X213333Y-426852D01*
X213209Y-427150D01*
X214582D01*
Y-425777D01*
D02*
G37*
G36*
X216582D02*
Y-427150D01*
X217954D01*
X217831Y-426852D01*
X217418Y-426314D01*
X216880Y-425901D01*
X216582Y-425777D01*
D02*
G37*
G36*
X219582Y-419150D02*
X218209D01*
X218333Y-419449D01*
X218745Y-419986D01*
X219283Y-420399D01*
X219582Y-420523D01*
Y-419150D01*
D02*
G37*
G36*
X222955D02*
X221582D01*
Y-420523D01*
X221880Y-420399D01*
X222418Y-419986D01*
X222831Y-419449D01*
X222955Y-419150D01*
D02*
G37*
G36*
X209582D02*
X208209D01*
X208333Y-419449D01*
X208745Y-419986D01*
X209283Y-420399D01*
X209582Y-420523D01*
Y-419150D01*
D02*
G37*
G36*
X212954D02*
X211582D01*
Y-420523D01*
X211880Y-420399D01*
X212418Y-419986D01*
X212831Y-419449D01*
X212954Y-419150D01*
D02*
G37*
G36*
X203911Y-422245D02*
X200368D01*
Y-430036D01*
Y-437827D01*
X203911D01*
Y-430681D01*
X204411Y-430452D01*
X204582Y-430523D01*
Y-428150D01*
Y-425777D01*
X204411Y-425848D01*
X203911Y-425620D01*
Y-422245D01*
D02*
G37*
G36*
X207955Y-429150D02*
X206582D01*
Y-430523D01*
X206880Y-430399D01*
X207418Y-429986D01*
X207831Y-429449D01*
X207955Y-429150D01*
D02*
G37*
G36*
X241582Y-435777D02*
Y-437150D01*
X242954D01*
X242831Y-436852D01*
X242418Y-436314D01*
X241880Y-435901D01*
X241582Y-435777D01*
D02*
G37*
G36*
X237393Y-424402D02*
X222794D01*
Y-434867D01*
X237393D01*
Y-424402D01*
D02*
G37*
G36*
X198368Y-422245D02*
X194825D01*
Y-429036D01*
X198368D01*
Y-422245D01*
D02*
G37*
G36*
X206582Y-425777D02*
Y-427150D01*
X207955D01*
X207831Y-426852D01*
X207418Y-426314D01*
X206880Y-425901D01*
X206582Y-425777D01*
D02*
G37*
G36*
X214582Y-429150D02*
X213209D01*
X213333Y-429449D01*
X213745Y-429986D01*
X214283Y-430399D01*
X214582Y-430523D01*
Y-429150D01*
D02*
G37*
G36*
X217954D02*
X216582D01*
Y-430523D01*
X216880Y-430399D01*
X217418Y-429986D01*
X217831Y-429449D01*
X217954Y-429150D01*
D02*
G37*
G36*
X236582Y-405777D02*
Y-407150D01*
X237954D01*
X237831Y-406852D01*
X237418Y-406314D01*
X236880Y-405901D01*
X236582Y-405777D01*
D02*
G37*
%LPD*%
D10*
X47594Y-163322D02*
D03*
X40705D02*
D03*
X47594Y-188322D02*
D03*
X40705D02*
D03*
X49123Y-332150D02*
D03*
X56013D02*
D03*
X49123Y-312150D02*
D03*
X56013D02*
D03*
X49123Y-272150D02*
D03*
X56013D02*
D03*
X49123Y-292150D02*
D03*
X56013D02*
D03*
D11*
X32149Y-332150D02*
D03*
X40417D02*
D03*
X32149Y-312150D02*
D03*
X40417D02*
D03*
X32149Y-292150D02*
D03*
X40417D02*
D03*
X32149Y-272150D02*
D03*
X40417D02*
D03*
D12*
X221038Y-452666D02*
D03*
X230094D02*
D03*
X239149D02*
D03*
D13*
X230094Y-429635D02*
D03*
D14*
X221924Y-469120D02*
D03*
X245743D02*
D03*
D15*
X199368Y-453264D02*
D03*
Y-430036D02*
D03*
D16*
X69471Y-116205D02*
D03*
Y-123095D02*
D03*
X60793Y-116205D02*
D03*
Y-123095D02*
D03*
X55403Y-178595D02*
D03*
Y-171705D02*
D03*
X55387Y-203595D02*
D03*
Y-196705D02*
D03*
X179788Y-109732D02*
D03*
Y-116621D02*
D03*
D17*
X47650Y-178890D02*
D03*
Y-171410D02*
D03*
X40681Y-175150D02*
D03*
X47634Y-203890D02*
D03*
Y-196410D02*
D03*
X40665Y-200150D02*
D03*
D18*
X50047Y-61906D02*
D03*
Y-69780D02*
D03*
D19*
X62646Y-65843D02*
D03*
D20*
X29465Y-53228D02*
D03*
X33402D02*
D03*
X37339D02*
D03*
X41276D02*
D03*
X45213D02*
D03*
X49150D02*
D03*
X53087D02*
D03*
X57024D02*
D03*
X60961D02*
D03*
X64898D02*
D03*
X29465Y-49291D02*
D03*
X33402D02*
D03*
X37339D02*
D03*
X41276D02*
D03*
X45213D02*
D03*
X49150D02*
D03*
X53087D02*
D03*
X57024D02*
D03*
X60961D02*
D03*
X64898D02*
D03*
X29465Y-45354D02*
D03*
X33402D02*
D03*
X37339D02*
D03*
X41276D02*
D03*
X45213D02*
D03*
X49150D02*
D03*
X53087D02*
D03*
X57024D02*
D03*
X60961D02*
D03*
X64898D02*
D03*
X29465Y-41417D02*
D03*
X33402D02*
D03*
X37339D02*
D03*
X41276D02*
D03*
X45213D02*
D03*
X49150D02*
D03*
X57024D02*
D03*
X60961D02*
D03*
X64898D02*
D03*
X29465Y-37480D02*
D03*
X33402D02*
D03*
X37339D02*
D03*
X41276D02*
D03*
X45213D02*
D03*
X49150D02*
D03*
X64898D02*
D03*
X29465Y-33543D02*
D03*
X33402D02*
D03*
X37339D02*
D03*
X41276D02*
D03*
X45213D02*
D03*
X49150D02*
D03*
X53087D02*
D03*
X57024D02*
D03*
X60961D02*
D03*
X64898D02*
D03*
X29465Y-29606D02*
D03*
X33402D02*
D03*
X37339D02*
D03*
X41276D02*
D03*
X45213D02*
D03*
X49150D02*
D03*
X53087D02*
D03*
X57024D02*
D03*
X60961D02*
D03*
X64898D02*
D03*
X29465Y-25669D02*
D03*
X33402D02*
D03*
X37339D02*
D03*
X41276D02*
D03*
X45213D02*
D03*
X49150D02*
D03*
X53087D02*
D03*
X57024D02*
D03*
X60961D02*
D03*
X64898D02*
D03*
X29465Y-21732D02*
D03*
X33402D02*
D03*
X37339D02*
D03*
X41276D02*
D03*
X45213D02*
D03*
X49150D02*
D03*
X53087D02*
D03*
X57024D02*
D03*
X60961D02*
D03*
X64898D02*
D03*
X29465Y-17795D02*
D03*
X33402D02*
D03*
X37339D02*
D03*
X41276D02*
D03*
X45213D02*
D03*
X49150D02*
D03*
X53087D02*
D03*
X57024D02*
D03*
X60961D02*
D03*
X64898D02*
D03*
X29465Y-9921D02*
D03*
X33402D02*
D03*
X37339D02*
D03*
X41276D02*
D03*
X49150D02*
D03*
X53087D02*
D03*
X57024D02*
D03*
X60961D02*
D03*
X64898D02*
D03*
X29465Y-5984D02*
D03*
X33402D02*
D03*
X37339D02*
D03*
X41276D02*
D03*
X49150D02*
D03*
X53087D02*
D03*
X57024D02*
D03*
X60961D02*
D03*
X64898D02*
D03*
X29465Y-2047D02*
D03*
X33402D02*
D03*
X37339D02*
D03*
X41276D02*
D03*
X49150D02*
D03*
X53087D02*
D03*
X57024D02*
D03*
X60961D02*
D03*
X64898D02*
D03*
D21*
X59141Y47598D02*
D03*
Y16102D02*
D03*
D22*
X18179Y50824D02*
D03*
Y13422D02*
D03*
D23*
X193781Y-121412D02*
D03*
Y-109995D02*
D03*
D24*
X191320Y-143279D02*
D03*
Y-132255D02*
D03*
Y-152548D02*
D03*
Y-163571D02*
D03*
D25*
X277165Y-101181D02*
D03*
Y-188583D02*
D03*
D26*
X159532Y-113472D02*
D03*
X170556D02*
D03*
X298150Y-80956D02*
D03*
X287126D02*
D03*
D27*
X98921Y-34374D02*
Y109011D01*
X119079Y-34374D02*
Y109011D01*
Y-199374D02*
Y-55989D01*
Y-49532D02*
Y-40832D01*
Y-214532D02*
Y-205832D01*
X149315Y-199288D02*
Y-55989D01*
Y-34374D02*
Y109011D01*
X129158Y-49115D02*
Y-40832D01*
Y-214532D02*
Y-205832D01*
X98921Y-49532D02*
Y-40832D01*
X69471Y-116205D02*
X94807D01*
X109000Y-48414D02*
Y-40832D01*
Y-214532D02*
Y-205832D01*
X139236Y-48414D02*
Y-40832D01*
Y-213414D02*
Y-205832D01*
X129158Y-34374D02*
Y109011D01*
Y-199374D02*
Y-55989D01*
X149315Y-53461D02*
Y-36902D01*
Y-218461D02*
Y-201816D01*
X109000Y-34374D02*
Y109011D01*
Y-199374D02*
Y-55989D01*
X139236Y-34374D02*
Y109011D01*
Y-199374D02*
Y-55989D01*
X174567Y-400787D02*
Y-397926D01*
X153374Y-376733D02*
X174567Y-397926D01*
X169291Y-405512D02*
X174567Y-410787D01*
X169291Y-405512D02*
Y-395178D01*
X138469Y-388392D02*
X149606Y-399530D01*
Y-405827D02*
Y-399530D01*
Y-405827D02*
X154567Y-410787D01*
X140256Y-386476D02*
X154567Y-400787D01*
X140256Y-386476D02*
Y-381040D01*
X130945Y-397165D02*
Y-385170D01*
X120866Y-397016D02*
Y-385170D01*
X120079Y-397803D02*
X120866Y-397016D01*
X120079Y-405276D02*
Y-397803D01*
X119079Y-396276D02*
Y-385911D01*
X114567Y-400787D02*
X119079Y-396276D01*
X114567Y-410787D02*
X120079Y-405276D01*
X110020Y-389037D02*
Y-381040D01*
X100114Y-398943D02*
X110020Y-389037D01*
X100114Y-405240D02*
Y-398943D01*
X94567Y-410787D02*
X100114Y-405240D01*
X108232Y-387122D02*
Y-380299D01*
X94567Y-400787D02*
X108232Y-387122D01*
X130945Y-397165D02*
X134567Y-400787D01*
X153374Y-376733D02*
Y-368433D01*
X149315Y-364374D02*
X153374Y-368433D01*
X149315Y-364374D02*
Y-360162D01*
Y-375201D02*
X169291Y-395178D01*
X140256Y-381040D02*
X143295Y-378000D01*
X138469Y-388392D02*
Y-380299D01*
X139236Y-379532D02*
Y-375201D01*
X138469Y-380299D02*
X139236Y-379532D01*
X143295Y-378000D02*
Y-372363D01*
X140295Y-369363D02*
X143295Y-372363D01*
X140295Y-369363D02*
Y-365433D01*
X139236Y-364374D02*
X140295Y-365433D01*
X139236Y-364374D02*
Y-360162D01*
X130177Y-384402D02*
X130945Y-385170D01*
X130177Y-384402D02*
Y-381040D01*
X130945Y-380272D01*
X129157Y-379532D02*
Y-375201D01*
Y-405378D02*
Y-385911D01*
X128390Y-380299D02*
X129157Y-379532D01*
X128390Y-385143D02*
Y-380299D01*
Y-385143D02*
X129157Y-385911D01*
Y-405378D02*
X134567Y-410787D01*
X130945Y-380272D02*
Y-379260D01*
X133217Y-376989D01*
Y-372363D01*
X130217Y-369363D02*
X133217Y-372363D01*
X130217Y-369363D02*
Y-365433D01*
X129157Y-364374D02*
X130217Y-365433D01*
X129157Y-364374D02*
Y-360162D01*
X120098Y-384402D02*
X120866Y-385170D01*
X120098Y-384402D02*
Y-381040D01*
X120866Y-380272D01*
Y-379260D01*
X119079Y-379532D02*
Y-375201D01*
X118311Y-380299D02*
X119079Y-379532D01*
X118311Y-385143D02*
Y-380299D01*
Y-385143D02*
X119079Y-385911D01*
X120866Y-379260D02*
X123138Y-376989D01*
Y-372363D01*
X120138Y-369363D02*
X123138Y-372363D01*
X120138Y-369363D02*
Y-365433D01*
X119079Y-364374D02*
X120138Y-365433D01*
X119079Y-364374D02*
Y-360162D01*
X110020Y-381040D02*
X113059Y-378000D01*
Y-372363D01*
X109000Y-379532D02*
Y-375201D01*
X108232Y-380299D02*
X109000Y-379532D01*
X110059Y-369363D02*
X113059Y-372363D01*
X110059Y-369363D02*
Y-365433D01*
X109000Y-364374D02*
X110059Y-365433D01*
X109000Y-364374D02*
Y-360162D01*
X98921Y-364374D02*
X99980Y-365433D01*
Y-369363D02*
Y-365433D01*
Y-369363D02*
X102980Y-372363D01*
Y-378000D02*
Y-372363D01*
X98921Y-375201D02*
Y-370832D01*
X98193Y-370103D02*
X98921Y-370832D01*
X98193Y-370103D02*
Y-366174D01*
X94862Y-362843D02*
X98193Y-366174D01*
X98921Y-364374D02*
Y-360162D01*
X74567Y-410787D02*
Y-410344D01*
X80114Y-404796D01*
Y-398943D01*
X82723Y-396335D01*
X88576D01*
X99941Y-384970D01*
Y-381040D01*
X102980Y-378000D01*
X74567Y-400787D02*
X80807Y-394547D01*
X87836D01*
X98154Y-384229D01*
X98921Y-379532D02*
Y-375201D01*
X98154Y-380299D02*
X98921Y-379532D01*
X98154Y-384229D02*
Y-380299D01*
X139236Y-375201D02*
Y-370832D01*
X135177Y-362843D02*
X138508Y-366174D01*
Y-370103D02*
X139236Y-370832D01*
X138508Y-370103D02*
Y-366174D01*
X129158Y-375201D02*
Y-370832D01*
X128429Y-370103D02*
X129158Y-370832D01*
X128429Y-370103D02*
Y-366174D01*
X125099Y-362843D02*
X128429Y-366174D01*
X119079Y-375201D02*
Y-370832D01*
X115020Y-362843D02*
X118350Y-366174D01*
Y-370103D02*
X119079Y-370832D01*
X118350Y-370103D02*
Y-366174D01*
X115020Y-362843D02*
Y-222521D01*
X108272Y-370103D02*
Y-366174D01*
X104941Y-362843D02*
X108272Y-366174D01*
X109000Y-375201D02*
Y-370832D01*
X108272Y-370103D02*
X109000Y-370832D01*
X94862Y-362843D02*
Y-222521D01*
X64848Y-112150D02*
X88650D01*
X94862Y-197843D02*
Y-116150D01*
X98575Y-56336D02*
X99768Y-55143D01*
X98575Y-194816D02*
Y-56336D01*
Y-194816D02*
X98921Y-195162D01*
X104941Y-197843D02*
Y-57521D01*
X94862Y-197843D02*
X98193Y-201174D01*
X99980Y-204363D02*
Y-200433D01*
X98921Y-199374D02*
X99980Y-200433D01*
X98921Y-199374D02*
Y-195162D01*
X108272Y-205103D02*
X109000Y-205832D01*
X108272Y-205103D02*
Y-201174D01*
X104941Y-197843D02*
X108272Y-201174D01*
X109000Y-199374D02*
X110059Y-200433D01*
Y-204363D02*
Y-200433D01*
Y-204363D02*
X113059Y-207363D01*
X118350Y-205103D02*
X119079Y-205832D01*
X118350Y-205103D02*
Y-201173D01*
X115020Y-197843D02*
X118350Y-201173D01*
X115020Y-197843D02*
Y-57521D01*
X119079Y-199374D02*
X120138Y-200433D01*
Y-204363D02*
Y-200433D01*
Y-204363D02*
X123150Y-207375D01*
X125099Y-197843D02*
Y-57521D01*
Y-197843D02*
X128429Y-201174D01*
Y-205103D02*
Y-201174D01*
Y-205103D02*
X129158Y-205832D01*
X130217Y-204363D02*
X133217Y-207363D01*
X130217Y-204363D02*
Y-200433D01*
X129158Y-199374D02*
X130217Y-200433D01*
X135177Y-197843D02*
Y-57521D01*
Y-197843D02*
X138508Y-201174D01*
Y-205103D02*
Y-201174D01*
Y-205103D02*
X139236Y-205832D01*
Y-199374D02*
X140295Y-200433D01*
Y-204363D02*
Y-200433D01*
Y-204363D02*
X143295Y-207363D01*
X145256Y-197757D02*
Y-57521D01*
Y-197757D02*
X149315Y-201816D01*
Y-199288D02*
X153374Y-203347D01*
X98921Y-210201D02*
Y-205832D01*
X99980Y-204363D02*
X102980Y-207363D01*
X98193Y-205103D02*
X98921Y-205832D01*
X98193Y-205103D02*
Y-201174D01*
X60793Y-116205D02*
X64848Y-112150D01*
X94862Y-116150D02*
Y-57521D01*
X94807Y-116205D02*
X94862Y-116150D01*
X214394Y-165249D02*
X216071Y-163572D01*
X149315Y-375201D02*
Y-366902D01*
X145256Y-362843D02*
X149315Y-366902D01*
X145256Y-362843D02*
Y-222521D01*
X149315Y-218461D01*
X153374Y-216930D02*
Y-203347D01*
X149315Y-220989D02*
X153374Y-216930D01*
X149315Y-360162D02*
Y-220989D01*
X135177Y-362843D02*
Y-222521D01*
X138295Y-219403D01*
Y-214355D01*
X139236Y-213414D01*
X140083Y-220143D02*
Y-215095D01*
X143295Y-211883D01*
X139236Y-360162D02*
Y-220989D01*
X140083Y-220143D01*
X143295Y-211883D02*
Y-207363D01*
X133217Y-213000D02*
Y-207363D01*
X123138Y-213000D02*
Y-207387D01*
X123150Y-207375D01*
X113059Y-213000D02*
Y-207363D01*
X102980Y-213000D02*
Y-207363D01*
X125099Y-362843D02*
Y-222521D01*
X128217Y-219403D01*
Y-215473D01*
X129158Y-214532D01*
X130004Y-216213D02*
X133217Y-213000D01*
X129158Y-360162D02*
Y-220989D01*
X130004Y-220143D02*
Y-216213D01*
X129158Y-220989D02*
X130004Y-220143D01*
X115020Y-222521D02*
X118138Y-219403D01*
Y-215473D01*
X119079Y-214532D01*
X119925Y-216213D02*
X123138Y-213000D01*
X119079Y-360162D02*
Y-220989D01*
X119925Y-220143D02*
Y-216213D01*
X119079Y-220989D02*
X119925Y-220143D01*
X104941Y-362843D02*
Y-358481D01*
X108232Y-355189D01*
Y-215300D01*
X109000Y-214532D01*
Y-360162D02*
X112059Y-357103D01*
Y-223819D01*
X110020Y-221780D02*
X112059Y-223819D01*
X110020Y-221780D02*
Y-216040D01*
X113059Y-213000D01*
X94862Y-222521D02*
X97980Y-219403D01*
Y-215473D01*
X98921Y-214532D01*
Y-210201D01*
X99768Y-216213D02*
X102980Y-213000D01*
X98921Y-360162D02*
Y-220989D01*
X99768Y-220143D02*
Y-216213D01*
X98921Y-220989D02*
X99768Y-220143D01*
X145256Y-57521D02*
X149315Y-53461D01*
X153374Y-51930D02*
Y-38433D01*
X149315Y-55989D02*
X153374Y-51930D01*
X149315Y-34374D02*
X153374Y-38433D01*
X135177Y-57521D02*
X138295Y-54403D01*
Y-49355D01*
X139236Y-48414D01*
X140083Y-55143D02*
Y-50095D01*
X143295Y-46883D01*
X139236Y-55989D02*
X140083Y-55143D01*
X143295Y-46883D02*
Y-42363D01*
X140295Y-39363D02*
X143295Y-42363D01*
X140295Y-39363D02*
Y-35433D01*
X139236Y-34374D02*
X140295Y-35433D01*
X135177Y-32843D02*
X138508Y-36174D01*
Y-40103D02*
X139236Y-40832D01*
X138508Y-40103D02*
Y-36174D01*
X129158Y-34374D02*
X130217Y-35433D01*
Y-39363D02*
Y-35433D01*
Y-39363D02*
X133217Y-42363D01*
Y-47583D02*
Y-42363D01*
X125099Y-32843D02*
X128429Y-36174D01*
Y-40103D02*
Y-36174D01*
Y-40103D02*
X129158Y-40832D01*
X119079Y-34374D02*
X120138Y-35433D01*
Y-39363D02*
Y-35433D01*
Y-39363D02*
X123138Y-42363D01*
Y-48000D02*
Y-42363D01*
X115020Y-32843D02*
X118350Y-36173D01*
Y-40103D02*
Y-36173D01*
Y-40103D02*
X119079Y-40832D01*
X113059Y-46883D02*
Y-42363D01*
X110059Y-39363D02*
X113059Y-42363D01*
X110059Y-39363D02*
Y-35433D01*
X109000Y-34374D02*
X110059Y-35433D01*
X108272Y-40103D02*
X109000Y-40832D01*
X108272Y-40103D02*
Y-36174D01*
X104941Y-32843D02*
X108272Y-36174D01*
X102980Y-48000D02*
Y-42363D01*
X99980Y-39363D02*
X102980Y-42363D01*
X99980Y-39363D02*
Y-35433D01*
X98921Y-34374D02*
X99980Y-35433D01*
X94862Y-32843D02*
X98193Y-36174D01*
Y-40103D02*
Y-36174D01*
Y-40103D02*
X98921Y-40832D01*
X125099Y-57521D02*
X128217Y-54403D01*
Y-50055D01*
X129158Y-49115D01*
X130004Y-50796D02*
X133217Y-47583D01*
X130004Y-55143D02*
Y-50796D01*
X129158Y-55989D02*
X130004Y-55143D01*
X115020Y-57521D02*
X118138Y-54403D01*
Y-50473D01*
X119079Y-49532D01*
X119925Y-51213D02*
X123138Y-48000D01*
X119925Y-55143D02*
Y-51213D01*
X119079Y-55989D02*
X119925Y-55143D01*
X104941Y-57521D02*
X108059Y-54403D01*
Y-49355D01*
X109000Y-48414D01*
X109846Y-55143D02*
Y-50095D01*
X113059Y-46883D01*
X109000Y-55989D02*
X109846Y-55143D01*
X94862Y-57521D02*
X97980Y-54403D01*
Y-50473D01*
X98921Y-49532D01*
X99768Y-51213D02*
X102980Y-48000D01*
X99768Y-55143D02*
Y-51213D01*
X94862Y-32843D02*
Y107479D01*
X97980Y110598D01*
Y114527D01*
X98921Y115468D01*
Y119799D01*
X99768Y113787D02*
X102980Y116999D01*
X99768Y109857D02*
Y113787D01*
X98921Y109011D02*
X99768Y109857D01*
X102980Y116999D02*
Y121480D01*
X98921Y125539D02*
X102980Y121480D01*
X98921Y125539D02*
Y134838D01*
X104941Y-32843D02*
Y107479D01*
X108059Y110598D01*
Y114527D01*
X109000Y115468D01*
Y119799D01*
X109846Y113787D02*
X113059Y116999D01*
X109846Y109857D02*
Y113787D01*
X109000Y109011D02*
X109846Y109857D01*
X113059Y116999D02*
Y121480D01*
X109000Y125539D02*
X113059Y121480D01*
X109000Y125539D02*
Y134838D01*
X115020Y-32843D02*
Y107479D01*
X118138Y110598D01*
Y114527D01*
X119079Y115468D01*
Y119799D01*
X119925Y113787D02*
X123138Y116999D01*
X119925Y109857D02*
Y113787D01*
X119079Y109011D02*
X119925Y109857D01*
X123138Y116999D02*
Y121480D01*
X119079Y125539D02*
X123138Y121480D01*
X119079Y125539D02*
Y134838D01*
X125099Y-32843D02*
Y107479D01*
X128217Y110598D01*
Y114527D01*
X129158Y115468D01*
Y119799D01*
X130004Y113787D02*
X133217Y117000D01*
X130004Y109857D02*
Y113787D01*
X129158Y109011D02*
X130004Y109857D01*
X133217Y117000D02*
Y121480D01*
X129158Y125539D02*
X133217Y121480D01*
X129158Y125539D02*
Y134838D01*
X135177Y-32843D02*
Y107479D01*
X138295Y110598D01*
Y114527D01*
X139236Y115468D01*
Y119799D01*
X140083Y113787D02*
X143295Y116999D01*
X140083Y109857D02*
Y113787D01*
X139236Y109011D02*
X140083Y109857D01*
X143295Y116999D02*
Y121480D01*
X139236Y125539D02*
X143295Y121480D01*
X139236Y125539D02*
Y134838D01*
X145256Y-32843D02*
X149315Y-36902D01*
X145256Y-32843D02*
Y107479D01*
X149315Y111539D01*
Y119799D01*
X153374Y113070D02*
Y121480D01*
X149315Y109011D02*
X153374Y113070D01*
X149315Y125539D02*
X153374Y121480D01*
X149315Y125539D02*
Y134838D01*
X64898Y-37480D02*
Y-33543D01*
X29465Y-53228D02*
X33402D01*
X29465Y-49291D02*
X33402D01*
Y-53228D02*
Y-49291D01*
X50047Y-69780D02*
X51920Y-71653D01*
X64898Y-33543D02*
X67480D01*
X51920Y-71653D02*
X65606D01*
X67480Y-69779D01*
Y-33543D01*
D28*
X279528Y-80956D02*
X287126D01*
X47929Y-203595D02*
X61705D01*
X42754Y-208770D02*
X47929Y-203595D01*
X174296Y-109732D02*
X193518D01*
X298031Y-71260D02*
X298150Y-71378D01*
Y-80956D02*
Y-71378D01*
X246457Y-81102D02*
X279528D01*
X205650Y-332150D02*
X211150D01*
X56013D02*
X61650D01*
X56013Y-312150D02*
X61650D01*
X56013Y-272150D02*
X61650D01*
X26150Y-332150D02*
X32150D01*
X26150Y-312150D02*
X32150D01*
X26150Y-292150D02*
X32150D01*
X26150Y-272150D02*
X32150D01*
X49123D02*
X49123Y-272150D01*
X40417Y-272150D02*
X49123D01*
Y-312150D02*
X49123Y-312150D01*
X40417Y-312150D02*
X49123D01*
X40417Y-332150D02*
X49123D01*
X40417Y-292150D02*
X49123D01*
X239149Y-452666D02*
X255684Y-436131D01*
X261114D01*
X239149Y-462525D02*
Y-452666D01*
Y-462525D02*
X245743Y-469120D01*
X47594Y-163322D02*
X71978D01*
X77150Y-188150D02*
Y-154650D01*
X61705Y-203595D02*
X77150Y-188150D01*
X55403Y-178595D02*
X76760D01*
X19150Y-122886D02*
X60584D01*
X60793Y-123095D01*
X77150Y-154650D02*
Y-130773D01*
X69471Y-123095D02*
X77150Y-130773D01*
X19150Y-208770D02*
X42754D01*
X47594Y-188322D02*
X53478D01*
X60793Y-123095D02*
X69471D01*
X55107Y-178891D02*
X55403Y-178595D01*
X47650Y-178891D02*
X55107D01*
X297150Y-114650D02*
X298150Y-113650D01*
X287126Y-80956D02*
X287150Y-80980D01*
X157150Y-134650D02*
X159544Y-132255D01*
X191320D01*
Y-123873D02*
X193781Y-121412D01*
X191320Y-132255D02*
Y-123873D01*
X184578Y-121412D02*
X193781D01*
X179788Y-116622D02*
X184578Y-121412D01*
X193518Y-109732D02*
X193781Y-109995D01*
X170556Y-113472D02*
X174296Y-109732D01*
X193781Y-109995D02*
Y-104019D01*
X49150Y-61009D02*
X50047Y-61906D01*
X49150Y-61009D02*
Y-53228D01*
X60961Y-64158D02*
X62646Y-65843D01*
X60961Y-64158D02*
Y-53228D01*
X29465Y-5984D02*
X33402D01*
X37339D01*
X41276D01*
D29*
X166071Y-163572D02*
X216071D01*
X221924Y-469120D02*
X230094Y-460950D01*
Y-452666D01*
X199368Y-453264D02*
X199967Y-452666D01*
X221038D01*
X186835Y-440731D02*
Y-378036D01*
Y-440731D02*
X199368Y-453264D01*
X154328Y-113472D02*
X159532D01*
X189949Y-144650D02*
X191320Y-143279D01*
X157150Y-144650D02*
X189949D01*
X191320Y-152548D02*
Y-143279D01*
X157150Y-154650D02*
X166071Y-163572D01*
D30*
X56013Y-292150D02*
X61650D01*
X84650Y-193371D02*
X93961Y-202682D01*
X84650Y-193371D02*
Y-193150D01*
X55442Y-196650D02*
X61150D01*
X55387Y-196705D02*
X55442Y-196650D01*
X55403Y-171705D02*
X61094D01*
X56549Y-217721D02*
X93921D01*
X54150Y-220121D02*
X56549Y-217721D01*
X54069Y-210201D02*
X98921D01*
X44150Y-220121D02*
X54069Y-210201D01*
X29552Y-213691D02*
X41011Y-225150D01*
X19150Y-213691D02*
X29552D01*
X49179Y-225150D02*
X54150Y-230121D01*
X41011Y-225150D02*
X49179D01*
X19150Y-218613D02*
X31663D01*
X43171Y-230121D01*
X44150D01*
X30700Y-185132D02*
X40681Y-175150D01*
X19150Y-185132D02*
X30700D01*
X40665Y-188362D02*
X40705Y-188322D01*
X38974Y-190053D02*
X40665Y-188362D01*
X19150Y-190053D02*
X38974D01*
X55107Y-171410D02*
X55403Y-171705D01*
X47650Y-171410D02*
X55107D01*
X40681Y-163346D02*
X40705Y-163322D01*
X40681Y-175150D02*
Y-163346D01*
X55092Y-196410D02*
X55387Y-196705D01*
X47634Y-196410D02*
X55092D01*
X40665Y-200150D02*
Y-188362D01*
X57024Y-5984D02*
X60961D01*
X49150Y-2047D02*
X53087D01*
X60961D02*
X64898D01*
X49150Y-9921D02*
X53087D01*
X60961D02*
X64898D01*
X49150Y-5984D02*
X53087D01*
Y-2047D02*
X57024D01*
X53087Y-9921D02*
X57024D01*
Y-2047D02*
X60961D01*
X57024Y-9921D02*
X60961D01*
X53087Y-5984D02*
X57024D01*
X60961D02*
X64898D01*
D31*
X64567Y-410787D02*
D03*
D32*
Y-400787D02*
D03*
X74567Y-410787D02*
D03*
Y-400787D02*
D03*
X84567Y-410787D02*
D03*
Y-400787D02*
D03*
X94567Y-410787D02*
D03*
Y-400787D02*
D03*
X104567Y-410787D02*
D03*
Y-400787D02*
D03*
X114567Y-410787D02*
D03*
Y-400787D02*
D03*
X124567Y-410787D02*
D03*
Y-400787D02*
D03*
X134567Y-410787D02*
D03*
Y-400787D02*
D03*
X144567Y-410787D02*
D03*
Y-400787D02*
D03*
X154567Y-410787D02*
D03*
Y-400787D02*
D03*
X164567Y-410787D02*
D03*
Y-400787D02*
D03*
X174567Y-410787D02*
D03*
Y-400787D02*
D03*
X54150Y-220121D02*
D03*
X44150Y-230121D02*
D03*
X54150D02*
D03*
X44150Y-240121D02*
D03*
X54150D02*
D03*
D33*
X261114Y-445973D02*
D03*
Y-436131D02*
D03*
D34*
X44150Y-220121D02*
D03*
D35*
X19150Y-208770D02*
D03*
Y-213691D02*
D03*
Y-218613D02*
D03*
Y-223534D02*
D03*
Y-180210D02*
D03*
Y-185132D02*
D03*
Y-190053D02*
D03*
Y-194974D02*
D03*
Y-151650D02*
D03*
Y-156571D02*
D03*
Y-161493D02*
D03*
Y-166414D02*
D03*
X19150Y-122886D02*
D03*
Y-127808D02*
D03*
Y-132729D02*
D03*
Y-137650D02*
D03*
X19150Y-94308D02*
D03*
Y-99229D02*
D03*
Y-104150D02*
D03*
Y-109071D02*
D03*
Y-65748D02*
D03*
Y-70669D02*
D03*
Y-75590D02*
D03*
Y-80511D02*
D03*
D36*
X149315Y-30162D02*
D03*
X98921D02*
D03*
X109000D02*
D03*
X119079D02*
D03*
X129157D02*
D03*
X139236D02*
D03*
X93961Y-37682D02*
D03*
X104039D02*
D03*
X114118D02*
D03*
X124197D02*
D03*
X134276D02*
D03*
X144354D02*
D03*
X98921Y-45201D02*
D03*
X109000D02*
D03*
X119079D02*
D03*
X129157D02*
D03*
X139236D02*
D03*
X149315D02*
D03*
X93921Y-52721D02*
D03*
X104000D02*
D03*
X114079D02*
D03*
X124158D02*
D03*
X134236D02*
D03*
X144315D02*
D03*
X149315Y-360162D02*
D03*
X98921D02*
D03*
X109000D02*
D03*
X119079D02*
D03*
X129157D02*
D03*
X139236D02*
D03*
X93961Y-367682D02*
D03*
X104039D02*
D03*
X114118D02*
D03*
X124197D02*
D03*
X134276D02*
D03*
X144354D02*
D03*
X98921Y-375201D02*
D03*
X109000D02*
D03*
X119079D02*
D03*
X129157D02*
D03*
X139236D02*
D03*
X149315D02*
D03*
X93921Y-382721D02*
D03*
X104000D02*
D03*
X114079D02*
D03*
X124158D02*
D03*
X134236D02*
D03*
X144315D02*
D03*
X149315Y-195162D02*
D03*
X98921D02*
D03*
X109000D02*
D03*
X119079D02*
D03*
X129157D02*
D03*
X139236D02*
D03*
X93961Y-202682D02*
D03*
X104039D02*
D03*
X114118D02*
D03*
X124197D02*
D03*
X134276D02*
D03*
X144354D02*
D03*
X98921Y-210201D02*
D03*
X109000D02*
D03*
X119079D02*
D03*
X129157D02*
D03*
X139236D02*
D03*
X149315D02*
D03*
X93921Y-217721D02*
D03*
X104000D02*
D03*
X114079D02*
D03*
X124158D02*
D03*
X134236D02*
D03*
X144315D02*
D03*
X149315Y134838D02*
D03*
X98921D02*
D03*
X109000D02*
D03*
X119079D02*
D03*
X129157D02*
D03*
X139236D02*
D03*
X93961Y127318D02*
D03*
X104039D02*
D03*
X114118D02*
D03*
X124197D02*
D03*
X134276D02*
D03*
X144354D02*
D03*
X98921Y119799D02*
D03*
X109000D02*
D03*
X119079D02*
D03*
X129157D02*
D03*
X139236D02*
D03*
X149315D02*
D03*
X93921Y112279D02*
D03*
X104000D02*
D03*
X114079D02*
D03*
X124158D02*
D03*
X134236D02*
D03*
X144315D02*
D03*
X205650Y-171263D02*
D03*
X71978Y-163322D02*
D03*
X77150Y-154650D02*
D03*
X53478Y-188322D02*
D03*
X154328Y-113472D02*
D03*
X193781Y-104019D02*
D03*
X68047Y31811D02*
D03*
X57811D02*
D03*
X47575D02*
D03*
X37339D02*
D03*
X27102D02*
D03*
X16866D02*
D03*
X6630D02*
D03*
X-3606D02*
D03*
X-13842D02*
D03*
X83748Y64225D02*
D03*
X73299D02*
D03*
X62850D02*
D03*
X80638Y8319D02*
D03*
X52402Y64225D02*
D03*
X20331Y-18504D02*
D03*
Y-28346D02*
D03*
Y-38189D02*
D03*
X0Y-9449D02*
D03*
Y0D02*
D03*
X9449D02*
D03*
Y-9449D02*
D03*
X215638Y64225D02*
D03*
X229024D02*
D03*
X242409D02*
D03*
X186614Y-9449D02*
D03*
Y0D02*
D03*
X177165D02*
D03*
Y-9449D02*
D03*
D37*
X196677Y-48036D02*
D03*
X186835D02*
D03*
X176992D02*
D03*
X167150D02*
D03*
X196677Y-34650D02*
D03*
X186835D02*
D03*
X176992D02*
D03*
X167150D02*
D03*
X214394D02*
D03*
X224236D02*
D03*
X234079D02*
D03*
X243921D02*
D03*
X214394Y-48036D02*
D03*
X224236D02*
D03*
X234079D02*
D03*
X243921D02*
D03*
X196677Y-378036D02*
D03*
X186835D02*
D03*
X176992D02*
D03*
X167150D02*
D03*
X196677Y-364650D02*
D03*
X186835D02*
D03*
X176992D02*
D03*
X167150D02*
D03*
X214394D02*
D03*
X224236D02*
D03*
X234079D02*
D03*
X243921D02*
D03*
X214394Y-378036D02*
D03*
X224236D02*
D03*
X234079D02*
D03*
X243921D02*
D03*
X196677Y-213036D02*
D03*
X186835D02*
D03*
X176992D02*
D03*
X167150D02*
D03*
X196677Y-199650D02*
D03*
X186835D02*
D03*
X176992D02*
D03*
X167150D02*
D03*
X214394D02*
D03*
X224236D02*
D03*
X234079D02*
D03*
X243921D02*
D03*
X214394Y-213036D02*
D03*
X224236D02*
D03*
X234079D02*
D03*
X243921D02*
D03*
X196677Y116964D02*
D03*
X186835D02*
D03*
X176992D02*
D03*
X167150D02*
D03*
X196677Y130350D02*
D03*
X186835D02*
D03*
X176992D02*
D03*
X167150D02*
D03*
X214394D02*
D03*
X224236D02*
D03*
X234079D02*
D03*
X243921D02*
D03*
X214394Y116964D02*
D03*
X224236D02*
D03*
X234079D02*
D03*
X243921D02*
D03*
X257150Y-174650D02*
D03*
X267150D02*
D03*
X277150D02*
D03*
X287150D02*
D03*
X297150D02*
D03*
X257150Y-114650D02*
D03*
X267150D02*
D03*
X277150D02*
D03*
X287150D02*
D03*
D38*
X157150Y-134650D02*
D03*
Y-144650D02*
D03*
Y-154650D02*
D03*
D39*
X297150Y-114650D02*
D03*
D40*
X275590Y-206299D02*
D03*
Y-41339D02*
D03*
X61811Y-144488D02*
D03*
X-36753Y-262761D02*
D03*
Y-26540D02*
D03*
X266397Y189995D02*
D03*
Y-479296D02*
D03*
D41*
X3150Y-20650D02*
D03*
X-12441D02*
D03*
D42*
X298031Y-71260D02*
D03*
X279528Y-81102D02*
D03*
D43*
X9055Y-34036D02*
D03*
D44*
X205650Y-332150D02*
D03*
X205649Y-312150D02*
D03*
X160150Y-272150D02*
D03*
X61650Y-332150D02*
D03*
X61650Y-312150D02*
D03*
X61650Y-292150D02*
D03*
X61650Y-272150D02*
D03*
X26150Y-332150D02*
D03*
Y-312150D02*
D03*
Y-292150D02*
D03*
Y-272150D02*
D03*
X240582Y-418150D02*
D03*
X235582Y-408150D02*
D03*
X240582Y-438150D02*
D03*
X225582Y-408150D02*
D03*
X230582Y-418150D02*
D03*
Y-438150D02*
D03*
X225582Y-448150D02*
D03*
X215582Y-408150D02*
D03*
X220582Y-418150D02*
D03*
X215582Y-428150D02*
D03*
X220582Y-438150D02*
D03*
X205582Y-408150D02*
D03*
X210582Y-418150D02*
D03*
X205582Y-428150D02*
D03*
X210582Y-438150D02*
D03*
X195582Y-408150D02*
D03*
X200582Y-418150D02*
D03*
X84150Y-116150D02*
D03*
X88650Y-112150D02*
D03*
X84650Y-193150D02*
D03*
X61150Y-196650D02*
D03*
X101650Y-186650D02*
D03*
X61094Y-171705D02*
D03*
M02*
