G04 Layer_Color=8388736*
%FSLAX25Y25*%
%MOIN*%
G70*
G01*
G75*
%ADD102C,0.00394*%
D102*
X-54568Y-31880D02*
X-50521Y-20610D01*
X-46091Y-9484D01*
X-41283Y1483D01*
X-36104Y12280D01*
X-30558Y22894D01*
X-24654Y33312D01*
X-18396Y43522D01*
X-11794Y53512D01*
X-4854Y63271D01*
X2416Y72786D01*
X10006Y82049D01*
X17909Y91046D01*
X26114Y99768D01*
X34613Y108204D01*
X43394Y116345D01*
X52449Y124181D01*
X61767Y131704D01*
X71336Y138903D01*
X81145Y145772D01*
X91184Y152301D01*
X101439Y158483D01*
X111900Y164311D01*
X122554Y169779D01*
X133388Y174879D01*
X144391Y179606D01*
X155548Y183954D01*
X166848Y187918D01*
X178277Y191495D01*
X189821Y194678D01*
X201467Y197465D01*
X213201Y199852D01*
X225010Y201837D01*
X236881Y203418D01*
X248798Y204592D01*
X260748Y205358D01*
X272718Y205715D01*
X284693Y205663D01*
X296659Y205202D01*
X308602Y204332D01*
Y-493633D02*
Y204332D01*
X296659Y-494502D02*
X308602Y-493633D01*
X284693Y-494964D02*
X296659Y-494502D01*
X272718Y-495015D02*
X284693Y-494964D01*
X260748Y-494658D02*
X272718Y-495015D01*
X248798Y-493892D02*
X260748Y-494658D01*
X236881Y-492718D02*
X248798Y-493892D01*
X225010Y-491138D02*
X236881Y-492718D01*
X213201Y-489153D02*
X225010Y-491138D01*
X201467Y-486765D02*
X213201Y-489153D01*
X189821Y-483978D02*
X201467Y-486765D01*
X178277Y-480795D02*
X189821Y-483978D01*
X166848Y-477219D02*
X178277Y-480795D01*
X155548Y-473254D02*
X166848Y-477219D01*
X144391Y-468906D02*
X155548Y-473254D01*
X133388Y-464179D02*
X144391Y-468906D01*
X122554Y-459079D02*
X133388Y-464179D01*
X111900Y-453612D02*
X122554Y-459079D01*
X101439Y-447784D02*
X111900Y-453612D01*
X91184Y-441601D02*
X101439Y-447784D01*
X81145Y-435072D02*
X91184Y-441601D01*
X71336Y-428204D02*
X81145Y-435072D01*
X61767Y-421004D02*
X71336Y-428204D01*
X52449Y-413482D02*
X61767Y-421004D01*
X43394Y-405646D02*
X52449Y-413482D01*
X34613Y-397505D02*
X43394Y-405646D01*
X26114Y-389068D02*
X34613Y-397505D01*
X17909Y-380346D02*
X26114Y-389068D01*
X10006Y-371349D02*
X17909Y-380346D01*
X2416Y-362087D02*
X10006Y-371349D01*
X-4854Y-352571D02*
X2416Y-362087D01*
X-11794Y-342812D02*
X-4854Y-352571D01*
X-18396Y-332822D02*
X-11794Y-342812D01*
X-24654Y-322612D02*
X-18396Y-332822D01*
X-30558Y-312194D02*
X-24654Y-322612D01*
X-36104Y-301581D02*
X-30558Y-312194D01*
X-41283Y-290784D02*
X-36104Y-301581D01*
X-46091Y-279816D02*
X-41283Y-290784D01*
X-50521Y-268691D02*
X-46091Y-279816D01*
X-54568Y-257421D02*
X-50521Y-268691D01*
X-54933Y-255803D02*
X-54568Y-257421D01*
X-54952Y-254146D02*
X-54933Y-255803D01*
X-54952Y-254146D02*
X-54623Y-252521D01*
X-53961Y-251001D01*
X-52996Y-249653D01*
X-51770Y-248537D01*
X-50337Y-247703D01*
X-48761Y-247187D01*
X-47113Y-247012D01*
X-18093D01*
X-15009Y-246810D01*
X-11979Y-246207D01*
X-9053Y-245214D01*
X-6282Y-243848D01*
X-3712Y-242131D01*
X-1389Y-240094D01*
X648Y-237771D01*
X2365Y-235202D01*
X3731Y-232430D01*
X4725Y-229504D01*
X5327Y-226474D01*
X5529Y-223390D01*
Y-65910D01*
X5327Y-62827D02*
X5529Y-65910D01*
X4725Y-59796D02*
X5327Y-62827D01*
X3731Y-56870D02*
X4725Y-59796D01*
X2365Y-54099D02*
X3731Y-56870D01*
X648Y-51530D02*
X2365Y-54099D01*
X-1389Y-49207D02*
X648Y-51530D01*
X-3712Y-47170D02*
X-1389Y-49207D01*
X-6282Y-45453D02*
X-3712Y-47170D01*
X-9053Y-44086D02*
X-6282Y-45453D01*
X-11979Y-43093D02*
X-9053Y-44086D01*
X-15009Y-42490D02*
X-11979Y-43093D01*
X-18093Y-42288D02*
X-15009Y-42490D01*
X-47113Y-42288D02*
X-18093D01*
X-48761Y-42114D02*
X-47113Y-42288D01*
X-50337Y-41598D02*
X-48761Y-42114D01*
X-51770Y-40763D02*
X-50337Y-41598D01*
X-52996Y-39647D02*
X-51770Y-40763D01*
X-53961Y-38300D02*
X-52996Y-39647D01*
X-54623Y-36780D02*
X-53961Y-38300D01*
X-54952Y-35155D02*
X-54623Y-36780D01*
X-54952Y-35155D02*
X-54933Y-33497D01*
X-54568Y-31880D01*
M02*
