G04 Layer_Color=8388736*
%FSLAX25Y25*%
%MOIN*%
G70*
G01*
G75*
%ADD69R,0.05328X0.06115*%
%ADD70R,0.05524X0.05524*%
%ADD71R,0.04343X0.09265*%
%ADD72R,0.13398X0.09265*%
%ADD73R,0.10839X0.10446*%
%ADD74R,0.07887X0.14383*%
%ADD75R,0.06115X0.05328*%
%ADD76R,0.04627X0.03958*%
%ADD77R,0.05524X0.05524*%
%ADD78R,0.06706X0.07099*%
%ADD79R,0.02965X0.02965*%
%ADD80R,0.15367X0.16548*%
%ADD81R,0.09855X0.19107*%
%ADD82R,0.16154X0.07099*%
%ADD83R,0.11430X0.05918*%
%ADD84R,0.40170X0.12611*%
%ADD85R,0.05918X0.11430*%
%ADD86R,0.06706X0.06706*%
%ADD87C,0.06706*%
%ADD88O,0.10642X0.07690*%
%ADD89R,0.06706X0.06706*%
%ADD90O,0.05328X0.04147*%
%ADD91C,0.05918*%
%ADD92C,0.07493*%
%ADD93O,0.07493X0.06706*%
%ADD94R,0.07493X0.07493*%
%ADD95C,0.13398*%
%ADD96C,0.10249*%
%ADD97C,0.05800*%
%ADD98C,0.06312*%
%ADD99C,0.03950*%
D69*
X47594Y-163322D02*
D03*
X40705D02*
D03*
X47594Y-188322D02*
D03*
X40705D02*
D03*
X49123Y-332150D02*
D03*
X56013D02*
D03*
X49123Y-312150D02*
D03*
X56013D02*
D03*
X49123Y-272150D02*
D03*
X56013D02*
D03*
X49123Y-292150D02*
D03*
X56013D02*
D03*
D70*
X32149Y-332150D02*
D03*
X40417D02*
D03*
X32149Y-312150D02*
D03*
X40417D02*
D03*
X32149Y-292150D02*
D03*
X40417D02*
D03*
X32149Y-272150D02*
D03*
X40417D02*
D03*
D71*
X221038Y-452666D02*
D03*
X230094D02*
D03*
X239149D02*
D03*
D72*
X230094Y-429635D02*
D03*
D73*
X221924Y-469120D02*
D03*
X245743D02*
D03*
D74*
X199368Y-453264D02*
D03*
Y-430036D02*
D03*
D75*
X69471Y-116205D02*
D03*
Y-123095D02*
D03*
X60793Y-116205D02*
D03*
Y-123095D02*
D03*
X55403Y-178595D02*
D03*
Y-171705D02*
D03*
X55387Y-203595D02*
D03*
Y-196705D02*
D03*
X179788Y-109732D02*
D03*
Y-116621D02*
D03*
D76*
X47650Y-178890D02*
D03*
Y-171410D02*
D03*
X40681Y-175150D02*
D03*
X47634Y-203890D02*
D03*
Y-196410D02*
D03*
X40665Y-200150D02*
D03*
D77*
X50047Y-61906D02*
D03*
Y-69780D02*
D03*
D78*
X62646Y-65843D02*
D03*
D79*
X29465Y-53228D02*
D03*
X33402D02*
D03*
X37339D02*
D03*
X41276D02*
D03*
X45213D02*
D03*
X49150D02*
D03*
X53087D02*
D03*
X57024D02*
D03*
X60961D02*
D03*
X64898D02*
D03*
X29465Y-49291D02*
D03*
X33402D02*
D03*
X37339D02*
D03*
X41276D02*
D03*
X45213D02*
D03*
X49150D02*
D03*
X53087D02*
D03*
X57024D02*
D03*
X60961D02*
D03*
X64898D02*
D03*
X29465Y-45354D02*
D03*
X33402D02*
D03*
X37339D02*
D03*
X41276D02*
D03*
X45213D02*
D03*
X49150D02*
D03*
X53087D02*
D03*
X57024D02*
D03*
X60961D02*
D03*
X64898D02*
D03*
X29465Y-41417D02*
D03*
X33402D02*
D03*
X37339D02*
D03*
X41276D02*
D03*
X45213D02*
D03*
X49150D02*
D03*
X57024D02*
D03*
X60961D02*
D03*
X64898D02*
D03*
X29465Y-37480D02*
D03*
X33402D02*
D03*
X37339D02*
D03*
X41276D02*
D03*
X45213D02*
D03*
X49150D02*
D03*
X64898D02*
D03*
X29465Y-33543D02*
D03*
X33402D02*
D03*
X37339D02*
D03*
X41276D02*
D03*
X45213D02*
D03*
X49150D02*
D03*
X53087D02*
D03*
X57024D02*
D03*
X60961D02*
D03*
X64898D02*
D03*
X29465Y-29606D02*
D03*
X33402D02*
D03*
X37339D02*
D03*
X41276D02*
D03*
X45213D02*
D03*
X49150D02*
D03*
X53087D02*
D03*
X57024D02*
D03*
X60961D02*
D03*
X64898D02*
D03*
X29465Y-25669D02*
D03*
X33402D02*
D03*
X37339D02*
D03*
X41276D02*
D03*
X45213D02*
D03*
X49150D02*
D03*
X53087D02*
D03*
X57024D02*
D03*
X60961D02*
D03*
X64898D02*
D03*
X29465Y-21732D02*
D03*
X33402D02*
D03*
X37339D02*
D03*
X41276D02*
D03*
X45213D02*
D03*
X49150D02*
D03*
X53087D02*
D03*
X57024D02*
D03*
X60961D02*
D03*
X64898D02*
D03*
X29465Y-17795D02*
D03*
X33402D02*
D03*
X37339D02*
D03*
X41276D02*
D03*
X45213D02*
D03*
X49150D02*
D03*
X53087D02*
D03*
X57024D02*
D03*
X60961D02*
D03*
X64898D02*
D03*
X29465Y-9921D02*
D03*
X33402D02*
D03*
X37339D02*
D03*
X41276D02*
D03*
X49150D02*
D03*
X53087D02*
D03*
X57024D02*
D03*
X60961D02*
D03*
X64898D02*
D03*
X29465Y-5984D02*
D03*
X33402D02*
D03*
X37339D02*
D03*
X41276D02*
D03*
X49150D02*
D03*
X53087D02*
D03*
X57024D02*
D03*
X60961D02*
D03*
X64898D02*
D03*
X29465Y-2047D02*
D03*
X33402D02*
D03*
X37339D02*
D03*
X41276D02*
D03*
X49150D02*
D03*
X53087D02*
D03*
X57024D02*
D03*
X60961D02*
D03*
X64898D02*
D03*
D80*
X59141Y47598D02*
D03*
Y16102D02*
D03*
D81*
X18179Y50824D02*
D03*
Y13422D02*
D03*
D82*
X193781Y-121412D02*
D03*
Y-109995D02*
D03*
D83*
X191320Y-143279D02*
D03*
Y-132255D02*
D03*
Y-152548D02*
D03*
Y-163571D02*
D03*
D84*
X277165Y-101181D02*
D03*
Y-188583D02*
D03*
D85*
X159532Y-113472D02*
D03*
X170556D02*
D03*
X298150Y-80956D02*
D03*
X287126D02*
D03*
D86*
X64567Y-410787D02*
D03*
D87*
Y-400787D02*
D03*
X74567Y-410787D02*
D03*
Y-400787D02*
D03*
X84567Y-410787D02*
D03*
Y-400787D02*
D03*
X94567Y-410787D02*
D03*
Y-400787D02*
D03*
X104567Y-410787D02*
D03*
Y-400787D02*
D03*
X114567Y-410787D02*
D03*
Y-400787D02*
D03*
X124567Y-410787D02*
D03*
Y-400787D02*
D03*
X134567Y-410787D02*
D03*
Y-400787D02*
D03*
X144567Y-410787D02*
D03*
Y-400787D02*
D03*
X154567Y-410787D02*
D03*
Y-400787D02*
D03*
X164567Y-410787D02*
D03*
Y-400787D02*
D03*
X174567Y-410787D02*
D03*
Y-400787D02*
D03*
X54150Y-220121D02*
D03*
X44150Y-230121D02*
D03*
X54150D02*
D03*
X44150Y-240121D02*
D03*
X54150D02*
D03*
D88*
X261114Y-445973D02*
D03*
Y-436131D02*
D03*
D89*
X44150Y-220121D02*
D03*
D90*
X19150Y-208770D02*
D03*
Y-213691D02*
D03*
Y-218613D02*
D03*
Y-223534D02*
D03*
Y-180210D02*
D03*
Y-185132D02*
D03*
Y-190053D02*
D03*
Y-194974D02*
D03*
Y-151650D02*
D03*
Y-156571D02*
D03*
Y-161493D02*
D03*
Y-166414D02*
D03*
X19150Y-122886D02*
D03*
Y-127808D02*
D03*
Y-132729D02*
D03*
Y-137650D02*
D03*
X19150Y-94308D02*
D03*
Y-99229D02*
D03*
Y-104150D02*
D03*
Y-109071D02*
D03*
Y-65748D02*
D03*
Y-70669D02*
D03*
Y-75590D02*
D03*
Y-80511D02*
D03*
D91*
X149315Y-30162D02*
D03*
X98921D02*
D03*
X109000D02*
D03*
X119079D02*
D03*
X129157D02*
D03*
X139236D02*
D03*
X93961Y-37682D02*
D03*
X104039D02*
D03*
X114118D02*
D03*
X124197D02*
D03*
X134276D02*
D03*
X144354D02*
D03*
X98921Y-45201D02*
D03*
X109000D02*
D03*
X119079D02*
D03*
X129157D02*
D03*
X139236D02*
D03*
X149315D02*
D03*
X93921Y-52721D02*
D03*
X104000D02*
D03*
X114079D02*
D03*
X124158D02*
D03*
X134236D02*
D03*
X144315D02*
D03*
X149315Y-360162D02*
D03*
X98921D02*
D03*
X109000D02*
D03*
X119079D02*
D03*
X129157D02*
D03*
X139236D02*
D03*
X93961Y-367682D02*
D03*
X104039D02*
D03*
X114118D02*
D03*
X124197D02*
D03*
X134276D02*
D03*
X144354D02*
D03*
X98921Y-375201D02*
D03*
X109000D02*
D03*
X119079D02*
D03*
X129157D02*
D03*
X139236D02*
D03*
X149315D02*
D03*
X93921Y-382721D02*
D03*
X104000D02*
D03*
X114079D02*
D03*
X124158D02*
D03*
X134236D02*
D03*
X144315D02*
D03*
X149315Y-195162D02*
D03*
X98921D02*
D03*
X109000D02*
D03*
X119079D02*
D03*
X129157D02*
D03*
X139236D02*
D03*
X93961Y-202682D02*
D03*
X104039D02*
D03*
X114118D02*
D03*
X124197D02*
D03*
X134276D02*
D03*
X144354D02*
D03*
X98921Y-210201D02*
D03*
X109000D02*
D03*
X119079D02*
D03*
X129157D02*
D03*
X139236D02*
D03*
X149315D02*
D03*
X93921Y-217721D02*
D03*
X104000D02*
D03*
X114079D02*
D03*
X124158D02*
D03*
X134236D02*
D03*
X144315D02*
D03*
X149315Y134838D02*
D03*
X98921D02*
D03*
X109000D02*
D03*
X119079D02*
D03*
X129157D02*
D03*
X139236D02*
D03*
X93961Y127318D02*
D03*
X104039D02*
D03*
X114118D02*
D03*
X124197D02*
D03*
X134276D02*
D03*
X144354D02*
D03*
X98921Y119799D02*
D03*
X109000D02*
D03*
X119079D02*
D03*
X129157D02*
D03*
X139236D02*
D03*
X149315D02*
D03*
X93921Y112279D02*
D03*
X104000D02*
D03*
X114079D02*
D03*
X124158D02*
D03*
X134236D02*
D03*
X144315D02*
D03*
X205650Y-171263D02*
D03*
X71978Y-163322D02*
D03*
X77150Y-154650D02*
D03*
X53478Y-188322D02*
D03*
X154328Y-113472D02*
D03*
X193781Y-104019D02*
D03*
X68047Y31811D02*
D03*
X57811D02*
D03*
X47575D02*
D03*
X37339D02*
D03*
X27102D02*
D03*
X16866D02*
D03*
X6630D02*
D03*
X-3606D02*
D03*
X-13842D02*
D03*
X83748Y64225D02*
D03*
X73299D02*
D03*
X62850D02*
D03*
X80638Y8319D02*
D03*
X52402Y64225D02*
D03*
X20331Y-18504D02*
D03*
Y-28346D02*
D03*
Y-38189D02*
D03*
X0Y-9449D02*
D03*
Y0D02*
D03*
X9449D02*
D03*
Y-9449D02*
D03*
X215638Y64225D02*
D03*
X229024D02*
D03*
X242409D02*
D03*
X186614Y-9449D02*
D03*
Y0D02*
D03*
X177165D02*
D03*
Y-9449D02*
D03*
D92*
X196677Y-48036D02*
D03*
X186835D02*
D03*
X176992D02*
D03*
X167150D02*
D03*
X196677Y-34650D02*
D03*
X186835D02*
D03*
X176992D02*
D03*
X167150D02*
D03*
X214394D02*
D03*
X224236D02*
D03*
X234079D02*
D03*
X243921D02*
D03*
X214394Y-48036D02*
D03*
X224236D02*
D03*
X234079D02*
D03*
X243921D02*
D03*
X196677Y-378036D02*
D03*
X186835D02*
D03*
X176992D02*
D03*
X167150D02*
D03*
X196677Y-364650D02*
D03*
X186835D02*
D03*
X176992D02*
D03*
X167150D02*
D03*
X214394D02*
D03*
X224236D02*
D03*
X234079D02*
D03*
X243921D02*
D03*
X214394Y-378036D02*
D03*
X224236D02*
D03*
X234079D02*
D03*
X243921D02*
D03*
X196677Y-213036D02*
D03*
X186835D02*
D03*
X176992D02*
D03*
X167150D02*
D03*
X196677Y-199650D02*
D03*
X186835D02*
D03*
X176992D02*
D03*
X167150D02*
D03*
X214394D02*
D03*
X224236D02*
D03*
X234079D02*
D03*
X243921D02*
D03*
X214394Y-213036D02*
D03*
X224236D02*
D03*
X234079D02*
D03*
X243921D02*
D03*
X196677Y116964D02*
D03*
X186835D02*
D03*
X176992D02*
D03*
X167150D02*
D03*
X196677Y130350D02*
D03*
X186835D02*
D03*
X176992D02*
D03*
X167150D02*
D03*
X214394D02*
D03*
X224236D02*
D03*
X234079D02*
D03*
X243921D02*
D03*
X214394Y116964D02*
D03*
X224236D02*
D03*
X234079D02*
D03*
X243921D02*
D03*
X257150Y-174650D02*
D03*
X267150D02*
D03*
X277150D02*
D03*
X287150D02*
D03*
X297150D02*
D03*
X257150Y-114650D02*
D03*
X267150D02*
D03*
X277150D02*
D03*
X287150D02*
D03*
D93*
X157150Y-134650D02*
D03*
Y-144650D02*
D03*
Y-154650D02*
D03*
D94*
X297150Y-114650D02*
D03*
D95*
X275590Y-206299D02*
D03*
Y-41339D02*
D03*
X61811Y-144488D02*
D03*
X-36753Y-262761D02*
D03*
Y-26540D02*
D03*
X266397Y189995D02*
D03*
Y-479296D02*
D03*
D96*
X3150Y-20650D02*
D03*
X-12441D02*
D03*
D97*
X298031Y-71260D02*
D03*
X279528Y-81102D02*
D03*
D98*
X9055Y-34036D02*
D03*
D99*
X205650Y-332150D02*
D03*
X205649Y-312150D02*
D03*
X160150Y-272150D02*
D03*
X61650Y-332150D02*
D03*
X61650Y-312150D02*
D03*
X61650Y-292150D02*
D03*
X61650Y-272150D02*
D03*
X26150Y-332150D02*
D03*
Y-312150D02*
D03*
Y-292150D02*
D03*
Y-272150D02*
D03*
X240582Y-418150D02*
D03*
X235582Y-408150D02*
D03*
X240582Y-438150D02*
D03*
X225582Y-408150D02*
D03*
X230582Y-418150D02*
D03*
Y-438150D02*
D03*
X225582Y-448150D02*
D03*
X215582Y-408150D02*
D03*
X220582Y-418150D02*
D03*
X215582Y-428150D02*
D03*
X220582Y-438150D02*
D03*
X205582Y-408150D02*
D03*
X210582Y-418150D02*
D03*
X205582Y-428150D02*
D03*
X210582Y-438150D02*
D03*
X195582Y-408150D02*
D03*
X200582Y-418150D02*
D03*
X84150Y-116150D02*
D03*
X88650Y-112150D02*
D03*
X84650Y-193150D02*
D03*
X61150Y-196650D02*
D03*
X101650Y-186650D02*
D03*
X61094Y-171705D02*
D03*
M02*
