G04 Layer_Color=128*
%FSLAX25Y25*%
%MOIN*%
G70*
G01*
G75*
%ADD24R,0.10630X0.05118*%
%ADD62R,0.07087X0.05118*%
%ADD63R,0.03937X0.03543*%
D24*
X30650Y-135662D02*
D03*
Y-124638D02*
D03*
X31150Y-193162D02*
D03*
Y-182138D02*
D03*
Y-221662D02*
D03*
Y-210638D02*
D03*
D62*
X150Y44933D02*
D03*
Y56351D02*
D03*
X10599Y44933D02*
D03*
Y56351D02*
D03*
X21049Y44933D02*
D03*
Y56351D02*
D03*
X31499Y44933D02*
D03*
Y56351D02*
D03*
X41949Y44933D02*
D03*
Y56351D02*
D03*
X52399Y44933D02*
D03*
Y56351D02*
D03*
X62848Y44933D02*
D03*
Y56351D02*
D03*
X73298Y44933D02*
D03*
Y56351D02*
D03*
X83748Y44933D02*
D03*
Y56351D02*
D03*
X-18300Y19558D02*
D03*
Y8141D02*
D03*
X-7850Y19558D02*
D03*
Y8141D02*
D03*
X2850Y19558D02*
D03*
Y8141D02*
D03*
X13300Y19558D02*
D03*
Y8141D02*
D03*
X23750Y19558D02*
D03*
Y8141D02*
D03*
X34200Y19558D02*
D03*
Y8141D02*
D03*
D63*
X77087Y14045D02*
D03*
Y19360D02*
D03*
X84190Y14045D02*
D03*
Y19360D02*
D03*
M02*
