G04 Layer_Color=16711935*
%FSLAX25Y25*%
%MOIN*%
G70*
G01*
G75*
%ADD83R,0.11430X0.05918*%
%ADD86R,0.06706X0.06706*%
%ADD87C,0.06706*%
%ADD88O,0.10642X0.07690*%
%ADD89R,0.06706X0.06706*%
%ADD90O,0.05328X0.04147*%
%ADD91C,0.05918*%
%ADD92C,0.07493*%
%ADD93O,0.07493X0.06706*%
%ADD94R,0.07493X0.07493*%
%ADD95C,0.13398*%
%ADD96C,0.10249*%
%ADD97C,0.05800*%
%ADD98C,0.06312*%
%ADD99C,0.03950*%
%ADD100R,0.07887X0.05918*%
%ADD101R,0.04737X0.04343*%
D83*
X30650Y-135662D02*
D03*
Y-124638D02*
D03*
X31150Y-193162D02*
D03*
Y-182138D02*
D03*
Y-221662D02*
D03*
Y-210638D02*
D03*
D86*
X64567Y-410787D02*
D03*
D87*
Y-400787D02*
D03*
X74567Y-410787D02*
D03*
Y-400787D02*
D03*
X84567Y-410787D02*
D03*
Y-400787D02*
D03*
X94567Y-410787D02*
D03*
Y-400787D02*
D03*
X104567Y-410787D02*
D03*
Y-400787D02*
D03*
X114567Y-410787D02*
D03*
Y-400787D02*
D03*
X124567Y-410787D02*
D03*
Y-400787D02*
D03*
X134567Y-410787D02*
D03*
Y-400787D02*
D03*
X144567Y-410787D02*
D03*
Y-400787D02*
D03*
X154567Y-410787D02*
D03*
Y-400787D02*
D03*
X164567Y-410787D02*
D03*
Y-400787D02*
D03*
X174567Y-410787D02*
D03*
Y-400787D02*
D03*
X54150Y-220121D02*
D03*
X44150Y-230121D02*
D03*
X54150D02*
D03*
X44150Y-240121D02*
D03*
X54150D02*
D03*
D88*
X261114Y-445973D02*
D03*
Y-436131D02*
D03*
D89*
X44150Y-220121D02*
D03*
D90*
X19150Y-208770D02*
D03*
Y-213691D02*
D03*
Y-218613D02*
D03*
Y-223534D02*
D03*
Y-180210D02*
D03*
Y-185132D02*
D03*
Y-190053D02*
D03*
Y-194974D02*
D03*
Y-151650D02*
D03*
Y-156571D02*
D03*
Y-161493D02*
D03*
Y-166414D02*
D03*
X19150Y-122886D02*
D03*
Y-127808D02*
D03*
Y-132729D02*
D03*
Y-137650D02*
D03*
X19150Y-94308D02*
D03*
Y-99229D02*
D03*
Y-104150D02*
D03*
Y-109071D02*
D03*
Y-65748D02*
D03*
Y-70669D02*
D03*
Y-75590D02*
D03*
Y-80511D02*
D03*
D91*
X149315Y-30162D02*
D03*
X98921D02*
D03*
X109000D02*
D03*
X119079D02*
D03*
X129157D02*
D03*
X139236D02*
D03*
X93961Y-37682D02*
D03*
X104039D02*
D03*
X114118D02*
D03*
X124197D02*
D03*
X134276D02*
D03*
X144354D02*
D03*
X98921Y-45201D02*
D03*
X109000D02*
D03*
X119079D02*
D03*
X129157D02*
D03*
X139236D02*
D03*
X149315D02*
D03*
X93921Y-52721D02*
D03*
X104000D02*
D03*
X114079D02*
D03*
X124158D02*
D03*
X134236D02*
D03*
X144315D02*
D03*
X149315Y-360162D02*
D03*
X98921D02*
D03*
X109000D02*
D03*
X119079D02*
D03*
X129157D02*
D03*
X139236D02*
D03*
X93961Y-367682D02*
D03*
X104039D02*
D03*
X114118D02*
D03*
X124197D02*
D03*
X134276D02*
D03*
X144354D02*
D03*
X98921Y-375201D02*
D03*
X109000D02*
D03*
X119079D02*
D03*
X129157D02*
D03*
X139236D02*
D03*
X149315D02*
D03*
X93921Y-382721D02*
D03*
X104000D02*
D03*
X114079D02*
D03*
X124158D02*
D03*
X134236D02*
D03*
X144315D02*
D03*
X149315Y-195162D02*
D03*
X98921D02*
D03*
X109000D02*
D03*
X119079D02*
D03*
X129157D02*
D03*
X139236D02*
D03*
X93961Y-202682D02*
D03*
X104039D02*
D03*
X114118D02*
D03*
X124197D02*
D03*
X134276D02*
D03*
X144354D02*
D03*
X98921Y-210201D02*
D03*
X109000D02*
D03*
X119079D02*
D03*
X129157D02*
D03*
X139236D02*
D03*
X149315D02*
D03*
X93921Y-217721D02*
D03*
X104000D02*
D03*
X114079D02*
D03*
X124158D02*
D03*
X134236D02*
D03*
X144315D02*
D03*
X149315Y134838D02*
D03*
X98921D02*
D03*
X109000D02*
D03*
X119079D02*
D03*
X129157D02*
D03*
X139236D02*
D03*
X93961Y127318D02*
D03*
X104039D02*
D03*
X114118D02*
D03*
X124197D02*
D03*
X134276D02*
D03*
X144354D02*
D03*
X98921Y119799D02*
D03*
X109000D02*
D03*
X119079D02*
D03*
X129157D02*
D03*
X139236D02*
D03*
X149315D02*
D03*
X93921Y112279D02*
D03*
X104000D02*
D03*
X114079D02*
D03*
X124158D02*
D03*
X134236D02*
D03*
X144315D02*
D03*
X205650Y-171263D02*
D03*
X71978Y-163322D02*
D03*
X77150Y-154650D02*
D03*
X53478Y-188322D02*
D03*
X154328Y-113472D02*
D03*
X193781Y-104019D02*
D03*
X68047Y31811D02*
D03*
X57811D02*
D03*
X47575D02*
D03*
X37339D02*
D03*
X27102D02*
D03*
X16866D02*
D03*
X6630D02*
D03*
X-3606D02*
D03*
X-13842D02*
D03*
X83748Y64225D02*
D03*
X73299D02*
D03*
X62850D02*
D03*
X80638Y8319D02*
D03*
X52402Y64225D02*
D03*
X20331Y-18504D02*
D03*
Y-28346D02*
D03*
Y-38189D02*
D03*
X0Y-9449D02*
D03*
Y0D02*
D03*
X9449D02*
D03*
Y-9449D02*
D03*
X215638Y64225D02*
D03*
X229024D02*
D03*
X242409D02*
D03*
X186614Y-9449D02*
D03*
Y0D02*
D03*
X177165D02*
D03*
Y-9449D02*
D03*
D92*
X196677Y-48036D02*
D03*
X186835D02*
D03*
X176992D02*
D03*
X167150D02*
D03*
X196677Y-34650D02*
D03*
X186835D02*
D03*
X176992D02*
D03*
X167150D02*
D03*
X214394D02*
D03*
X224236D02*
D03*
X234079D02*
D03*
X243921D02*
D03*
X214394Y-48036D02*
D03*
X224236D02*
D03*
X234079D02*
D03*
X243921D02*
D03*
X196677Y-378036D02*
D03*
X186835D02*
D03*
X176992D02*
D03*
X167150D02*
D03*
X196677Y-364650D02*
D03*
X186835D02*
D03*
X176992D02*
D03*
X167150D02*
D03*
X214394D02*
D03*
X224236D02*
D03*
X234079D02*
D03*
X243921D02*
D03*
X214394Y-378036D02*
D03*
X224236D02*
D03*
X234079D02*
D03*
X243921D02*
D03*
X196677Y-213036D02*
D03*
X186835D02*
D03*
X176992D02*
D03*
X167150D02*
D03*
X196677Y-199650D02*
D03*
X186835D02*
D03*
X176992D02*
D03*
X167150D02*
D03*
X214394D02*
D03*
X224236D02*
D03*
X234079D02*
D03*
X243921D02*
D03*
X214394Y-213036D02*
D03*
X224236D02*
D03*
X234079D02*
D03*
X243921D02*
D03*
X196677Y116964D02*
D03*
X186835D02*
D03*
X176992D02*
D03*
X167150D02*
D03*
X196677Y130350D02*
D03*
X186835D02*
D03*
X176992D02*
D03*
X167150D02*
D03*
X214394D02*
D03*
X224236D02*
D03*
X234079D02*
D03*
X243921D02*
D03*
X214394Y116964D02*
D03*
X224236D02*
D03*
X234079D02*
D03*
X243921D02*
D03*
X257150Y-174650D02*
D03*
X267150D02*
D03*
X277150D02*
D03*
X287150D02*
D03*
X297150D02*
D03*
X257150Y-114650D02*
D03*
X267150D02*
D03*
X277150D02*
D03*
X287150D02*
D03*
D93*
X157150Y-134650D02*
D03*
Y-144650D02*
D03*
Y-154650D02*
D03*
D94*
X297150Y-114650D02*
D03*
D95*
X275590Y-206299D02*
D03*
Y-41339D02*
D03*
X61811Y-144488D02*
D03*
X-36753Y-262761D02*
D03*
Y-26540D02*
D03*
X266397Y189995D02*
D03*
Y-479296D02*
D03*
D96*
X3150Y-20650D02*
D03*
X-12441D02*
D03*
D97*
X298031Y-71260D02*
D03*
X279528Y-81102D02*
D03*
D98*
X9055Y-34036D02*
D03*
D99*
X205650Y-332150D02*
D03*
X205649Y-312150D02*
D03*
X160150Y-272150D02*
D03*
X61650Y-332150D02*
D03*
X61650Y-312150D02*
D03*
X61650Y-292150D02*
D03*
X61650Y-272150D02*
D03*
X26150Y-332150D02*
D03*
Y-312150D02*
D03*
Y-292150D02*
D03*
Y-272150D02*
D03*
X240582Y-418150D02*
D03*
X235582Y-408150D02*
D03*
X240582Y-438150D02*
D03*
X225582Y-408150D02*
D03*
X230582Y-418150D02*
D03*
Y-438150D02*
D03*
X225582Y-448150D02*
D03*
X215582Y-408150D02*
D03*
X220582Y-418150D02*
D03*
X215582Y-428150D02*
D03*
X220582Y-438150D02*
D03*
X205582Y-408150D02*
D03*
X210582Y-418150D02*
D03*
X205582Y-428150D02*
D03*
X210582Y-438150D02*
D03*
X195582Y-408150D02*
D03*
X200582Y-418150D02*
D03*
X84150Y-116150D02*
D03*
X88650Y-112150D02*
D03*
X84650Y-193150D02*
D03*
X61150Y-196650D02*
D03*
X101650Y-186650D02*
D03*
X61094Y-171705D02*
D03*
D100*
X150Y44933D02*
D03*
Y56351D02*
D03*
X10599Y44933D02*
D03*
Y56351D02*
D03*
X21049Y44933D02*
D03*
Y56351D02*
D03*
X31499Y44933D02*
D03*
Y56351D02*
D03*
X41949Y44933D02*
D03*
Y56351D02*
D03*
X52399Y44933D02*
D03*
Y56351D02*
D03*
X62848Y44933D02*
D03*
Y56351D02*
D03*
X73298Y44933D02*
D03*
Y56351D02*
D03*
X83748Y44933D02*
D03*
Y56351D02*
D03*
X-18300Y19558D02*
D03*
Y8141D02*
D03*
X-7850Y19558D02*
D03*
Y8141D02*
D03*
X2850Y19558D02*
D03*
Y8141D02*
D03*
X13300Y19558D02*
D03*
Y8141D02*
D03*
X23750Y19558D02*
D03*
Y8141D02*
D03*
X34200Y19558D02*
D03*
Y8141D02*
D03*
D101*
X77087Y14045D02*
D03*
Y19360D02*
D03*
X84190Y14045D02*
D03*
Y19360D02*
D03*
M02*
