G04 Layer_Color=65535*
%FSLAX25Y25*%
%MOIN*%
G70*
G01*
G75*
%ADD27C,0.01000*%
%ADD64C,0.00787*%
%ADD65C,0.00984*%
%ADD66C,0.00100*%
%ADD67C,0.00591*%
%ADD68R,0.02165X0.02657*%
D27*
X77378Y-107240D02*
X79377D01*
X78378D01*
Y-113238D01*
X77378D01*
X79377D01*
X86375D02*
X82376D01*
X86375Y-109240D01*
Y-108240D01*
X85375Y-107240D01*
X83376D01*
X82376Y-108240D01*
X92373D02*
X91373Y-107240D01*
X89374D01*
X88374Y-108240D01*
Y-112239D01*
X89374Y-113238D01*
X91373D01*
X92373Y-112239D01*
X77378Y-122836D02*
Y-116838D01*
X80377D01*
X81377Y-117838D01*
Y-119837D01*
X80377Y-120837D01*
X77378D01*
X83376Y-118837D02*
Y-121836D01*
X84376Y-122836D01*
X87375D01*
Y-118837D01*
X89374Y-122836D02*
X91373D01*
X90374D01*
Y-116838D01*
X89374D01*
X94372Y-122836D02*
X96372D01*
X95372D01*
Y-116838D01*
X94372D01*
X77378Y-126436D02*
Y-131434D01*
X78378Y-132434D01*
X80377D01*
X81377Y-131434D01*
Y-126436D01*
X83376Y-134433D02*
Y-128435D01*
X86375D01*
X87375Y-129435D01*
Y-131434D01*
X86375Y-132434D01*
X83376D01*
X89374D02*
X92373D01*
X93373Y-131434D01*
X92373Y-130434D01*
X90374D01*
X89374Y-129435D01*
X90374Y-128435D01*
X93373D01*
X53150Y-166142D02*
Y-160144D01*
X56149D01*
X57148Y-161143D01*
Y-163143D01*
X56149Y-164142D01*
X53150D01*
X55149D02*
X57148Y-166142D01*
X63146Y-160144D02*
X61147Y-161143D01*
X59148Y-163143D01*
Y-165142D01*
X60147Y-166142D01*
X62147D01*
X63146Y-165142D01*
Y-164142D01*
X62147Y-163143D01*
X59148D01*
X115748Y-425197D02*
Y-419199D01*
X118747D01*
X119747Y-420198D01*
Y-422198D01*
X118747Y-423198D01*
X115748D01*
X125745Y-425197D02*
X121746D01*
X125745Y-421198D01*
Y-420198D01*
X124745Y-419199D01*
X122746D01*
X121746Y-420198D01*
X33951Y-59055D02*
Y-63054D01*
Y-61054D01*
X27953D01*
X33951Y-65053D02*
X27953D01*
X30952D01*
Y-69052D01*
X33951D01*
X27953D01*
Y-71051D02*
X33951D01*
Y-74050D01*
X32951Y-75050D01*
X30952D01*
X29952Y-74050D01*
Y-71051D01*
Y-73051D02*
X27953Y-75050D01*
X30952Y-77049D02*
Y-81048D01*
X33951Y-83047D02*
X27953D01*
Y-87046D01*
X33951Y-88976D02*
Y-92975D01*
Y-90976D01*
X27953D01*
X33951Y-94974D02*
X27953D01*
X30952D01*
Y-98973D01*
X33951D01*
X27953D01*
Y-100972D02*
X33951D01*
Y-103972D01*
X32951Y-104971D01*
X30952D01*
X29952Y-103972D01*
Y-100972D01*
Y-102972D02*
X27953Y-104971D01*
X30952Y-106971D02*
Y-110969D01*
X27953Y-112969D02*
X33951D01*
Y-115968D01*
X32951Y-116967D01*
X30952D01*
X29952Y-115968D01*
Y-112969D01*
Y-114968D02*
X27953Y-116967D01*
X33951Y-121653D02*
X27953D01*
Y-125652D01*
Y-130651D02*
Y-128651D01*
X28952Y-127652D01*
X30952D01*
X31951Y-128651D01*
Y-130651D01*
X30952Y-131650D01*
X29952D01*
Y-127652D01*
X31951Y-134649D02*
Y-136649D01*
X30952Y-137648D01*
X27953D01*
Y-134649D01*
X28952Y-133650D01*
X29952Y-134649D01*
Y-137648D01*
X27953Y-139648D02*
X33951D01*
X29952D02*
X31951Y-142647D01*
X29952Y-139648D02*
X27953Y-142647D01*
X33951Y-151575D02*
X27953D01*
Y-155573D01*
X33951Y-161572D02*
Y-157573D01*
X27953D01*
Y-161572D01*
X30952Y-157573D02*
Y-159572D01*
X33951Y-163571D02*
X27953D01*
Y-166570D01*
X28952Y-167570D01*
X32951D01*
X33951Y-166570D01*
Y-163571D01*
X27953Y-180315D02*
X33951D01*
Y-183314D01*
X32951Y-184314D01*
X30952D01*
X29952Y-183314D01*
Y-180315D01*
X32951Y-190312D02*
X33951Y-189312D01*
Y-187313D01*
X32951Y-186313D01*
X31951D01*
X30952Y-187313D01*
Y-189312D01*
X29952Y-190312D01*
X28952D01*
X27953Y-189312D01*
Y-187313D01*
X28952Y-186313D01*
X33951Y-192311D02*
X28952D01*
X27953Y-193311D01*
Y-195310D01*
X28952Y-196310D01*
X33951D01*
X27953Y-202756D02*
X33951D01*
Y-205755D01*
X32951Y-206755D01*
X30952D01*
X29952Y-205755D01*
Y-202756D01*
X31951Y-208754D02*
X27953D01*
X29952D01*
X30952Y-209754D01*
X31951Y-210753D01*
Y-211753D01*
X27953Y-217751D02*
Y-215752D01*
X28952Y-214752D01*
X30952D01*
X31951Y-215752D01*
Y-217751D01*
X30952Y-218751D01*
X29952D01*
Y-214752D01*
X27953Y-220750D02*
Y-223749D01*
X28952Y-224749D01*
X29952Y-223749D01*
Y-221750D01*
X30952Y-220750D01*
X31951Y-221750D01*
Y-224749D01*
X27953Y-226748D02*
Y-229747D01*
X28952Y-230747D01*
X29952Y-229747D01*
Y-227748D01*
X30952Y-226748D01*
X31951Y-227748D01*
Y-230747D01*
Y-232746D02*
X28952D01*
X27953Y-233746D01*
Y-236745D01*
X31951D01*
Y-238744D02*
X27953D01*
X29952D01*
X30952Y-239744D01*
X31951Y-240744D01*
Y-241743D01*
X27953Y-247741D02*
Y-245742D01*
X28952Y-244742D01*
X30952D01*
X31951Y-245742D01*
Y-247741D01*
X30952Y-248741D01*
X29952D01*
Y-244742D01*
X276679Y-442064D02*
Y-444064D01*
Y-443064D01*
X281678D01*
X282677Y-444064D01*
Y-445063D01*
X281678Y-446063D01*
Y-440065D02*
X282677Y-439065D01*
Y-437066D01*
X281678Y-436066D01*
X277679D01*
X276679Y-437066D01*
Y-439065D01*
X277679Y-440065D01*
X278678D01*
X279678Y-439065D01*
Y-436066D01*
X225197Y-408963D02*
Y-413961D01*
X226197Y-414961D01*
X228196D01*
X229196Y-413961D01*
Y-408963D01*
X235194Y-414961D02*
X231195D01*
X235194Y-410962D01*
Y-409962D01*
X234194Y-408963D01*
X232195D01*
X231195Y-409962D01*
X205967Y-467443D02*
X204967Y-466443D01*
X202968D01*
X201969Y-467443D01*
Y-471441D01*
X202968Y-472441D01*
X204967D01*
X205967Y-471441D01*
X210966Y-472441D02*
Y-466443D01*
X207967Y-469442D01*
X211965D01*
X185101Y-417836D02*
X184101Y-416837D01*
X182102D01*
X181102Y-417836D01*
Y-421835D01*
X182102Y-422835D01*
X184101D01*
X185101Y-421835D01*
X187100Y-417836D02*
X188100Y-416837D01*
X190100D01*
X191099Y-417836D01*
Y-418836D01*
X190100Y-419836D01*
X189100D01*
X190100D01*
X191099Y-420835D01*
Y-421835D01*
X190100Y-422835D01*
X188100D01*
X187100Y-421835D01*
X72441Y-109843D02*
X66443D01*
Y-106843D01*
X67443Y-105844D01*
X69442D01*
X70442Y-106843D01*
Y-109843D01*
Y-107843D02*
X72441Y-105844D01*
Y-99846D02*
Y-103844D01*
X68442Y-99846D01*
X67443D01*
X66443Y-100845D01*
Y-102845D01*
X67443Y-103844D01*
X63386Y-109843D02*
X57388D01*
Y-106843D01*
X58388Y-105844D01*
X60387D01*
X61387Y-106843D01*
Y-109843D01*
Y-107843D02*
X63386Y-105844D01*
Y-103844D02*
Y-101845D01*
Y-102845D01*
X57388D01*
X58388Y-103844D01*
X79528Y-180709D02*
X73529D01*
Y-177710D01*
X74529Y-176710D01*
X76529D01*
X77528Y-177710D01*
Y-180709D01*
Y-178709D02*
X79528Y-176710D01*
X73529Y-170712D02*
Y-174711D01*
X76529D01*
X75529Y-172711D01*
Y-171712D01*
X76529Y-170712D01*
X78528D01*
X79528Y-171712D01*
Y-173711D01*
X78528Y-174711D01*
X64081Y-182677D02*
Y-180678D01*
Y-181677D01*
X70079D01*
Y-182677D01*
Y-180678D01*
X65080Y-173680D02*
X64081Y-174680D01*
Y-176679D01*
X65080Y-177679D01*
X69079D01*
X70079Y-176679D01*
Y-174680D01*
X69079Y-173680D01*
X70079Y-167682D02*
Y-171681D01*
X66080Y-167682D01*
X65080D01*
X64081Y-168682D01*
Y-170681D01*
X65080Y-171681D01*
X59055Y-190945D02*
Y-184947D01*
X62054D01*
X63054Y-185947D01*
Y-187946D01*
X62054Y-188945D01*
X59055D01*
X61054D02*
X63054Y-190945D01*
X68052D02*
Y-184947D01*
X65053Y-187946D01*
X69052D01*
X64474Y-206299D02*
Y-204300D01*
Y-205299D01*
X70472D01*
Y-206299D01*
Y-204300D01*
X65474Y-197302D02*
X64474Y-198302D01*
Y-200301D01*
X65474Y-201301D01*
X69473D01*
X70472Y-200301D01*
Y-198302D01*
X69473Y-197302D01*
X70472Y-195303D02*
Y-193303D01*
Y-194303D01*
X64474D01*
X65474Y-195303D01*
X79528Y-205118D02*
X73529D01*
Y-202119D01*
X74529Y-201119D01*
X76529D01*
X77528Y-202119D01*
Y-205118D01*
Y-203119D02*
X79528Y-201119D01*
X74529Y-199120D02*
X73529Y-198120D01*
Y-196121D01*
X74529Y-195121D01*
X75529D01*
X76529Y-196121D01*
Y-197121D01*
Y-196121D01*
X77528Y-195121D01*
X78528D01*
X79528Y-196121D01*
Y-198120D01*
X78528Y-199120D01*
X67323Y-233858D02*
X61325D01*
Y-230859D01*
X62325Y-229860D01*
X64324D01*
X65324Y-230859D01*
Y-233858D01*
X67323Y-227860D02*
Y-225861D01*
Y-226860D01*
X61325D01*
X62325Y-227860D01*
X49606Y-83465D02*
Y-77466D01*
X52605D01*
X53605Y-78466D01*
Y-80466D01*
X52605Y-81465D01*
X49606D01*
X51606D02*
X53605Y-83465D01*
X55604D02*
X57604D01*
X56604D01*
Y-77466D01*
X55604Y-78466D01*
X64601Y-83465D02*
X60603D01*
X64601Y-79466D01*
Y-78466D01*
X63602Y-77466D01*
X61602D01*
X60603Y-78466D01*
X71561Y-33858D02*
X76559D01*
X77559Y-32859D01*
Y-30859D01*
X76559Y-29860D01*
X71561D01*
X77559Y-24861D02*
X71561D01*
X74560Y-27860D01*
Y-23862D01*
X79829Y26378D02*
X85827D01*
Y30377D01*
Y36375D02*
Y32376D01*
X81828Y36375D01*
X80828D01*
X79829Y35375D01*
Y33376D01*
X80828Y32376D01*
X15022Y71534D02*
X14023Y72534D01*
X12023D01*
X11024Y71534D01*
Y67535D01*
X12023Y66535D01*
X14023D01*
X15022Y67535D01*
X21020Y66535D02*
X17022D01*
X21020Y70534D01*
Y71534D01*
X20021Y72534D01*
X18021D01*
X17022Y71534D01*
X26019Y66535D02*
Y72534D01*
X23020Y69534D01*
X27018D01*
X167778Y-14868D02*
X165779D01*
X166779D01*
Y-19866D01*
X165779Y-20866D01*
X164779D01*
X163779Y-19866D01*
X169778Y-15868D02*
X170777Y-14868D01*
X172777D01*
X173776Y-15868D01*
Y-16867D01*
X172777Y-17867D01*
X171777D01*
X172777D01*
X173776Y-18867D01*
Y-19866D01*
X172777Y-20866D01*
X170777D01*
X169778Y-19866D01*
X264235Y-368411D02*
X262236D01*
X263235D01*
Y-373410D01*
X262236Y-374410D01*
X261236D01*
X260236Y-373410D01*
X266234Y-374410D02*
X268234D01*
X267234D01*
Y-368411D01*
X266234Y-369411D01*
X167778Y-181010D02*
X165779D01*
X166779D01*
Y-186008D01*
X165779Y-187008D01*
X164779D01*
X163779Y-186008D01*
X173776Y-187008D02*
X169778D01*
X173776Y-183009D01*
Y-182009D01*
X172777Y-181010D01*
X170777D01*
X169778Y-182009D01*
X167778Y150486D02*
X165779D01*
X166779D01*
Y145488D01*
X165779Y144488D01*
X164779D01*
X163779Y145488D01*
X172777Y144488D02*
Y150486D01*
X169778Y147487D01*
X173776D01*
X205026Y-120079D02*
X211024D01*
Y-116080D01*
Y-114081D02*
Y-112081D01*
Y-113081D01*
X205026D01*
X206025Y-114081D01*
X183071Y-103543D02*
X177073D01*
Y-100544D01*
X178073Y-99545D01*
X180072D01*
X181071Y-100544D01*
Y-103543D01*
Y-101544D02*
X183071Y-99545D01*
Y-97545D02*
Y-95546D01*
Y-96546D01*
X177073D01*
X178073Y-97545D01*
X183071Y-92547D02*
Y-90548D01*
Y-91547D01*
X177073D01*
X178073Y-92547D01*
X202088Y-140883D02*
X201089Y-141883D01*
Y-143882D01*
X202088Y-144882D01*
X206087D01*
X207087Y-143882D01*
Y-141883D01*
X206087Y-140883D01*
X207087Y-138884D02*
Y-136884D01*
Y-137884D01*
X201089D01*
X202088Y-138884D01*
X207087Y-133885D02*
Y-131886D01*
Y-132886D01*
X201089D01*
X202088Y-133885D01*
X201694Y-162537D02*
X200695Y-163536D01*
Y-165536D01*
X201694Y-166535D01*
X205693D01*
X206693Y-165536D01*
Y-163536D01*
X205693Y-162537D01*
X206693Y-160537D02*
Y-158538D01*
Y-159538D01*
X200695D01*
X201694Y-160537D01*
X206693Y-151540D02*
Y-155539D01*
X202694Y-151540D01*
X201694D01*
X200695Y-152540D01*
Y-154539D01*
X201694Y-155539D01*
X167624Y-149606D02*
X172622D01*
X173622Y-148607D01*
Y-146607D01*
X172622Y-145608D01*
X167624D01*
X168624Y-143608D02*
X167624Y-142609D01*
Y-140609D01*
X168624Y-139610D01*
X169623D01*
X170623Y-140609D01*
Y-141609D01*
Y-140609D01*
X171623Y-139610D01*
X172622D01*
X173622Y-140609D01*
Y-142609D01*
X172622Y-143608D01*
X240459Y-149213D02*
X245457D01*
X246457Y-148213D01*
Y-146214D01*
X245457Y-145214D01*
X240459D01*
X246457Y-143214D02*
Y-141215D01*
Y-142215D01*
X240459D01*
X241458Y-143214D01*
X46618Y-325300D02*
Y-319302D01*
X49617D01*
X50617Y-320302D01*
Y-322301D01*
X49617Y-323301D01*
X46618D01*
X48617D02*
X50617Y-325300D01*
X52616D02*
X54615D01*
X53616D01*
Y-319302D01*
X52616Y-320302D01*
X57614D02*
X58614Y-319302D01*
X60613D01*
X61613Y-320302D01*
Y-324301D01*
X60613Y-325300D01*
X58614D01*
X57614Y-324301D01*
Y-320302D01*
X46618Y-305300D02*
Y-299302D01*
X49617D01*
X50617Y-300302D01*
Y-302301D01*
X49617Y-303301D01*
X46618D01*
X48617D02*
X50617Y-305300D01*
X52616Y-304300D02*
X53616Y-305300D01*
X55615D01*
X56615Y-304300D01*
Y-300302D01*
X55615Y-299302D01*
X53616D01*
X52616Y-300302D01*
Y-301302D01*
X53616Y-302301D01*
X56615D01*
X46618Y-265300D02*
Y-259302D01*
X49617D01*
X50617Y-260302D01*
Y-262301D01*
X49617Y-263301D01*
X46618D01*
X48617D02*
X50617Y-265300D01*
X52616Y-260302D02*
X53616Y-259302D01*
X55615D01*
X56615Y-260302D01*
Y-261301D01*
X55615Y-262301D01*
X56615Y-263301D01*
Y-264300D01*
X55615Y-265300D01*
X53616D01*
X52616Y-264300D01*
Y-263301D01*
X53616Y-262301D01*
X52616Y-261301D01*
Y-260302D01*
X53616Y-262301D02*
X55615D01*
X46600Y-285267D02*
Y-279269D01*
X49599D01*
X50599Y-280269D01*
Y-282268D01*
X49599Y-283268D01*
X46600D01*
X48599D02*
X50599Y-285267D01*
X52598Y-279269D02*
X56597D01*
Y-280269D01*
X52598Y-284267D01*
Y-285267D01*
X29016Y-319352D02*
Y-325350D01*
X32015D01*
X33014Y-324351D01*
Y-320352D01*
X32015Y-319352D01*
X29016D01*
X38013Y-325350D02*
Y-319352D01*
X35014Y-322351D01*
X39012D01*
X29016Y-299352D02*
Y-305350D01*
X32015D01*
X33014Y-304350D01*
Y-300352D01*
X32015Y-299352D01*
X29016D01*
X35014Y-300352D02*
X36013Y-299352D01*
X38013D01*
X39012Y-300352D01*
Y-301351D01*
X38013Y-302351D01*
X37013D01*
X38013D01*
X39012Y-303351D01*
Y-304350D01*
X38013Y-305350D01*
X36013D01*
X35014Y-304350D01*
X29016Y-259352D02*
Y-265350D01*
X32015D01*
X33014Y-264351D01*
Y-260352D01*
X32015Y-259352D01*
X29016D01*
X39012Y-265350D02*
X35014D01*
X39012Y-261351D01*
Y-260352D01*
X38013Y-259352D01*
X36013D01*
X35014Y-260352D01*
X29016Y-279352D02*
Y-285350D01*
X32015D01*
X33014Y-284350D01*
Y-280352D01*
X32015Y-279352D01*
X29016D01*
X35014Y-285350D02*
X37013D01*
X36013D01*
Y-279352D01*
X35014Y-280352D01*
X160380Y-98752D02*
X159381Y-97752D01*
X157381D01*
X156382Y-98752D01*
Y-102751D01*
X157381Y-103750D01*
X159381D01*
X160380Y-102751D01*
X162380Y-103750D02*
X164379D01*
X163380D01*
Y-97752D01*
X162380Y-98752D01*
X167378D02*
X168378Y-97752D01*
X170377D01*
X171377Y-98752D01*
Y-102751D01*
X170377Y-103750D01*
X168378D01*
X167378Y-102751D01*
Y-98752D01*
X287981Y-66258D02*
X286981Y-65258D01*
X284981D01*
X283982Y-66258D01*
Y-70257D01*
X284981Y-71256D01*
X286981D01*
X287981Y-70257D01*
X289980Y-71256D02*
X291979D01*
X290980D01*
Y-65258D01*
X289980Y-66258D01*
X-19420Y9748D02*
X-21419D01*
X-20419D01*
Y4750D01*
X-21419Y3750D01*
X-22419D01*
X-23418Y4750D01*
X-17420Y3750D02*
X-15421D01*
X-16420D01*
Y9748D01*
X-17420Y8748D01*
X-12422D02*
X-11422Y9748D01*
X-9423D01*
X-8423Y8748D01*
Y4750D01*
X-9423Y3750D01*
X-11422D01*
X-12422Y4750D01*
Y8748D01*
X7150Y-329652D02*
X8149Y-328652D01*
X10149D01*
X11148Y-329652D01*
Y-330651D01*
X10149Y-331651D01*
X9149D01*
X10149D01*
X11148Y-332651D01*
Y-333651D01*
X10149Y-334650D01*
X8149D01*
X7150Y-333651D01*
X13148Y-328652D02*
Y-332651D01*
X15147Y-334650D01*
X17146Y-332651D01*
Y-328652D01*
X19146Y-329652D02*
X20145Y-328652D01*
X22145D01*
X23144Y-329652D01*
Y-330651D01*
X22145Y-331651D01*
X21145D01*
X22145D01*
X23144Y-332651D01*
Y-333651D01*
X22145Y-334650D01*
X20145D01*
X19146Y-333651D01*
X16148Y-308652D02*
X12150D01*
Y-311651D01*
X14149Y-310651D01*
X15149D01*
X16148Y-311651D01*
Y-313651D01*
X15149Y-314650D01*
X13149D01*
X12150Y-313651D01*
X18148Y-308652D02*
Y-312651D01*
X20147Y-314650D01*
X22146Y-312651D01*
Y-308652D01*
X12150Y-293651D02*
X13149Y-294650D01*
X15149D01*
X16148Y-293651D01*
Y-289652D01*
X15149Y-288652D01*
X13149D01*
X12150Y-289652D01*
Y-290651D01*
X13149Y-291651D01*
X16148D01*
X18148Y-288652D02*
Y-292651D01*
X20147Y-294650D01*
X22146Y-292651D01*
Y-288652D01*
X7150Y-274650D02*
X9149D01*
X8149D01*
Y-268652D01*
X7150Y-269652D01*
X16147Y-274650D02*
X12148D01*
X16147Y-270652D01*
Y-269652D01*
X15147Y-268652D01*
X13148D01*
X12148Y-269652D01*
X18146Y-268652D02*
Y-272651D01*
X20145Y-274650D01*
X22145Y-272651D01*
Y-268652D01*
D64*
X111638Y-265588D02*
G03*
X111638Y-265588I-1969J0D01*
G01*
Y-275431D02*
G03*
X111638Y-275431I-1969J0D01*
G01*
X101402D02*
G03*
X101402Y-275431I-1969J0D01*
G01*
Y-265588D02*
G03*
X101402Y-265588I-1969J0D01*
G01*
X88583Y-255352D02*
G03*
X88583Y-255352I-1969J0D01*
G01*
X78347Y-265588D02*
G03*
X78347Y-265588I-1969J0D01*
G01*
X88583D02*
G03*
X88583Y-265588I-1969J0D01*
G01*
X179567Y-415787D02*
Y-395787D01*
X59567Y-415787D02*
Y-395787D01*
X179567D01*
X59567Y-415787D02*
X179567D01*
X247827Y-426485D02*
X270465D01*
X247827Y-455619D02*
Y-426485D01*
Y-455619D02*
X270465D01*
Y-426485D01*
X216904Y-447253D02*
X243283D01*
X216904Y-435048D02*
X243283D01*
X216904Y-447253D02*
Y-435048D01*
X243283Y-447253D02*
Y-435048D01*
X246629Y-475517D02*
X248794D01*
X246629Y-478175D02*
Y-475517D01*
Y-462722D02*
Y-460065D01*
Y-462722D02*
X248794D01*
X218873D02*
Y-460065D01*
X248794Y-462722D02*
Y-460065D01*
X218873Y-478175D02*
Y-475517D01*
X248794Y-478175D02*
Y-475517D01*
X218873Y-460065D02*
X248794D01*
X218873Y-478175D02*
X248794D01*
X191100Y-454642D02*
X194644D01*
X186376Y-449918D02*
X191100Y-454642D01*
X207636D02*
X212360Y-449918D01*
X204093Y-454642D02*
X207636D01*
X186376Y-449918D02*
Y-428658D01*
X194644D01*
X204093D02*
X212360D01*
Y-449918D02*
Y-428658D01*
X41410Y-181056D02*
X44559D01*
X41410D02*
Y-178005D01*
Y-169245D02*
X44559D01*
X41410Y-172296D02*
Y-169245D01*
X41394Y-206056D02*
X44543D01*
X41394D02*
Y-203005D01*
Y-194245D02*
X44543D01*
X41394Y-197296D02*
Y-194245D01*
X39150Y-245121D02*
X59150D01*
X39150Y-215121D02*
X59150D01*
Y-245121D02*
Y-215121D01*
X39150Y-245121D02*
Y-215121D01*
Y-245121D02*
Y-225954D01*
X23874Y-222697D02*
Y-205621D01*
X10488Y-229243D02*
X23874D01*
X10488Y-203062D02*
X21315D01*
X10488Y-229243D02*
Y-203062D01*
X21315D02*
X23874Y-205621D01*
Y-229243D02*
Y-222697D01*
Y-194137D02*
Y-177061D01*
X10488Y-200683D02*
X23874D01*
X10488Y-174502D02*
X21315D01*
X10488Y-200683D02*
Y-174502D01*
X21315D02*
X23874Y-177061D01*
Y-200683D02*
Y-194137D01*
Y-165577D02*
Y-148501D01*
X10488Y-172123D02*
X23874D01*
X10488Y-145942D02*
X21315D01*
X10488Y-172123D02*
Y-145942D01*
X21315D02*
X23874Y-148501D01*
Y-172123D02*
Y-165577D01*
X23874Y-136814D02*
Y-119737D01*
X10488Y-143359D02*
X23874D01*
X10488Y-117178D02*
X21315D01*
X10488Y-143359D02*
Y-117178D01*
X21315D02*
X23874Y-119737D01*
Y-143359D02*
Y-136814D01*
X23874Y-108235D02*
Y-91158D01*
X10488Y-114780D02*
X23874D01*
X10488Y-88599D02*
X21315D01*
X10488Y-114780D02*
Y-88599D01*
X21315D02*
X23874Y-91158D01*
Y-114780D02*
Y-108235D01*
Y-79675D02*
Y-62598D01*
X10488Y-86220D02*
X23874D01*
X10488Y-60039D02*
X21315D01*
X10488Y-86220D02*
Y-60039D01*
X21315D02*
X23874Y-62598D01*
Y-86220D02*
Y-79675D01*
X48669Y-66237D02*
Y-65450D01*
X53394Y-72536D02*
X64024D01*
Y-70174D01*
X53394Y-59151D02*
X64024D01*
Y-61513D02*
Y-59151D01*
X38455Y19722D02*
Y52399D01*
X23888D02*
X38455D01*
X-2097D02*
X12471D01*
X-2097Y19722D02*
Y52399D01*
X23888Y11847D02*
X30581D01*
X38455Y19722D01*
X-2097D02*
X5778Y11847D01*
X12471D01*
X201655Y-117278D02*
Y-114128D01*
X185907Y-117278D02*
Y-114128D01*
X182740Y-167327D02*
Y-122052D01*
X149276Y-167288D02*
X182740D01*
X149276D02*
Y-122052D01*
X149276Y-122052D01*
X182740D01*
X251559Y-109020D02*
X302740D01*
X251559Y-180280D02*
Y-109020D01*
Y-180280D02*
X302740D01*
Y-109020D01*
X95931Y-283100D02*
X95275Y-282444D01*
X93963D01*
X93307Y-283100D01*
Y-283756D01*
X93963Y-284412D01*
X95275D01*
X95931Y-285068D01*
Y-285723D01*
X95275Y-286380D01*
X93963D01*
X93307Y-285723D01*
X99211Y-286380D02*
X97899D01*
X97243Y-285723D01*
Y-284412D01*
X97899Y-283756D01*
X99211D01*
X99867Y-284412D01*
Y-285068D01*
X97243D01*
X101179Y-286380D02*
Y-283756D01*
X103147D01*
X103802Y-284412D01*
Y-286380D01*
X105114D02*
X107082D01*
X107738Y-285723D01*
X107082Y-285068D01*
X105770D01*
X105114Y-284412D01*
X105770Y-283756D01*
X107738D01*
X109706Y-286380D02*
X111018D01*
X111674Y-285723D01*
Y-284412D01*
X111018Y-283756D01*
X109706D01*
X109050Y-284412D01*
Y-285723D01*
X109706Y-286380D01*
X112986Y-283756D02*
Y-286380D01*
Y-285068D01*
X113642Y-284412D01*
X114298Y-283756D01*
X114954D01*
X93963Y-292992D02*
Y-289712D01*
Y-291024D01*
X93307D01*
X94619D01*
X93963D01*
Y-289712D01*
X94619Y-289056D01*
X96587Y-290368D02*
Y-292336D01*
X97243Y-292992D01*
X99211D01*
Y-290368D01*
X100523Y-292992D02*
X102490D01*
X103146Y-292336D01*
X102490Y-291680D01*
X101179D01*
X100523Y-291024D01*
X101179Y-290368D01*
X103146D01*
X104458Y-292992D02*
X105770D01*
X105114D01*
Y-290368D01*
X104458D01*
X108394Y-292992D02*
X109706D01*
X110362Y-292336D01*
Y-291024D01*
X109706Y-290368D01*
X108394D01*
X107738Y-291024D01*
Y-292336D01*
X108394Y-292992D01*
X111674D02*
Y-290368D01*
X113642D01*
X114298Y-291024D01*
Y-292992D01*
X73096Y-60318D02*
X70472D01*
Y-62286D01*
X71784Y-61630D01*
X72440D01*
X73096Y-62286D01*
Y-63598D01*
X72440Y-64253D01*
X71128D01*
X70472Y-63598D01*
X74408Y-60318D02*
Y-62942D01*
X75720Y-64253D01*
X77032Y-62942D01*
Y-60318D01*
X70472Y-66930D02*
X73096D01*
X71784D01*
Y-70866D01*
X74408Y-68242D02*
Y-70866D01*
Y-69554D01*
X75064Y-68898D01*
X75720Y-68242D01*
X76376D01*
X78344Y-70866D02*
X79656D01*
X79000D01*
Y-68242D01*
X78344D01*
X81624Y-70866D02*
Y-68242D01*
X82280D01*
X82936Y-68898D01*
Y-70866D01*
Y-68898D01*
X83592Y-68242D01*
X84247Y-68898D01*
Y-70866D01*
X76378Y-282365D02*
X77690D01*
X77034D01*
Y-286301D01*
X76378D01*
X77690D01*
X82282D02*
X79658D01*
X82282Y-283677D01*
Y-283021D01*
X81626Y-282365D01*
X80314D01*
X79658Y-283021D01*
X86217D02*
X85561Y-282365D01*
X84249D01*
X83593Y-283021D01*
Y-285645D01*
X84249Y-286301D01*
X85561D01*
X86217Y-285645D01*
X76378Y-288978D02*
Y-292913D01*
X78346D01*
X79002Y-292257D01*
Y-291601D01*
Y-290946D01*
X78346Y-290290D01*
X76378D01*
X80314D02*
Y-292257D01*
X80970Y-292913D01*
X82938D01*
Y-290290D01*
X84249Y-292913D02*
X86217D01*
X86873Y-292257D01*
X86217Y-291601D01*
X84905D01*
X84249Y-290946D01*
X84905Y-290290D01*
X86873D01*
X84644Y-235253D02*
X83333D01*
X83988D01*
Y-238533D01*
X83333Y-239189D01*
X82677D01*
X82021Y-238533D01*
X85956Y-236565D02*
Y-238533D01*
X86612Y-239189D01*
X88580D01*
Y-236565D01*
X89892Y-239189D02*
Y-236565D01*
X90548D01*
X91204Y-237221D01*
Y-239189D01*
Y-237221D01*
X91860Y-236565D01*
X92516Y-237221D01*
Y-239189D01*
X93828Y-240501D02*
Y-236565D01*
X95796D01*
X96452Y-237221D01*
Y-238533D01*
X95796Y-239189D01*
X93828D01*
X99731D02*
X98419D01*
X97764Y-238533D01*
Y-237221D01*
X98419Y-236565D01*
X99731D01*
X100387Y-237221D01*
Y-237877D01*
X97764D01*
X101699Y-236565D02*
Y-239189D01*
Y-237877D01*
X102355Y-237221D01*
X103011Y-236565D01*
X103667D01*
X80709Y-247113D02*
X82677D01*
X83333Y-246457D01*
X82677Y-245801D01*
X81365D01*
X80709Y-245145D01*
X81365Y-244490D01*
X83333D01*
X86612Y-247113D02*
X85300D01*
X84644Y-246457D01*
Y-245145D01*
X85300Y-244490D01*
X86612D01*
X87268Y-245145D01*
Y-245801D01*
X84644D01*
X89236Y-243833D02*
Y-244490D01*
X88580D01*
X89892D01*
X89236D01*
Y-246457D01*
X89892Y-247113D01*
X92516Y-243833D02*
Y-244490D01*
X91860D01*
X93172D01*
X92516D01*
Y-246457D01*
X93172Y-247113D01*
X95140D02*
X96452D01*
X95796D01*
Y-244490D01*
X95140D01*
X98419Y-247113D02*
Y-244490D01*
X100387D01*
X101043Y-245145D01*
Y-247113D01*
X103667Y-248425D02*
X104323D01*
X104979Y-247769D01*
Y-244490D01*
X103011D01*
X102355Y-245145D01*
Y-246457D01*
X103011Y-247113D01*
X104979D01*
X-1969Y-45669D02*
X-657D01*
X-1312D01*
Y-41734D01*
X-1969Y-42390D01*
X3935Y-45669D02*
X1311D01*
X3935Y-43045D01*
Y-42390D01*
X3279Y-41734D01*
X1967D01*
X1311Y-42390D01*
X5247Y-41734D02*
Y-44357D01*
X6559Y-45669D01*
X7871Y-44357D01*
Y-41734D01*
X13118D02*
X14430D01*
X13774D01*
Y-45669D01*
X13118D01*
X14430D01*
X16398D02*
Y-43045D01*
X18366D01*
X19022Y-43701D01*
Y-45669D01*
X141996Y-150394D02*
X141340Y-149738D01*
Y-148426D01*
X141996Y-147770D01*
X142652D01*
X143308Y-148426D01*
Y-149082D01*
Y-148426D01*
X143964Y-147770D01*
X144620D01*
X145276Y-148426D01*
Y-149738D01*
X144620Y-150394D01*
X141340Y-146458D02*
X143964D01*
X145276Y-145146D01*
X143964Y-143834D01*
X141340D01*
X141996Y-142522D02*
X141340Y-141866D01*
Y-140554D01*
X141996Y-139898D01*
X142652D01*
X143308Y-140554D01*
Y-141210D01*
Y-140554D01*
X143964Y-139898D01*
X144620D01*
X145276Y-140554D01*
Y-141866D01*
X144620Y-142522D01*
X252756Y-421391D02*
X253412Y-422047D01*
X254724D01*
X255380Y-421391D01*
Y-418767D01*
X254724Y-418112D01*
X253412D01*
X252756Y-418767D01*
Y-419423D01*
X253412Y-420079D01*
X255380D01*
X256692Y-418112D02*
Y-420735D01*
X258004Y-422047D01*
X259315Y-420735D01*
Y-418112D01*
X260627D02*
Y-422047D01*
X262595D01*
X263251Y-421391D01*
Y-418767D01*
X262595Y-418112D01*
X260627D01*
X267187Y-418767D02*
X266531Y-418112D01*
X265219D01*
X264563Y-418767D01*
Y-421391D01*
X265219Y-422047D01*
X266531D01*
X267187Y-421391D01*
X299606Y144095D02*
X295671D01*
Y146062D01*
X296326Y146718D01*
X297638D01*
X298294Y146062D01*
Y144095D01*
Y145406D02*
X299606Y146718D01*
Y149998D02*
Y148686D01*
X298950Y148030D01*
X297638D01*
X296983Y148686D01*
Y149998D01*
X297638Y150654D01*
X298294D01*
Y148030D01*
X296983Y151966D02*
X299606Y153278D01*
X296983Y154590D01*
X299606Y155902D02*
Y157214D01*
Y156558D01*
X296983D01*
Y155902D01*
X299606Y159181D02*
Y161149D01*
X298950Y161805D01*
X298294Y161149D01*
Y159837D01*
X297638Y159181D01*
X296983Y159837D01*
Y161805D01*
X299606Y163117D02*
Y164429D01*
Y163773D01*
X296983D01*
Y163117D01*
X299606Y167053D02*
Y168365D01*
X298950Y169021D01*
X297638D01*
X296983Y168365D01*
Y167053D01*
X297638Y166397D01*
X298950D01*
X299606Y167053D01*
Y170333D02*
X296983D01*
Y172301D01*
X297638Y172957D01*
X299606D01*
Y178204D02*
Y179516D01*
Y178860D01*
X295671D01*
X296326Y178204D01*
X299606Y181484D02*
X298950D01*
Y182140D01*
X299606D01*
Y181484D01*
X296326Y184764D02*
X295671Y185420D01*
Y186732D01*
X296326Y187388D01*
X298950D01*
X299606Y186732D01*
Y185420D01*
X298950Y184764D01*
X296326D01*
X56693Y-413386D02*
X58005D01*
X57349D01*
Y-409450D01*
X56693Y-410106D01*
X56299Y-349213D02*
X57611D01*
X56955D01*
Y-345277D01*
X56299Y-345933D01*
D65*
X217594Y-452666D02*
G03*
X217594Y-452666I-492J0D01*
G01*
X251846Y-476108D02*
G03*
X251846Y-476108I-492J0D01*
G01*
X49185Y-182335D02*
G03*
X49185Y-182335I-492J0D01*
G01*
X49169Y-207335D02*
G03*
X49169Y-207335I-492J0D01*
G01*
D66*
X151155Y25802D02*
X151255D01*
X151055Y25902D02*
X151155D01*
X151055Y26002D02*
X151155D01*
X150955Y26102D02*
X151155D01*
X150855Y26202D02*
X151155D01*
X150755Y26302D02*
X151055D01*
X150755Y26402D02*
X151055D01*
X150655Y26502D02*
X151055D01*
X198155Y26602D02*
X198955D01*
X150555D02*
X150955D01*
X197755Y26702D02*
X199355D01*
X195555D02*
X196355D01*
X193555D02*
X194255D01*
X191255D02*
X191955D01*
X188855D02*
X189655D01*
X186855D02*
X187555D01*
X150455D02*
X150955D01*
X197655Y26802D02*
X199455D01*
X195555D02*
X196355D01*
X193555D02*
X194255D01*
X191255D02*
X191955D01*
X188855D02*
X189655D01*
X186855D02*
X187555D01*
X150355D02*
X150955D01*
X197555Y26902D02*
X199655D01*
X195455D02*
X196355D01*
X193555D02*
X194255D01*
X191255D02*
X191955D01*
X188755D02*
X189655D01*
X186855D02*
X187555D01*
X150355D02*
X150855D01*
X197455Y27002D02*
X199755D01*
X195355D02*
X196355D01*
X193555D02*
X194255D01*
X191255D02*
X191955D01*
X188655D02*
X189655D01*
X186855D02*
X187555D01*
X150255D02*
X150855D01*
X197355Y27102D02*
X199755D01*
X195355D02*
X196355D01*
X193555D02*
X194255D01*
X191255D02*
X191955D01*
X188655D02*
X189655D01*
X186855D02*
X187555D01*
X150155D02*
X150855D01*
X198755Y27202D02*
X199855D01*
X197355D02*
X198355D01*
X195255D02*
X196355D01*
X193555D02*
X194255D01*
X191255D02*
X191955D01*
X188555D02*
X189655D01*
X186855D02*
X187555D01*
X150055D02*
X150855D01*
X199055Y27302D02*
X199855D01*
X197255D02*
X198155D01*
X195255D02*
X196355D01*
X193555D02*
X194255D01*
X191255D02*
X191955D01*
X188455D02*
X189655D01*
X186855D02*
X187555D01*
X149955D02*
X150755D01*
X199155Y27402D02*
X199855D01*
X197255D02*
X198055D01*
X195155D02*
X196355D01*
X193555D02*
X194255D01*
X191255D02*
X191955D01*
X188455D02*
X189655D01*
X186855D02*
X187555D01*
X149955D02*
X150755D01*
X199155Y27502D02*
X199855D01*
X197255D02*
X197955D01*
X195055D02*
X196355D01*
X193555D02*
X194255D01*
X191255D02*
X191955D01*
X188355D02*
X189655D01*
X186855D02*
X187555D01*
X149855D02*
X150755D01*
X199155Y27602D02*
X199955D01*
X197255D02*
X197955D01*
X195055D02*
X196355D01*
X193555D02*
X194255D01*
X191255D02*
X191955D01*
X188355D02*
X189655D01*
X186855D02*
X187555D01*
X149755D02*
X150655D01*
X199255Y27702D02*
X199955D01*
X197255D02*
X197955D01*
X194955D02*
X196355D01*
X193555D02*
X194255D01*
X191255D02*
X191955D01*
X188255D02*
X189655D01*
X186855D02*
X187555D01*
X149655D02*
X150655D01*
X199255Y27802D02*
X199955D01*
X197255D02*
X197955D01*
X194855D02*
X196355D01*
X193555D02*
X194255D01*
X191255D02*
X191955D01*
X188255D02*
X189655D01*
X186855D02*
X187555D01*
X149655D02*
X150655D01*
X199255Y27902D02*
X199955D01*
X197255D02*
X197955D01*
X195655D02*
X196355D01*
X194855D02*
X195555D01*
X193555D02*
X194255D01*
X191255D02*
X191955D01*
X188955D02*
X189655D01*
X188155D02*
X188855D01*
X186855D02*
X187555D01*
X149555D02*
X150555D01*
X199255Y28002D02*
X199955D01*
X197255D02*
X197855D01*
X195655D02*
X196355D01*
X194755D02*
X195555D01*
X193555D02*
X194255D01*
X191255D02*
X191955D01*
X188955D02*
X189655D01*
X188055D02*
X188855D01*
X186855D02*
X187555D01*
X149455D02*
X150555D01*
X199255Y28102D02*
X199955D01*
X197255D02*
X197855D01*
X195655D02*
X196355D01*
X194755D02*
X195455D01*
X193555D02*
X194255D01*
X191255D02*
X191955D01*
X188955D02*
X189655D01*
X188055D02*
X188755D01*
X186855D02*
X187555D01*
X149355D02*
X150555D01*
X199255Y28202D02*
X199955D01*
X197155D02*
X197855D01*
X195655D02*
X196355D01*
X194655D02*
X195455D01*
X193555D02*
X194255D01*
X191255D02*
X191955D01*
X188955D02*
X189655D01*
X187955D02*
X188755D01*
X186855D02*
X187555D01*
X149255D02*
X150555D01*
X199255Y28302D02*
X199955D01*
X197155D02*
X197855D01*
X195655D02*
X196355D01*
X194555D02*
X195355D01*
X193555D02*
X194255D01*
X191255D02*
X191955D01*
X188955D02*
X189655D01*
X187855D02*
X188655D01*
X186855D02*
X187555D01*
X149255D02*
X150455D01*
X199255Y28402D02*
X199955D01*
X197155D02*
X197855D01*
X195655D02*
X196355D01*
X194555D02*
X195255D01*
X193555D02*
X194255D01*
X191255D02*
X191955D01*
X188955D02*
X189655D01*
X187855D02*
X188655D01*
X186855D02*
X187555D01*
X149155D02*
X150455D01*
X199255Y28502D02*
X199955D01*
X197155D02*
X197855D01*
X195655D02*
X196355D01*
X194455D02*
X195255D01*
X193555D02*
X194255D01*
X191255D02*
X191955D01*
X188955D02*
X189655D01*
X187755D02*
X188555D01*
X186855D02*
X187555D01*
X149055D02*
X150455D01*
X199255Y28602D02*
X199955D01*
X197155D02*
X197855D01*
X195655D02*
X196355D01*
X194355D02*
X195155D01*
X193555D02*
X194255D01*
X191255D02*
X191955D01*
X188955D02*
X189655D01*
X187655D02*
X188455D01*
X186855D02*
X187555D01*
X148955D02*
X150355D01*
X199255Y28702D02*
X199955D01*
X197155D02*
X197855D01*
X195655D02*
X196355D01*
X194355D02*
X195155D01*
X193555D02*
X194255D01*
X191255D02*
X191955D01*
X188955D02*
X189655D01*
X187655D02*
X188455D01*
X186855D02*
X187555D01*
X148955D02*
X150355D01*
X199255Y28802D02*
X199955D01*
X197155D02*
X197855D01*
X195655D02*
X196355D01*
X193555D02*
X195055D01*
X191255D02*
X191955D01*
X188955D02*
X189655D01*
X186855D02*
X188355D01*
X148855D02*
X150355D01*
X199255Y28902D02*
X199955D01*
X197155D02*
X197855D01*
X195655D02*
X196355D01*
X193555D02*
X194955D01*
X191255D02*
X191955D01*
X188955D02*
X189655D01*
X186855D02*
X188255D01*
X148755D02*
X150255D01*
X199255Y29002D02*
X199955D01*
X197155D02*
X197855D01*
X195655D02*
X196355D01*
X193555D02*
X194955D01*
X191255D02*
X191955D01*
X188955D02*
X189655D01*
X186855D02*
X188255D01*
X148655D02*
X150255D01*
X199255Y29102D02*
X199955D01*
X197155D02*
X197855D01*
X195655D02*
X196355D01*
X193555D02*
X194855D01*
X191255D02*
X191955D01*
X188955D02*
X189655D01*
X186855D02*
X188155D01*
X148555D02*
X150255D01*
X199255Y29202D02*
X199955D01*
X197155D02*
X197855D01*
X195655D02*
X196355D01*
X193555D02*
X194755D01*
X191255D02*
X191955D01*
X188955D02*
X189655D01*
X186855D02*
X188055D01*
X148555D02*
X150255D01*
X199255Y29302D02*
X199955D01*
X197155D02*
X197855D01*
X195655D02*
X196355D01*
X193555D02*
X194755D01*
X191255D02*
X191955D01*
X188955D02*
X189655D01*
X186855D02*
X188055D01*
X148455D02*
X150155D01*
X199255Y29402D02*
X199955D01*
X197155D02*
X197855D01*
X195655D02*
X196355D01*
X193555D02*
X194655D01*
X191255D02*
X191955D01*
X188955D02*
X189655D01*
X186855D02*
X187955D01*
X148355D02*
X150155D01*
X199255Y29502D02*
X199955D01*
X197155D02*
X197855D01*
X195655D02*
X196355D01*
X193555D02*
X194655D01*
X190255D02*
X192955D01*
X188955D02*
X189655D01*
X186855D02*
X187955D01*
X148255D02*
X150155D01*
X199255Y29602D02*
X199955D01*
X197155D02*
X197855D01*
X195655D02*
X196355D01*
X193555D02*
X194555D01*
X190255D02*
X192955D01*
X188955D02*
X189655D01*
X186855D02*
X187855D01*
X168655D02*
X169655D01*
X148155D02*
X150055D01*
X199255Y29702D02*
X199955D01*
X197155D02*
X197855D01*
X195655D02*
X196355D01*
X193555D02*
X194455D01*
X190255D02*
X192955D01*
X188955D02*
X189655D01*
X186855D02*
X187855D01*
X168155D02*
X170155D01*
X148155D02*
X150055D01*
X199255Y29802D02*
X201255D01*
X197155D02*
X197855D01*
X194555D02*
X196355D01*
X188155D02*
X194455D01*
X186855D02*
X187755D01*
X183355D02*
X184855D01*
X178755D02*
X180655D01*
X174055D02*
X175655D01*
X167755D02*
X170555D01*
X160655D02*
X162355D01*
X148055D02*
X150055D01*
X199255Y29902D02*
X201255D01*
X197155D02*
X197855D01*
X194555D02*
X196455D01*
X188155D02*
X194355D01*
X186855D02*
X187655D01*
X183355D02*
X184855D01*
X178755D02*
X180555D01*
X174055D02*
X175655D01*
X167555D02*
X170755D01*
X160655D02*
X162455D01*
X147955D02*
X149955D01*
X199255Y30002D02*
X201155D01*
X197155D02*
X197855D01*
X194655D02*
X196555D01*
X188155D02*
X194255D01*
X186855D02*
X187655D01*
X183355D02*
X184855D01*
X178655D02*
X180455D01*
X174055D02*
X175655D01*
X167355D02*
X170955D01*
X160555D02*
X162455D01*
X147855D02*
X149955D01*
X199255Y30102D02*
X201055D01*
X194755D02*
X196555D01*
X188155D02*
X193755D01*
X183355D02*
X184855D01*
X178555D02*
X180455D01*
X174055D02*
X175655D01*
X167155D02*
X171155D01*
X160555D02*
X162455D01*
X147755D02*
X149955D01*
X199155Y30202D02*
X200955D01*
X194755D02*
X196655D01*
X188155D02*
X193755D01*
X183355D02*
X184855D01*
X178555D02*
X180355D01*
X174055D02*
X175655D01*
X166955D02*
X171255D01*
X160555D02*
X162555D01*
X147755D02*
X149855D01*
X199055Y30302D02*
X200955D01*
X194855D02*
X196755D01*
X188155D02*
X193755D01*
X183355D02*
X184855D01*
X178455D02*
X180355D01*
X174055D02*
X175655D01*
X166855D02*
X171455D01*
X160455D02*
X162555D01*
X147655D02*
X149855D01*
X199055Y30402D02*
X200855D01*
X194955D02*
X196755D01*
X188155D02*
X193755D01*
X183355D02*
X184855D01*
X178355D02*
X180255D01*
X174055D02*
X175655D01*
X166755D02*
X171555D01*
X160455D02*
X162555D01*
X147555D02*
X149855D01*
X198955Y30502D02*
X200855D01*
X194955D02*
X196855D01*
X188155D02*
X193755D01*
X183355D02*
X184855D01*
X178355D02*
X180155D01*
X174055D02*
X175655D01*
X166655D02*
X171655D01*
X160455D02*
X162655D01*
X147455D02*
X149855D01*
X198855Y30602D02*
X200755D01*
X195055D02*
X196955D01*
X188155D02*
X193755D01*
X183355D02*
X184855D01*
X178255D02*
X180155D01*
X174055D02*
X175655D01*
X166555D02*
X171755D01*
X160355D02*
X162655D01*
X147355D02*
X149755D01*
X198855Y30702D02*
X200655D01*
X195155D02*
X196955D01*
X188155D02*
X193755D01*
X183355D02*
X184855D01*
X178155D02*
X180055D01*
X174055D02*
X175655D01*
X166455D02*
X171855D01*
X160355D02*
X162655D01*
X147355D02*
X149755D01*
X198755Y30802D02*
X200655D01*
X195155D02*
X197055D01*
X188155D02*
X193755D01*
X183355D02*
X184855D01*
X178155D02*
X179955D01*
X174055D02*
X175655D01*
X166355D02*
X171955D01*
X160355D02*
X162755D01*
X147255D02*
X149755D01*
X198655Y30902D02*
X200555D01*
X195255D02*
X197055D01*
X188155D02*
X193755D01*
X183355D02*
X184855D01*
X178055D02*
X179955D01*
X174055D02*
X175655D01*
X166255D02*
X171955D01*
X160255D02*
X162755D01*
X147155D02*
X149655D01*
X198655Y31002D02*
X200455D01*
X195355D02*
X197155D01*
X188155D02*
X193755D01*
X183355D02*
X184855D01*
X177955D02*
X179855D01*
X174055D02*
X175655D01*
X169755D02*
X172055D01*
X166255D02*
X168555D01*
X160255D02*
X162755D01*
X147055D02*
X149655D01*
X198555Y31102D02*
X200455D01*
X195355D02*
X197255D01*
X188155D02*
X189755D01*
X183355D02*
X184855D01*
X177955D02*
X179855D01*
X174055D02*
X175655D01*
X169955D02*
X172155D01*
X166155D02*
X168355D01*
X160155D02*
X162855D01*
X147055D02*
X149655D01*
X198455Y31202D02*
X200355D01*
X195455D02*
X197355D01*
X188155D02*
X189755D01*
X183355D02*
X184855D01*
X177855D02*
X179755D01*
X174055D02*
X175655D01*
X170155D02*
X172155D01*
X166055D02*
X168155D01*
X160155D02*
X162855D01*
X146955D02*
X149655D01*
X198455Y31302D02*
X200255D01*
X195555D02*
X197355D01*
X188155D02*
X189755D01*
X183355D02*
X184855D01*
X177755D02*
X179655D01*
X174055D02*
X175655D01*
X170255D02*
X172255D01*
X166055D02*
X168055D01*
X160155D02*
X162955D01*
X146855D02*
X149555D01*
X198355Y31402D02*
X200255D01*
X195555D02*
X197455D01*
X188155D02*
X189755D01*
X183355D02*
X184855D01*
X177755D02*
X179655D01*
X174055D02*
X175655D01*
X170455D02*
X172255D01*
X165955D02*
X167855D01*
X160055D02*
X162955D01*
X146755D02*
X149555D01*
X198255Y31502D02*
X200155D01*
X195655D02*
X197455D01*
X188155D02*
X189755D01*
X183355D02*
X184855D01*
X177655D02*
X179555D01*
X174055D02*
X175655D01*
X170555D02*
X172355D01*
X165955D02*
X167755D01*
X160055D02*
X162955D01*
X146655D02*
X149555D01*
X198255Y31602D02*
X200055D01*
X195755D02*
X197555D01*
X188155D02*
X189755D01*
X183355D02*
X184855D01*
X177555D02*
X179455D01*
X174055D02*
X175655D01*
X170555D02*
X172355D01*
X165855D02*
X167655D01*
X160055D02*
X163055D01*
X146655D02*
X149455D01*
X198155Y31702D02*
X200055D01*
X195755D02*
X197655D01*
X188155D02*
X189755D01*
X183355D02*
X184855D01*
X177555D02*
X179455D01*
X174055D02*
X175655D01*
X170655D02*
X172455D01*
X165855D02*
X167655D01*
X160055D02*
X163055D01*
X146555D02*
X149455D01*
X198055Y31802D02*
X199955D01*
X195855D02*
X197655D01*
X188155D02*
X189755D01*
X183355D02*
X184855D01*
X177455D02*
X179355D01*
X174055D02*
X175655D01*
X170755D02*
X172455D01*
X165855D02*
X167555D01*
X159955D02*
X163055D01*
X146455D02*
X149455D01*
X198055Y31902D02*
X199855D01*
X195955D02*
X197755D01*
X188155D02*
X189755D01*
X183355D02*
X184855D01*
X177355D02*
X179255D01*
X174055D02*
X175655D01*
X170755D02*
X172455D01*
X165855D02*
X167555D01*
X159955D02*
X163155D01*
X146355D02*
X149355D01*
X197955Y32002D02*
X199855D01*
X195955D02*
X197855D01*
X188155D02*
X189755D01*
X183355D02*
X184855D01*
X177255D02*
X179255D01*
X174055D02*
X175655D01*
X170855D02*
X172555D01*
X165755D02*
X167455D01*
X161655D02*
X163155D01*
X159855D02*
X161455D01*
X146255D02*
X149355D01*
X197955Y32102D02*
X199755D01*
X196055D02*
X197855D01*
X188155D02*
X189755D01*
X183355D02*
X184855D01*
X177255D02*
X179155D01*
X174055D02*
X175655D01*
X170855D02*
X172555D01*
X165755D02*
X167455D01*
X161655D02*
X163155D01*
X159855D02*
X161455D01*
X146255D02*
X149355D01*
X196155Y32202D02*
X199655D01*
X188155D02*
X189755D01*
X183355D02*
X184855D01*
X177155D02*
X179055D01*
X174055D02*
X175655D01*
X170955D02*
X172555D01*
X165755D02*
X167355D01*
X161755D02*
X163255D01*
X159855D02*
X161455D01*
X146155D02*
X149255D01*
X196155Y32302D02*
X199655D01*
X188155D02*
X189755D01*
X183355D02*
X184855D01*
X177055D02*
X178955D01*
X174055D02*
X175655D01*
X170955D02*
X172555D01*
X165655D02*
X167355D01*
X161755D02*
X163255D01*
X159755D02*
X161355D01*
X146055D02*
X149255D01*
X196255Y32402D02*
X199555D01*
X188155D02*
X189755D01*
X183355D02*
X184855D01*
X176955D02*
X178955D01*
X174055D02*
X175655D01*
X170955D02*
X172655D01*
X165655D02*
X167355D01*
X161755D02*
X163355D01*
X159755D02*
X161355D01*
X145955D02*
X149255D01*
X196255Y32502D02*
X199455D01*
X188155D02*
X189755D01*
X183355D02*
X184855D01*
X176855D02*
X178855D01*
X174055D02*
X175655D01*
X170955D02*
X172655D01*
X165655D02*
X167255D01*
X161755D02*
X163355D01*
X159755D02*
X161355D01*
X145955D02*
X149255D01*
X196355Y32602D02*
X199455D01*
X188155D02*
X189755D01*
X183355D02*
X184855D01*
X176655D02*
X178655D01*
X174055D02*
X175655D01*
X171055D02*
X172655D01*
X165655D02*
X167255D01*
X161855D02*
X163355D01*
X159655D02*
X161255D01*
X145855D02*
X149155D01*
X196455Y32702D02*
X199355D01*
X188155D02*
X189755D01*
X183355D02*
X184855D01*
X176355D02*
X178555D01*
X174055D02*
X175655D01*
X171055D02*
X172655D01*
X165655D02*
X167255D01*
X161855D02*
X163355D01*
X159655D02*
X161255D01*
X145755D02*
X149155D01*
X196555Y32802D02*
X199255D01*
X188155D02*
X189755D01*
X183355D02*
X184855D01*
X174055D02*
X178455D01*
X171055D02*
X172655D01*
X165655D02*
X167255D01*
X161955D02*
X163455D01*
X159655D02*
X161255D01*
X145655D02*
X149155D01*
X196555Y32902D02*
X199255D01*
X188155D02*
X193355D01*
X183355D02*
X184855D01*
X174055D02*
X178255D01*
X171055D02*
X172655D01*
X165655D02*
X167255D01*
X161955D02*
X163455D01*
X159555D02*
X161155D01*
X145555D02*
X149055D01*
X196655Y33002D02*
X199155D01*
X188155D02*
X193355D01*
X183355D02*
X184855D01*
X174055D02*
X178655D01*
X171055D02*
X172655D01*
X165655D02*
X167255D01*
X161955D02*
X163555D01*
X159555D02*
X161155D01*
X145555D02*
X149055D01*
X196655Y33102D02*
X199055D01*
X188155D02*
X193355D01*
X183355D02*
X184855D01*
X174055D02*
X178855D01*
X171055D02*
X172655D01*
X165655D02*
X167255D01*
X161955D02*
X163555D01*
X159455D02*
X161155D01*
X145455D02*
X149055D01*
X196755Y33202D02*
X199055D01*
X188155D02*
X193355D01*
X183355D02*
X184855D01*
X174055D02*
X179055D01*
X171055D02*
X172655D01*
X165655D02*
X167255D01*
X162055D02*
X163555D01*
X159455D02*
X161055D01*
X145355D02*
X149055D01*
X196855Y33302D02*
X198955D01*
X188155D02*
X193355D01*
X183355D02*
X184855D01*
X174055D02*
X179255D01*
X171055D02*
X172655D01*
X165655D02*
X167255D01*
X162055D02*
X163655D01*
X159455D02*
X161055D01*
X145255D02*
X148955D01*
X196855Y33402D02*
X198855D01*
X188155D02*
X193355D01*
X183355D02*
X184855D01*
X174055D02*
X179355D01*
X171055D02*
X172655D01*
X165655D02*
X167255D01*
X162055D02*
X163655D01*
X159355D02*
X160955D01*
X145155D02*
X148955D01*
X196955Y33502D02*
X198855D01*
X188155D02*
X193355D01*
X183355D02*
X184855D01*
X174055D02*
X179455D01*
X171055D02*
X172655D01*
X165655D02*
X167255D01*
X162155D02*
X163655D01*
X159355D02*
X160955D01*
X145155D02*
X148955D01*
X196955Y33602D02*
X198855D01*
X188155D02*
X193355D01*
X183355D02*
X184855D01*
X174055D02*
X179555D01*
X171055D02*
X172655D01*
X165655D02*
X167255D01*
X162155D02*
X163755D01*
X159355D02*
X160955D01*
X145055D02*
X148855D01*
X196855Y33702D02*
X198955D01*
X188155D02*
X193355D01*
X183355D02*
X184855D01*
X174055D02*
X179655D01*
X171055D02*
X172655D01*
X165655D02*
X167255D01*
X162155D02*
X163755D01*
X159255D02*
X160955D01*
X144955D02*
X148855D01*
X196755Y33802D02*
X198955D01*
X188155D02*
X193355D01*
X183355D02*
X184855D01*
X174055D02*
X179755D01*
X171055D02*
X172655D01*
X165655D02*
X167255D01*
X162255D02*
X163755D01*
X159255D02*
X160855D01*
X144855D02*
X148855D01*
X196755Y33902D02*
X199055D01*
X188155D02*
X193355D01*
X183355D02*
X184855D01*
X174055D02*
X179855D01*
X171055D02*
X172655D01*
X165655D02*
X167255D01*
X162255D02*
X163855D01*
X159255D02*
X160855D01*
X144855D02*
X148755D01*
X196655Y34002D02*
X199155D01*
X188155D02*
X193355D01*
X183355D02*
X184855D01*
X177655D02*
X179855D01*
X174055D02*
X175655D01*
X171055D02*
X172655D01*
X165655D02*
X167255D01*
X162255D02*
X163855D01*
X159155D02*
X160755D01*
X144755D02*
X148755D01*
X196555Y34102D02*
X199155D01*
X188155D02*
X193355D01*
X183355D02*
X184855D01*
X178055D02*
X179955D01*
X174055D02*
X175655D01*
X171055D02*
X172655D01*
X165655D02*
X167255D01*
X162355D02*
X163955D01*
X159155D02*
X160755D01*
X144655D02*
X148755D01*
X196555Y34202D02*
X199255D01*
X188155D02*
X189755D01*
X183355D02*
X184855D01*
X178255D02*
X179955D01*
X174055D02*
X175655D01*
X171055D02*
X172655D01*
X165655D02*
X167255D01*
X162355D02*
X163955D01*
X159055D02*
X160755D01*
X144555D02*
X148755D01*
X196455Y34302D02*
X199355D01*
X188155D02*
X189755D01*
X183355D02*
X184855D01*
X178355D02*
X179955D01*
X174055D02*
X175655D01*
X170955D02*
X172655D01*
X165655D02*
X167255D01*
X162355D02*
X163955D01*
X159055D02*
X160655D01*
X144455D02*
X148655D01*
X196455Y34402D02*
X199355D01*
X188155D02*
X189755D01*
X183355D02*
X184855D01*
X178355D02*
X180055D01*
X174055D02*
X175655D01*
X170955D02*
X172555D01*
X165655D02*
X167355D01*
X162455D02*
X164055D01*
X159055D02*
X160655D01*
X144455D02*
X148655D01*
X196355Y34502D02*
X199455D01*
X188155D02*
X189755D01*
X183355D02*
X184855D01*
X178455D02*
X180055D01*
X174055D02*
X175655D01*
X170955D02*
X172555D01*
X165755D02*
X167355D01*
X162455D02*
X164055D01*
X158955D02*
X160655D01*
X144355D02*
X148655D01*
X196255Y34602D02*
X199555D01*
X188155D02*
X189755D01*
X183355D02*
X184855D01*
X178455D02*
X180055D01*
X174055D02*
X175655D01*
X170955D02*
X172555D01*
X165755D02*
X167355D01*
X162455D02*
X164055D01*
X158955D02*
X160555D01*
X144255D02*
X148555D01*
X196255Y34702D02*
X199555D01*
X188155D02*
X189755D01*
X183355D02*
X184855D01*
X178455D02*
X180055D01*
X174055D02*
X175655D01*
X170855D02*
X172555D01*
X165755D02*
X167455D01*
X162555D02*
X164155D01*
X158955D02*
X160555D01*
X144155D02*
X148555D01*
X196155Y34802D02*
X199655D01*
X188155D02*
X189755D01*
X183355D02*
X184855D01*
X178455D02*
X180055D01*
X174055D02*
X175655D01*
X170855D02*
X172455D01*
X165755D02*
X167455D01*
X162555D02*
X164155D01*
X158855D02*
X160555D01*
X144055D02*
X148555D01*
X196055Y34902D02*
X199755D01*
X188155D02*
X189755D01*
X183355D02*
X184855D01*
X178455D02*
X180055D01*
X174055D02*
X175655D01*
X170755D02*
X172455D01*
X165855D02*
X167555D01*
X162555D02*
X164155D01*
X158855D02*
X160455D01*
X144055D02*
X148555D01*
X197955Y35002D02*
X199755D01*
X196055D02*
X197855D01*
X188155D02*
X189755D01*
X183355D02*
X184855D01*
X178455D02*
X180055D01*
X174055D02*
X175655D01*
X170755D02*
X172455D01*
X165855D02*
X167555D01*
X162655D02*
X164255D01*
X158855D02*
X160455D01*
X143955D02*
X148455D01*
X198055Y35102D02*
X199855D01*
X195955D02*
X197755D01*
X188155D02*
X189755D01*
X183355D02*
X184855D01*
X178455D02*
X180055D01*
X174055D02*
X175655D01*
X170655D02*
X172355D01*
X165855D02*
X167655D01*
X162655D02*
X164255D01*
X158755D02*
X160455D01*
X143855D02*
X148455D01*
X198055Y35202D02*
X199955D01*
X195855D02*
X197755D01*
X188155D02*
X189755D01*
X183355D02*
X184855D01*
X178455D02*
X180055D01*
X174055D02*
X175655D01*
X170555D02*
X172355D01*
X165955D02*
X167755D01*
X162655D02*
X164255D01*
X158755D02*
X160355D01*
X143755D02*
X148455D01*
X198155Y35302D02*
X199955D01*
X195855D02*
X197655D01*
X188155D02*
X189755D01*
X183355D02*
X184855D01*
X178355D02*
X180055D01*
X174055D02*
X175655D01*
X170455D02*
X172255D01*
X165955D02*
X167855D01*
X162755D02*
X164355D01*
X158655D02*
X160355D01*
X143755D02*
X148355D01*
X198255Y35402D02*
X200055D01*
X195755D02*
X197555D01*
X188155D02*
X189755D01*
X183355D02*
X184855D01*
X178255D02*
X180055D01*
X174055D02*
X175655D01*
X170355D02*
X172255D01*
X166055D02*
X167955D01*
X162755D02*
X164355D01*
X158655D02*
X160355D01*
X143755D02*
X148355D01*
X198255Y35502D02*
X200155D01*
X195655D02*
X197455D01*
X188155D02*
X189755D01*
X183355D02*
X184855D01*
X178155D02*
X179955D01*
X174055D02*
X175655D01*
X170255D02*
X172155D01*
X166055D02*
X168055D01*
X162755D02*
X164355D01*
X158655D02*
X160255D01*
X143855D02*
X148355D01*
X198355Y35602D02*
X200155D01*
X195655D02*
X197455D01*
X188155D02*
X189755D01*
X183355D02*
X184855D01*
X178055D02*
X179955D01*
X174055D02*
X175655D01*
X170055D02*
X172155D01*
X166155D02*
X168255D01*
X162855D02*
X164455D01*
X158655D02*
X160255D01*
X143855D02*
X148255D01*
X198455Y35702D02*
X200255D01*
X195555D02*
X197355D01*
X188155D02*
X193555D01*
X181155D02*
X186955D01*
X174055D02*
X179955D01*
X169755D02*
X172055D01*
X166255D02*
X168555D01*
X162855D02*
X164455D01*
X158555D02*
X160255D01*
X143955D02*
X148255D01*
X198455Y35802D02*
X200355D01*
X195455D02*
X197355D01*
X188155D02*
X193555D01*
X181155D02*
X186955D01*
X174055D02*
X179855D01*
X169155D02*
X171955D01*
X166255D02*
X169055D01*
X162855D02*
X164455D01*
X158555D02*
X160155D01*
X144055D02*
X148255D01*
X198555Y35902D02*
X200355D01*
X195455D02*
X197255D01*
X188155D02*
X193555D01*
X181155D02*
X186955D01*
X174055D02*
X179855D01*
X166355D02*
X171955D01*
X162955D02*
X164555D01*
X158455D02*
X160155D01*
X144055D02*
X148155D01*
X198655Y36002D02*
X200455D01*
X195355D02*
X197155D01*
X188155D02*
X193555D01*
X181155D02*
X186955D01*
X174055D02*
X179855D01*
X166455D02*
X171855D01*
X162955D02*
X164555D01*
X158455D02*
X160155D01*
X144155D02*
X148155D01*
X198655Y36102D02*
X200555D01*
X195255D02*
X197155D01*
X188155D02*
X193555D01*
X181155D02*
X186955D01*
X174055D02*
X179755D01*
X166555D02*
X171755D01*
X162955D02*
X164655D01*
X158455D02*
X160055D01*
X144155D02*
X148155D01*
X198755Y36202D02*
X200555D01*
X195255D02*
X197055D01*
X188155D02*
X193555D01*
X181155D02*
X186955D01*
X174055D02*
X179655D01*
X166655D02*
X171655D01*
X163055D02*
X164655D01*
X158355D02*
X160055D01*
X144255D02*
X148155D01*
X198855Y36302D02*
X200655D01*
X195155D02*
X196955D01*
X188155D02*
X193555D01*
X181155D02*
X186955D01*
X174055D02*
X179555D01*
X166755D02*
X171555D01*
X163055D02*
X164655D01*
X158355D02*
X160055D01*
X144255D02*
X148055D01*
X198855Y36402D02*
X200755D01*
X195055D02*
X196955D01*
X188155D02*
X193555D01*
X181155D02*
X186955D01*
X174055D02*
X179555D01*
X166855D02*
X171455D01*
X163055D02*
X164755D01*
X158355D02*
X159955D01*
X144355D02*
X148055D01*
X198955Y36502D02*
X200755D01*
X195055D02*
X196855D01*
X188155D02*
X193555D01*
X181155D02*
X186955D01*
X174055D02*
X179355D01*
X166955D02*
X171255D01*
X163155D02*
X164755D01*
X158255D02*
X159955D01*
X144455D02*
X148055D01*
X199055Y36602D02*
X200855D01*
X194955D02*
X196755D01*
X188155D02*
X193555D01*
X181155D02*
X186955D01*
X174055D02*
X179255D01*
X167055D02*
X171155D01*
X163155D02*
X164755D01*
X158255D02*
X159955D01*
X144455D02*
X147955D01*
X199055Y36702D02*
X200955D01*
X194855D02*
X196755D01*
X188155D02*
X193555D01*
X181155D02*
X186955D01*
X174055D02*
X179155D01*
X167255D02*
X170955D01*
X163155D02*
X164855D01*
X158255D02*
X159855D01*
X144555D02*
X147955D01*
X199155Y36802D02*
X200955D01*
X194855D02*
X196655D01*
X188155D02*
X193555D01*
X181155D02*
X186955D01*
X174055D02*
X178955D01*
X167455D02*
X170755D01*
X163255D02*
X164855D01*
X158155D02*
X159855D01*
X144555D02*
X147955D01*
X199255Y36902D02*
X201055D01*
X194755D02*
X196555D01*
X188155D02*
X193555D01*
X181155D02*
X186955D01*
X174055D02*
X178555D01*
X167655D02*
X170555D01*
X163255D02*
X164855D01*
X158155D02*
X159855D01*
X144655D02*
X147955D01*
X199255Y37002D02*
X201055D01*
X194655D02*
X196555D01*
X188155D02*
X193555D01*
X181155D02*
X186955D01*
X174055D02*
X177755D01*
X167955D02*
X170255D01*
X163255D02*
X164955D01*
X158055D02*
X159755D01*
X144655D02*
X147855D01*
X168555Y37102D02*
X169755D01*
X144755D02*
X147855D01*
X144855Y37202D02*
X147855D01*
X144855Y37302D02*
X147755D01*
X144955Y37402D02*
X147755D01*
X144955Y37502D02*
X147755D01*
X145055Y37602D02*
X147755D01*
X145155Y37702D02*
X147755D01*
X145155Y37802D02*
X147755D01*
X145255Y37902D02*
X147755D01*
X145255Y38002D02*
X147755D01*
X145355Y38102D02*
X147755D01*
X145355Y38202D02*
X147755D01*
X145455Y38302D02*
X147755D01*
X145455Y38402D02*
X147755D01*
X145555Y38502D02*
X147755D01*
X145655Y38602D02*
X147655D01*
X145655Y38702D02*
X147655D01*
X145755Y38802D02*
X147655D01*
X145755Y38902D02*
X147655D01*
X145855Y39002D02*
X147655D01*
X145955Y39102D02*
X147655D01*
X145955Y39202D02*
X147655D01*
X146055Y39302D02*
X147655D01*
X146055Y39402D02*
X147655D01*
X146155Y39502D02*
X147655D01*
X146155Y39602D02*
X147655D01*
X146255Y39702D02*
X147655D01*
X146355Y39802D02*
X147555D01*
X146355Y39902D02*
X147555D01*
X146455Y40002D02*
X147555D01*
X146455Y40102D02*
X147555D01*
X146555Y40202D02*
X147555D01*
X146555Y40302D02*
X147555D01*
X146655Y40402D02*
X147555D01*
X146755Y40502D02*
X147555D01*
X146755Y40602D02*
X147555D01*
X146855Y40702D02*
X147555D01*
X146855Y40802D02*
X147555D01*
X146955Y40902D02*
X147555D01*
X146955Y41002D02*
X147555D01*
X147055Y41102D02*
X147555D01*
X147155Y41202D02*
X147455D01*
X147155Y41302D02*
X147455D01*
X147255Y41402D02*
X147455D01*
X147255Y41502D02*
X147455D01*
X147355Y41602D02*
X147455D01*
X147355Y41702D02*
X147455D01*
X152255Y42002D02*
X155655D01*
X148255Y42102D02*
X155655D01*
X148355Y42202D02*
X155755D01*
X148555Y42302D02*
X155755D01*
X148755Y42402D02*
X155755D01*
X148855Y42502D02*
X155755D01*
X147455D02*
X147655D01*
X149055Y42602D02*
X155855D01*
X147255D02*
X147555D01*
X149155Y42702D02*
X155855D01*
X147155D02*
X147555D01*
X149355Y42802D02*
X155955D01*
X146855D02*
X147455D01*
X149455Y42902D02*
X155955D01*
X146755D02*
X147455D01*
X149655Y43002D02*
X155955D01*
X146555D02*
X147355D01*
X149755Y43102D02*
X156055D01*
X146355D02*
X147355D01*
X149955Y43202D02*
X156055D01*
X146155D02*
X147255D01*
X150055Y43302D02*
X156055D01*
X145955D02*
X147155D01*
X150255Y43402D02*
X156155D01*
X145755D02*
X147155D01*
X150455Y43502D02*
X156155D01*
X145555D02*
X147055D01*
X150555Y43602D02*
X156255D01*
X145355D02*
X147055D01*
X150755Y43702D02*
X156255D01*
X145155D02*
X146955D01*
X150855Y43802D02*
X156255D01*
X144955D02*
X146955D01*
X151055Y43902D02*
X156355D01*
X144755D02*
X146855D01*
X151155Y44002D02*
X156355D01*
X144555D02*
X146755D01*
X151355Y44102D02*
X156355D01*
X144355D02*
X146755D01*
X151455Y44202D02*
X156455D01*
X144155D02*
X146655D01*
X151655Y44302D02*
X156455D01*
X143955D02*
X146655D01*
X151855Y44402D02*
X156455D01*
X143755D02*
X146555D01*
X151955Y44502D02*
X156555D01*
X143555D02*
X146555D01*
X152055Y44602D02*
X156555D01*
X143055D02*
X146455D01*
X152155Y44702D02*
X156555D01*
X142755D02*
X146455D01*
X152255Y44802D02*
X156655D01*
X142255D02*
X146355D01*
X152355Y44902D02*
X156655D01*
X141955D02*
X146355D01*
X152455Y45002D02*
X156755D01*
X141455D02*
X146255D01*
X152555Y45102D02*
X156755D01*
X141055D02*
X146155D01*
X152655Y45202D02*
X156755D01*
X140655D02*
X146155D01*
X152755Y45302D02*
X156855D01*
X140255D02*
X146055D01*
X152755Y45402D02*
X156855D01*
X139855D02*
X146055D01*
X152855Y45502D02*
X156855D01*
X139455D02*
X145955D01*
X152955Y45602D02*
X156955D01*
X139055D02*
X145955D01*
X153055Y45702D02*
X156955D01*
X138655D02*
X145855D01*
X153155Y45802D02*
X157055D01*
X138255D02*
X145755D01*
X153255Y45902D02*
X157055D01*
X137855D02*
X145755D01*
X153355Y46002D02*
X157055D01*
X137455D02*
X145655D01*
X153455Y46102D02*
X157155D01*
X137055D02*
X145655D01*
X153555Y46202D02*
X157155D01*
X136655D02*
X145555D01*
X153555Y46302D02*
X157155D01*
X136255D02*
X145555D01*
X153655Y46402D02*
X157255D01*
X135855D02*
X145455D01*
X153755Y46502D02*
X157255D01*
X135455D02*
X145455D01*
X153855Y46602D02*
X157255D01*
X135055D02*
X145355D01*
X153955Y46702D02*
X157355D01*
X134655D02*
X145355D01*
X154055Y46802D02*
X157355D01*
X134255D02*
X145255D01*
X154155Y46902D02*
X157455D01*
X133755D02*
X145155D01*
X154155Y47002D02*
X157455D01*
X133455D02*
X145155D01*
X154355Y47102D02*
X157455D01*
X132955D02*
X145055D01*
X154355Y47202D02*
X157555D01*
X132655D02*
X145055D01*
X154455Y47302D02*
X157555D01*
X132155D02*
X144955D01*
X154555Y47402D02*
X157555D01*
X132355D02*
X144955D01*
X154655Y47502D02*
X157655D01*
X133055D02*
X144855D01*
X154755Y47602D02*
X157655D01*
X133755D02*
X144855D01*
X154855Y47702D02*
X157655D01*
X134455D02*
X144755D01*
X154955Y47802D02*
X157755D01*
X135155D02*
X144655D01*
X154955Y47902D02*
X157755D01*
X135955D02*
X144655D01*
X155055Y48002D02*
X157855D01*
X136555D02*
X144555D01*
X155155Y48102D02*
X157855D01*
X137355D02*
X144555D01*
X155255Y48202D02*
X157855D01*
X137955D02*
X144455D01*
X155355Y48302D02*
X157955D01*
X138755D02*
X144455D01*
X155455Y48402D02*
X157955D01*
X139355D02*
X144355D01*
X155555Y48502D02*
X157955D01*
X140155D02*
X144355D01*
X155655Y48602D02*
X158055D01*
X140855D02*
X144255D01*
X155755Y48702D02*
X158055D01*
X141555D02*
X144255D01*
X155755Y48802D02*
X158055D01*
X142255D02*
X144155D01*
X155855Y48902D02*
X158155D01*
X143055D02*
X144055D01*
X155955Y49002D02*
X158155D01*
X143655D02*
X144055D01*
X156055Y49102D02*
X158255D01*
X156155Y49202D02*
X158255D01*
X156255Y49302D02*
X158255D01*
X156355Y49402D02*
X158355D01*
X156355Y49502D02*
X158355D01*
X156455Y49602D02*
X158355D01*
X156555Y49702D02*
X158455D01*
X156655Y49802D02*
X158455D01*
X156755Y49902D02*
X158455D01*
X156855Y50002D02*
X158555D01*
X156955Y50102D02*
X158555D01*
X157055Y50202D02*
X158655D01*
X157055Y50302D02*
X158655D01*
X157155Y50402D02*
X158655D01*
X157255Y50502D02*
X158755D01*
X157355Y50602D02*
X158755D01*
X157455Y50702D02*
X158755D01*
X157555Y50802D02*
X158855D01*
X157655Y50902D02*
X158855D01*
X157755Y51002D02*
X158855D01*
X157855Y51102D02*
X158955D01*
X157855Y51202D02*
X158955D01*
X157955Y51302D02*
X159055D01*
X158055Y51402D02*
X159055D01*
X158155Y51502D02*
X159055D01*
X158255Y51602D02*
X159155D01*
X158355Y51702D02*
X159155D01*
X158455Y51802D02*
X159155D01*
X158455Y51902D02*
X159255D01*
X158655Y52002D02*
X159255D01*
X158655Y52102D02*
X159255D01*
X158755Y52202D02*
X159355D01*
X158855Y52302D02*
X159355D01*
X158955Y52402D02*
X159455D01*
X159055Y52502D02*
X159455D01*
X159155Y52602D02*
X159455D01*
X159255Y52702D02*
X159555D01*
X159255Y52802D02*
X159555D01*
X159355Y52902D02*
X159555D01*
X159455Y53002D02*
X159655D01*
X159555Y53102D02*
X159655D01*
D67*
X50842Y-166866D02*
Y-166078D01*
X37457Y-166866D02*
X50842D01*
X37457D02*
Y-166078D01*
X50842Y-160566D02*
Y-159779D01*
X37457D02*
X50842D01*
X37457Y-160566D02*
Y-159779D01*
X44150Y-166866D02*
Y-159779D01*
X293307Y141732D02*
Y189370D01*
X301575D01*
Y141732D02*
Y189370D01*
X293307Y141732D02*
X301575D01*
X59150Y-245121D02*
X71433Y-250394D01*
X94488Y-280394D02*
Y-250394D01*
Y-280394D02*
X114488D01*
Y-250394D01*
X94488D02*
X114488D01*
X96063Y-261651D02*
X103150D01*
Y-278974D02*
Y-261651D01*
X96063Y-278974D02*
X103150D01*
X96063D02*
Y-261651D01*
X106299Y-278974D02*
Y-261651D01*
Y-278974D02*
X113386D01*
Y-261651D01*
X106299D02*
X113386D01*
X83071Y-251809D02*
X90158D01*
Y-269131D02*
Y-251809D01*
X83071Y-269131D02*
X90158D01*
X83071D02*
Y-251809D01*
X72835Y-269131D02*
Y-251809D01*
Y-269131D02*
X79921D01*
Y-251809D01*
X72835D02*
X79921D01*
X74410Y-257320D02*
Y-253383D01*
Y-257320D02*
X78347D01*
Y-253383D01*
X74410D02*
X78347D01*
X71433Y-250394D02*
X91433D01*
Y-280394D02*
Y-250394D01*
X71433Y-280394D02*
X91433D01*
X71433D02*
Y-250394D01*
X59567Y-395787D02*
Y-349606D01*
X59449D02*
Y-338583D01*
Y-349606D02*
X247244D01*
Y-338583D01*
X59449D02*
X247244D01*
X36283Y-332150D02*
X37283Y-331150D01*
X36283Y-332150D02*
X37283Y-333150D01*
Y-331150D01*
X35283Y-332150D02*
X36283D01*
Y-335694D02*
Y-328607D01*
X28783Y-331150D02*
Y-328607D01*
X44283D01*
Y-329394D02*
Y-328607D01*
X28783Y-335694D02*
Y-333150D01*
Y-335694D02*
X44283D01*
Y-334906D01*
X28283Y-331150D02*
X28783D01*
X28283D02*
Y-328607D01*
X28783D01*
X28283Y-335694D02*
X28783D01*
X28283D02*
Y-333150D01*
X28783D01*
X36283Y-312150D02*
X37283Y-311150D01*
X36283Y-312150D02*
X37283Y-313150D01*
Y-311150D01*
X35283Y-312150D02*
X36283D01*
Y-315694D02*
Y-308607D01*
X28783Y-311150D02*
Y-308607D01*
X44283D01*
Y-309394D02*
Y-308607D01*
X28783Y-315694D02*
Y-313150D01*
Y-315694D02*
X44283D01*
Y-314906D01*
X28283Y-311150D02*
X28783D01*
X28283D02*
Y-308607D01*
X28783D01*
X28283Y-315694D02*
X28783D01*
X28283D02*
Y-313150D01*
X28783D01*
X36283Y-292150D02*
X37283Y-291150D01*
X36283Y-292150D02*
X37283Y-293150D01*
Y-291150D01*
X35283Y-292150D02*
X36283D01*
Y-295693D02*
Y-288607D01*
X28783Y-291150D02*
Y-288607D01*
X44283D01*
Y-289394D02*
Y-288607D01*
X28783Y-295693D02*
Y-293150D01*
Y-295693D02*
X44283D01*
Y-294906D01*
X28283Y-291150D02*
X28783D01*
X28283D02*
Y-288607D01*
X28783D01*
X28283Y-295693D02*
X28783D01*
X28283D02*
Y-293150D01*
X28783D01*
X72227Y-112957D02*
X73015D01*
Y-126343D02*
Y-112957D01*
X72227Y-126343D02*
X73015D01*
X65928Y-112957D02*
X66715D01*
X65928Y-126343D02*
Y-112957D01*
Y-126343D02*
X66715D01*
X65928Y-119650D02*
X73015D01*
X63549Y-112957D02*
X64336D01*
Y-126343D02*
Y-112957D01*
X63549Y-126343D02*
X64336D01*
X57250Y-112957D02*
X58037D01*
X57250Y-126343D02*
Y-112957D01*
Y-126343D02*
X58037D01*
X57250Y-119650D02*
X64336D01*
X51859Y-181843D02*
X52647D01*
X51859D02*
Y-168457D01*
X52647D01*
X58159Y-181843D02*
X58946D01*
Y-168457D01*
X58159D02*
X58946D01*
X51859Y-175150D02*
X58946D01*
X50842Y-191866D02*
Y-191078D01*
X37457Y-191866D02*
X50842D01*
X37457D02*
Y-191078D01*
X50842Y-185566D02*
Y-184779D01*
X37457D02*
X50842D01*
X37457Y-185566D02*
Y-184779D01*
X44150Y-191866D02*
Y-184779D01*
X51844Y-206843D02*
X52631D01*
X51844D02*
Y-193457D01*
X52631D01*
X58143Y-206843D02*
X58930D01*
Y-193457D01*
X58143D02*
X58930D01*
X51844Y-200150D02*
X58930D01*
X182543Y-106484D02*
X183331D01*
Y-119869D02*
Y-106484D01*
X182543Y-119869D02*
X183331D01*
X176244Y-106484D02*
X177032D01*
X176244Y-119869D02*
Y-106484D01*
Y-119869D02*
X177032D01*
X176244Y-113177D02*
X183331D01*
X184922Y-137767D02*
X197717D01*
X196241Y-147118D02*
X197717D01*
Y-128417D01*
X196241D02*
X197717D01*
X184922D02*
X186399D01*
X184922Y-147118D02*
Y-128417D01*
Y-147118D02*
X186399D01*
X184922Y-158060D02*
X197717D01*
X184922Y-148709D02*
X186399D01*
X184922Y-167410D02*
Y-148709D01*
Y-167410D02*
X186399D01*
X196241D02*
X197717D01*
Y-148709D01*
X196241D02*
X197717D01*
X45875Y-329394D02*
Y-328607D01*
X59261D01*
Y-329394D02*
Y-328607D01*
X45875Y-335694D02*
Y-334906D01*
Y-335694D02*
X59261D01*
Y-334906D01*
X52568Y-335694D02*
Y-328607D01*
X45875Y-309394D02*
Y-308607D01*
X59261D01*
Y-309394D02*
Y-308607D01*
X45875Y-315693D02*
Y-314906D01*
Y-315693D02*
X59261D01*
Y-314906D01*
X52568Y-315693D02*
Y-308607D01*
X45875Y-269394D02*
Y-268607D01*
X59261D01*
Y-269394D02*
Y-268607D01*
X45875Y-275693D02*
Y-274906D01*
Y-275693D02*
X59261D01*
Y-274906D01*
X52568Y-275693D02*
Y-268607D01*
X45875Y-289394D02*
Y-288607D01*
X59261D01*
Y-289394D02*
Y-288607D01*
X45875Y-295693D02*
Y-294906D01*
Y-295693D02*
X59261D01*
Y-294906D01*
X52568Y-295693D02*
Y-288607D01*
X36283Y-272150D02*
X37283Y-271150D01*
X36283Y-272150D02*
X37283Y-273150D01*
Y-271150D01*
X35283Y-272150D02*
X36283D01*
Y-275694D02*
Y-268607D01*
X28783Y-271150D02*
Y-268607D01*
X44283D01*
Y-269394D02*
Y-268607D01*
X28783Y-275694D02*
Y-273150D01*
Y-275694D02*
X44283D01*
Y-274906D01*
X28283Y-271150D02*
X28783D01*
X28283D02*
Y-268607D01*
X28783D01*
X28283Y-275694D02*
X28783D01*
X28283D02*
Y-273150D01*
X28783D01*
X165044Y-119870D02*
Y-107074D01*
X155694Y-119870D02*
Y-118393D01*
Y-119870D02*
X174395D01*
Y-118393D01*
Y-108551D02*
Y-107074D01*
X155694D02*
X174395D01*
X155694Y-108551D02*
Y-107074D01*
X292638Y-87354D02*
Y-74559D01*
X301988Y-76035D02*
Y-74559D01*
X283287D02*
X301988D01*
X283287Y-76035D02*
Y-74559D01*
Y-87354D02*
Y-85878D01*
Y-87354D02*
X301988D01*
Y-85878D01*
X199576Y-340409D02*
X199051Y-339884D01*
X198002D01*
X197477Y-340409D01*
Y-342508D01*
X198002Y-343033D01*
X199051D01*
X199576Y-342508D01*
Y-341458D01*
X198526D01*
X200625Y-343033D02*
Y-339884D01*
X202200D01*
X202724Y-340409D01*
Y-341458D01*
X202200Y-341983D01*
X200625D01*
X203774Y-339884D02*
X204823D01*
X204299D01*
Y-343033D01*
X203774D01*
X204823D01*
X207972Y-339884D02*
X206923D01*
X206398Y-340409D01*
Y-342508D01*
X206923Y-343033D01*
X207972D01*
X208497Y-342508D01*
Y-340409D01*
X207972Y-339884D01*
X209546Y-340409D02*
X210071Y-339884D01*
X211121D01*
X211645Y-340409D01*
Y-340934D01*
X211121Y-341458D01*
X210596D01*
X211121D01*
X211645Y-341983D01*
Y-342508D01*
X211121Y-343033D01*
X210071D01*
X209546Y-342508D01*
X197477Y-345080D02*
X199576D01*
X198526D01*
Y-348228D01*
X200625Y-345080D02*
Y-348228D01*
Y-346654D01*
X202724D01*
Y-345080D01*
Y-348228D01*
X203774D02*
Y-345080D01*
X205348D01*
X205873Y-345604D01*
Y-346654D01*
X205348Y-347179D01*
X203774D01*
X204823D02*
X205873Y-348228D01*
X209022Y-345080D02*
X206923D01*
Y-346654D01*
X207972Y-346129D01*
X208497D01*
X209022Y-346654D01*
Y-347704D01*
X208497Y-348228D01*
X207447D01*
X206923Y-347704D01*
X182468Y-340409D02*
X181943Y-339884D01*
X180893D01*
X180369Y-340409D01*
Y-342508D01*
X180893Y-343033D01*
X181943D01*
X182468Y-342508D01*
Y-341458D01*
X181418D01*
X183517Y-343033D02*
Y-339884D01*
X185091D01*
X185616Y-340409D01*
Y-341458D01*
X185091Y-341983D01*
X183517D01*
X186666Y-339884D02*
X187715D01*
X187191D01*
Y-343033D01*
X186666D01*
X187715D01*
X190864Y-339884D02*
X189814D01*
X189290Y-340409D01*
Y-342508D01*
X189814Y-343033D01*
X190864D01*
X191389Y-342508D01*
Y-340409D01*
X190864Y-339884D01*
X194537Y-343033D02*
X192438D01*
X194537Y-340934D01*
Y-340409D01*
X194013Y-339884D01*
X192963D01*
X192438Y-340409D01*
X180369Y-345080D02*
X182468D01*
X181418D01*
Y-348228D01*
X183517Y-345080D02*
Y-348228D01*
Y-346654D01*
X185616D01*
Y-345080D01*
Y-348228D01*
X186666D02*
Y-345080D01*
X188240D01*
X188765Y-345604D01*
Y-346654D01*
X188240Y-347179D01*
X186666D01*
X187715D02*
X188765Y-348228D01*
X191389D02*
Y-345080D01*
X189814Y-346654D01*
X191913D01*
X146940Y-339884D02*
X149039D01*
X147989D01*
Y-343033D01*
X150089Y-339884D02*
Y-343033D01*
Y-341458D01*
X152188D01*
Y-339884D01*
Y-343033D01*
X153237D02*
Y-339884D01*
X154811D01*
X155336Y-340409D01*
Y-341458D01*
X154811Y-341983D01*
X153237D01*
X154287D02*
X155336Y-343033D01*
X158485D02*
X156386D01*
X158485Y-340934D01*
Y-340409D01*
X157960Y-339884D01*
X156910D01*
X156386Y-340409D01*
X149039Y-345604D02*
X148514Y-345080D01*
X147465D01*
X146940Y-345604D01*
Y-347704D01*
X147465Y-348228D01*
X148514D01*
X149039Y-347704D01*
Y-346654D01*
X147989D01*
X150089Y-348228D02*
Y-345080D01*
X151663D01*
X152188Y-345604D01*
Y-346654D01*
X151663Y-347179D01*
X150089D01*
X153237Y-345080D02*
X154287D01*
X153762D01*
Y-348228D01*
X153237D01*
X154287D01*
X157435Y-345080D02*
X156386D01*
X155861Y-345604D01*
Y-347704D01*
X156386Y-348228D01*
X157435D01*
X157960Y-347704D01*
Y-345604D01*
X157435Y-345080D01*
X159010Y-345604D02*
X159534Y-345080D01*
X160584D01*
X161109Y-345604D01*
Y-347704D01*
X160584Y-348228D01*
X159534D01*
X159010Y-347704D01*
Y-345604D01*
X165753Y-340409D02*
X165229Y-339884D01*
X164179D01*
X163654Y-340409D01*
Y-342508D01*
X164179Y-343033D01*
X165229D01*
X165753Y-342508D01*
Y-341458D01*
X164704D01*
X166803Y-343033D02*
Y-339884D01*
X168377D01*
X168902Y-340409D01*
Y-341458D01*
X168377Y-341983D01*
X166803D01*
X169951Y-339884D02*
X171001D01*
X170476D01*
Y-343033D01*
X169951D01*
X171001D01*
X174150Y-339884D02*
X173100D01*
X172575Y-340409D01*
Y-342508D01*
X173100Y-343033D01*
X174150D01*
X174674Y-342508D01*
Y-340409D01*
X174150Y-339884D01*
X175724Y-343033D02*
X176773D01*
X176249D01*
Y-339884D01*
X175724Y-340409D01*
X163654Y-345080D02*
X165753D01*
X164704D01*
Y-348228D01*
X166803Y-345080D02*
Y-348228D01*
Y-346654D01*
X168902D01*
Y-345080D01*
Y-348228D01*
X169951D02*
Y-345080D01*
X171526D01*
X172050Y-345604D01*
Y-346654D01*
X171526Y-347179D01*
X169951D01*
X171001D02*
X172050Y-348228D01*
X173100Y-345604D02*
X173625Y-345080D01*
X174674D01*
X175199Y-345604D01*
Y-346129D01*
X174674Y-346654D01*
X174150D01*
X174674D01*
X175199Y-347179D01*
Y-347704D01*
X174674Y-348228D01*
X173625D01*
X173100Y-347704D01*
X77672Y-340409D02*
X77147Y-339884D01*
X76097D01*
X75573Y-340409D01*
Y-340934D01*
X76097Y-341458D01*
X77147D01*
X77672Y-341983D01*
Y-342508D01*
X77147Y-343033D01*
X76097D01*
X75573Y-342508D01*
X80820Y-340409D02*
X80295Y-339884D01*
X79246D01*
X78721Y-340409D01*
Y-342508D01*
X79246Y-343033D01*
X80295D01*
X80820Y-342508D01*
X81870Y-339884D02*
Y-343033D01*
X83969D01*
X85018D02*
X86068D01*
X85543D01*
Y-339884D01*
X85018Y-340409D01*
X75573Y-348228D02*
Y-345080D01*
X77147D01*
X77672Y-345604D01*
Y-346654D01*
X77147Y-347179D01*
X75573D01*
X78721Y-345080D02*
Y-348228D01*
X79771Y-347179D01*
X80820Y-348228D01*
Y-345080D01*
X81870Y-348228D02*
Y-345080D01*
X82919Y-346129D01*
X83969Y-345080D01*
Y-348228D01*
X85018Y-347704D02*
X85543Y-348228D01*
X86593D01*
X87117Y-347704D01*
Y-345604D01*
X86593Y-345080D01*
X85543D01*
X85018Y-345604D01*
Y-346129D01*
X85543Y-346654D01*
X87117D01*
X216684Y-340409D02*
X216159Y-339884D01*
X215110D01*
X214585Y-340409D01*
Y-342508D01*
X215110Y-343033D01*
X216159D01*
X216684Y-342508D01*
Y-341458D01*
X215634D01*
X217733Y-343033D02*
Y-339884D01*
X219308D01*
X219832Y-340409D01*
Y-341458D01*
X219308Y-341983D01*
X217733D01*
X220882Y-339884D02*
X221932D01*
X221407D01*
Y-343033D01*
X220882D01*
X221932D01*
X225080Y-339884D02*
X224031D01*
X223506Y-340409D01*
Y-342508D01*
X224031Y-343033D01*
X225080D01*
X225605Y-342508D01*
Y-340409D01*
X225080Y-339884D01*
X228229Y-343033D02*
Y-339884D01*
X226654Y-341458D01*
X228753D01*
X214585Y-345080D02*
X216684D01*
X215634D01*
Y-348228D01*
X217733Y-345080D02*
Y-348228D01*
Y-346654D01*
X219832D01*
Y-345080D01*
Y-348228D01*
X220882D02*
Y-345080D01*
X222456D01*
X222981Y-345604D01*
Y-346654D01*
X222456Y-347179D01*
X220882D01*
X221932D02*
X222981Y-348228D01*
X226130Y-345080D02*
X225080Y-345604D01*
X224031Y-346654D01*
Y-347704D01*
X224555Y-348228D01*
X225605D01*
X226130Y-347704D01*
Y-347179D01*
X225605Y-346654D01*
X224031D01*
X233792Y-340409D02*
X233267Y-339884D01*
X232218D01*
X231693Y-340409D01*
Y-342508D01*
X232218Y-343033D01*
X233267D01*
X233792Y-342508D01*
Y-341458D01*
X232743D01*
X234841Y-343033D02*
Y-339884D01*
X236416D01*
X236941Y-340409D01*
Y-341458D01*
X236416Y-341983D01*
X234841D01*
X237990Y-339884D02*
X239040D01*
X238515D01*
Y-343033D01*
X237990D01*
X239040D01*
X242188Y-339884D02*
X241139D01*
X240614Y-340409D01*
Y-342508D01*
X241139Y-343033D01*
X242188D01*
X242713Y-342508D01*
Y-340409D01*
X242188Y-339884D01*
X245862D02*
X243762D01*
Y-341458D01*
X244812Y-340934D01*
X245337D01*
X245862Y-341458D01*
Y-342508D01*
X245337Y-343033D01*
X244287D01*
X243762Y-342508D01*
X231693Y-345080D02*
X233792D01*
X232743D01*
Y-348228D01*
X234841Y-345080D02*
Y-348228D01*
Y-346654D01*
X236941D01*
Y-345080D01*
Y-348228D01*
X237990D02*
Y-345080D01*
X239564D01*
X240089Y-345604D01*
Y-346654D01*
X239564Y-347179D01*
X237990D01*
X239040D02*
X240089Y-348228D01*
X241139Y-345080D02*
X243238D01*
Y-345604D01*
X241139Y-347704D01*
Y-348228D01*
X107164Y-340409D02*
X106639Y-339884D01*
X105589D01*
X105064Y-340409D01*
Y-340934D01*
X105589Y-341458D01*
X106639D01*
X107164Y-341983D01*
Y-342508D01*
X106639Y-343033D01*
X105589D01*
X105064Y-342508D01*
X110312Y-340409D02*
X109787Y-339884D01*
X108738D01*
X108213Y-340409D01*
Y-342508D01*
X108738Y-343033D01*
X109787D01*
X110312Y-342508D01*
X111362Y-339884D02*
Y-343033D01*
X113461D01*
X116609D02*
X114510D01*
X116609Y-340934D01*
Y-340409D01*
X116085Y-339884D01*
X115035D01*
X114510Y-340409D01*
X105064Y-345080D02*
X107164D01*
X106114D01*
Y-348228D01*
X108213Y-346129D02*
X110312Y-348228D01*
X109263Y-347179D01*
X110312Y-346129D01*
X108213Y-348228D01*
X111362D02*
X112411D01*
X111886D01*
Y-345080D01*
X111362Y-345604D01*
X119810Y-339884D02*
X121909D01*
X120860D01*
Y-343033D01*
X122959Y-339884D02*
Y-343033D01*
Y-341458D01*
X125058D01*
Y-339884D01*
Y-343033D01*
X126108D02*
Y-339884D01*
X127682D01*
X128207Y-340409D01*
Y-341458D01*
X127682Y-341983D01*
X126108D01*
X127157D02*
X128207Y-343033D01*
X129256Y-340409D02*
X129781Y-339884D01*
X130830D01*
X131355Y-340409D01*
Y-342508D01*
X130830Y-343033D01*
X129781D01*
X129256Y-342508D01*
Y-340409D01*
X119810Y-348228D02*
Y-345080D01*
X121385D01*
X121909Y-345604D01*
Y-346654D01*
X121385Y-347179D01*
X119810D01*
X120860D02*
X121909Y-348228D01*
X122959Y-346129D02*
X125058Y-348228D01*
X124008Y-347179D01*
X125058Y-346129D01*
X122959Y-348228D01*
X128207D02*
X126108D01*
X128207Y-346129D01*
Y-345604D01*
X127682Y-345080D01*
X126632D01*
X126108Y-345604D01*
X134556Y-339884D02*
X136655D01*
X135606D01*
Y-343033D01*
X137705Y-339884D02*
Y-343033D01*
Y-341458D01*
X139804D01*
Y-339884D01*
Y-343033D01*
X140853D02*
Y-339884D01*
X142428D01*
X142952Y-340409D01*
Y-341458D01*
X142428Y-341983D01*
X140853D01*
X141903D02*
X142952Y-343033D01*
X144002D02*
X145052D01*
X144527D01*
Y-339884D01*
X144002Y-340409D01*
X134556Y-345080D02*
X136655D01*
X135606D01*
Y-348228D01*
X137705Y-346129D02*
X139804Y-348228D01*
X138754Y-347179D01*
X139804Y-346129D01*
X137705Y-348228D01*
X142952D02*
X140853D01*
X142952Y-346129D01*
Y-345604D01*
X142428Y-345080D01*
X141378D01*
X140853Y-345604D01*
X92418Y-340409D02*
X91893Y-339884D01*
X90843D01*
X90319Y-340409D01*
Y-340934D01*
X90843Y-341458D01*
X91893D01*
X92418Y-341983D01*
Y-342508D01*
X91893Y-343033D01*
X90843D01*
X90319Y-342508D01*
X93467Y-339884D02*
Y-343033D01*
X95041D01*
X95566Y-342508D01*
Y-340409D01*
X95041Y-339884D01*
X93467D01*
X96616Y-343033D02*
Y-340934D01*
X97665Y-339884D01*
X98715Y-340934D01*
Y-343033D01*
Y-341458D01*
X96616D01*
X101863Y-343033D02*
X99764D01*
X101863Y-340934D01*
Y-340409D01*
X101339Y-339884D01*
X100289D01*
X99764Y-340409D01*
X90319Y-348228D02*
Y-345080D01*
X91893D01*
X92418Y-345604D01*
Y-346654D01*
X91893Y-347179D01*
X90319D01*
X91368D02*
X92418Y-348228D01*
X93467Y-346129D02*
X95566Y-348228D01*
X94517Y-347179D01*
X95566Y-346129D01*
X93467Y-348228D01*
X96616D02*
X97665D01*
X97141D01*
Y-345080D01*
X96616Y-345604D01*
X62926Y-340409D02*
X62401Y-339884D01*
X61352D01*
X60827Y-340409D01*
Y-340934D01*
X61352Y-341458D01*
X62401D01*
X62926Y-341983D01*
Y-342508D01*
X62401Y-343033D01*
X61352D01*
X60827Y-342508D01*
X63975Y-339884D02*
Y-343033D01*
X65550D01*
X66074Y-342508D01*
Y-340409D01*
X65550Y-339884D01*
X63975D01*
X67124Y-343033D02*
Y-340934D01*
X68173Y-339884D01*
X69223Y-340934D01*
Y-343033D01*
Y-341458D01*
X67124D01*
X70272Y-343033D02*
X71322D01*
X70797D01*
Y-339884D01*
X70272Y-340409D01*
X60827Y-348228D02*
Y-345080D01*
X62401D01*
X62926Y-345604D01*
Y-346654D01*
X62401Y-347179D01*
X60827D01*
X63975Y-345080D02*
Y-348228D01*
X65025Y-347179D01*
X66074Y-348228D01*
Y-345080D01*
X67124Y-348228D02*
Y-345080D01*
X68173Y-346129D01*
X69223Y-345080D01*
Y-348228D01*
X70272Y-345604D02*
X70797Y-345080D01*
X71847D01*
X72372Y-345604D01*
Y-346129D01*
X71847Y-346654D01*
X72372Y-347179D01*
Y-347704D01*
X71847Y-348228D01*
X70797D01*
X70272Y-347704D01*
Y-347179D01*
X70797Y-346654D01*
X70272Y-346129D01*
Y-345604D01*
X70797Y-346654D02*
X71847D01*
D68*
X247711Y-476846D02*
D03*
Y-461393D02*
D03*
M02*
