M48
;Layer_Color=9474304
;FILE_FORMAT=2:5
INCH,TZ
;TYPE=PLATED
T1F00S00C0.01575
T2F00S00C0.02800
T3F00S00C0.03543
T4F00S00C0.03937
T5F00S00C0.05512
T6F00S00C0.12598
;TYPE=NON_PLATED
T7F00S00C0.02362
T8F00S00C0.03150
T9F00S00C0.04134
T10F00S00C0.06496
%
T01
X210582Y-438150
X220582
X230582
X240582
Y-418150
X230582
X220582
X210582
X200582
X205582Y-408150
X215582
X225582
X235582
X215582Y-428150
X205582
X195582Y-408150
X225582Y-448150
X205650Y-332150
X205649Y-312150
X160150Y-272150
X61650
X61650Y-292150
X61650Y-312150
X61650Y-332150
X26150
Y-312150
Y-292150
Y-272150
X61150Y-196650
X61094Y-171705
X84650Y-193150
X101650Y-186650
X88650Y-112150
X84150Y-116150
T02
X279528Y-81102
X298031Y-71260
T03
X64567Y-410787
Y-400787
X74567
Y-410787
X84567
Y-400787
X94567
Y-410787
X104567
Y-400787
X114567
Y-410787
X124567
Y-400787
X134567
Y-410787
X144567
Y-400787
X154567
Y-410787
X164567
Y-400787
X174567
Y-410787
X54150Y-240121
Y-230121
X44150
Y-240121
Y-220121
X54150
X53478Y-188322
X71978Y-163322
X77150Y-154650
X154328Y-113472
X193781Y-104019
X205650Y-171263
X186614Y-9449
Y0
X177165
Y-9449
X215638Y64225
X229024
X242409
X83748
X73299
X62850
X52402
X47575Y31811
X57811
X68047
X37339
X27102
X16866
X6630
X-3606
X-13842
X0Y0
Y-9449
X9449
Y0
X20331Y-18504
Y-28346
Y-38189
X80638Y8319
T04
X261114Y-445973
Y-436131
X257150Y-174650
X267150
X277150
X287150
Y-114650
X277150
X267150
X257150
X157150Y-134650
Y-144650
Y-154650
X297150Y-174650
Y-114650
T05
X9055Y-34036
T06
X266397Y-479296
X-36753Y-262761
X61811Y-144488
X275590Y-206299
Y-41339
X-36753Y-26540
X266397Y189995
T07
X19150Y-223534
Y-218613
Y-213691
Y-208770
Y-194974
Y-190053
Y-185132
Y-180210
Y-166414
Y-161493
Y-156571
Y-151650
X19150Y-137650
Y-132729
Y-127808
Y-122886
X19150Y-109071
Y-104150
Y-99229
Y-94308
Y-80511
Y-75590
Y-70669
Y-65748
T08
X93921Y-382721
X104000
X114079
X124158
X134236
X144315
X149315Y-375201
X139236
X134276Y-367682
X144354
X149315Y-360162
X139236
X129157
X119079
X109000
X98921
X93961Y-367682
X104039
X114118
X124197
X129157Y-375201
X119079
X109000
X98921
X93921Y-217721
X104000
X114079
X124158
X129157Y-210201
X119079
X109000
X98921
X93961Y-202682
X104039
X114118
X124197
X129157Y-195162
X119079
X109000
X98921
X139236
X149315
X144354Y-202682
X134276
X139236Y-210201
X149315
X144315Y-217721
X134236
Y-52721
X144315
X149315Y-45201
X139236
X134276Y-37682
X144354
X149315Y-30162
X139236
X129157
X119079
X109000
X98921
X93961Y-37682
X104039
X114118
X124197
X129157Y-45201
X119079
X109000
X98921
X93921Y-52721
X104000
X114079
X124158
Y112279
X114079
X104000
X93921
X98921Y119799
X109000
X119079
X129157
X124197Y127318
X114118
X104039
X93961
X98921Y134838
X109000
X119079
X129157
X139236
X149315
X144354Y127318
X134276
X139236Y119799
X149315
X144315Y112279
X134236
T09
X167150Y-378036
X176992
X186835
X196677
Y-364650
X186835
X176992
X167150
X214394
X224236
X234079
X243921
Y-378036
X234079
X224236
X214394
Y-213036
X224236
X234079
X243921
Y-199650
X234079
X224236
X214394
X196677
X186835
X176992
X167150
Y-213036
X176992
X186835
X196677
Y-48036
X186835
X176992
X167150
Y-34650
X176992
X186835
X196677
X214394
X224236
X234079
X243921
Y-48036
X234079
X224236
X214394
Y116964
X224236
X234079
X243921
Y130350
X234079
X224236
X214394
X196677
X186835
X176992
X167150
Y116964
X176992
X186835
X196677
T10
X-12441Y-20650
X3150
M30
